Nepomuk-Italic.ufo
<glyph name="exclam" format="2">
  <advance width="310"/>
  <unicode hex="0021"/>
  <outline>
    <contour>
      <point x="33" y="55" type="curve" smooth="yes"/>
      <point x="33" y="21"/>
      <point x="61" y="-7"/>
      <point x="95" y="-7" type="curve" smooth="yes"/>
      <point x="129" y="-7"/>
      <point x="157" y="21"/>
      <point x="157" y="55" type="curve" smooth="yes"/>
      <point x="157" y="89"/>
      <point x="129" y="117"/>
      <point x="95" y="117" type="curve" smooth="yes"/>
      <point x="61" y="117"/>
      <point x="33" y="89"/>
    </contour>
    <contour>
      <point x="284" y="692" type="curve" smooth="yes"/>
      <point x="244" y="692"/>
      <point x="215" y="650"/>
      <point x="205" y="592" type="curve" smooth="yes"/>
      <point x="188" y="501"/>
      <point x="186" y="400"/>
      <point x="130" y="227" type="curve"/>
      <point x="162" y="217" type="line"/>
      <point x="221" y="396"/>
      <point x="275" y="464"/>
      <point x="320" y="552" type="curve" smooth="yes"/>
      <point x="332" y="576"/>
      <point x="340" y="603"/>
      <point x="340" y="627" type="curve" smooth="yes"/>
      <point x="340" y="662"/>
      <point x="323" y="692"/>
    </contour>
  </outline>
</glyph>
<glyph name="quotedbl" format="2">
  <advance width="403"/>
  <unicode hex="0022"/>
  <outline>
    <contour>
      <point x="197" y="682" type="line" smooth="yes"/>
      <point x="201" y="714"/>
      <point x="212" y="748"/>
      <point x="248" y="748" type="curve" smooth="yes"/>
      <point x="264" y="748"/>
      <point x="272" y="739"/>
      <point x="272" y="721" type="curve" smooth="yes"/>
      <point x="272" y="713"/>
      <point x="269" y="702"/>
      <point x="264" y="687" type="curve"/>
      <point x="201" y="532" type="line"/>
      <point x="176" y="532" type="line"/>
    </contour>
    <contour>
      <point x="354" y="682" type="line" smooth="yes"/>
      <point x="358" y="714"/>
      <point x="370" y="748"/>
      <point x="406" y="748" type="curve" smooth="yes"/>
      <point x="422" y="748"/>
      <point x="430" y="739"/>
      <point x="430" y="721" type="curve" smooth="yes"/>
      <point x="430" y="713"/>
      <point x="427" y="702"/>
      <point x="422" y="687" type="curve"/>
      <point x="358" y="532" type="line"/>
      <point x="334" y="532" type="line"/>
    </contour>
  </outline>
</glyph>
<glyph name="dollar" format="2">
  <advance width="571"/>
  <unicode hex="0024"/>
  <outline>
    <contour>
      <point x="180" y="-12" type="line"/>
      <point x="150" y="-5"/>
      <point x="100" y="24"/>
      <point x="63" y="62"/>
      <point x="42" y="110"/>
      <point x="42" y="136" type="qcurve" smooth="yes"/>
      <point x="42" y="157"/>
      <point x="56" y="195"/>
      <point x="81" y="224"/>
      <point x="112" y="242"/>
      <point x="129" y="242" type="qcurve" smooth="yes"/>
      <point x="156" y="242"/>
      <point x="173" y="220" type="qcurve"/>
      <point x="148" y="210"/>
      <point x="119" y="161"/>
      <point x="119" y="129" type="qcurve" smooth="yes"/>
      <point x="119" y="93"/>
      <point x="157" y="44"/>
      <point x="191" y="35" type="qcurve"/>
      <point x="263" y="327" type="line"/>
      <point x="239" y="344"/>
      <point x="195" y="382"/>
      <point x="162" y="425"/>
      <point x="141" y="476"/>
      <point x="141" y="507" type="qcurve" smooth="yes"/>
      <point x="141" y="545"/>
      <point x="173" y="611"/>
      <point x="229" y="662"/>
      <point x="306" y="691"/>
      <point x="351" y="692" type="qcurve"/>
      <point x="370" y="769" type="line"/>
      <point x="421" y="769" type="line"/>
      <point x="401" y="689" type="line"/>
      <point x="458" y="679"/>
      <point x="527" y="614"/>
      <point x="527" y="567" type="qcurve" smooth="yes"/>
      <point x="527" y="528"/>
      <point x="479" y="480"/>
      <point x="442" y="480" type="qcurve" smooth="yes"/>
      <point x="426" y="480"/>
      <point x="410" y="489"/>
      <point x="405" y="499" type="qcurve"/>
      <point x="425" y="505"/>
      <point x="454" y="548"/>
      <point x="454" y="575" type="qcurve" smooth="yes"/>
      <point x="454" y="631"/>
      <point x="390" y="644" type="qcurve"/>
      <point x="333" y="405" type="line"/>
      <point x="358" y="387"/>
      <point x="408" y="348"/>
      <point x="449" y="299"/>
      <point x="475" y="239"/>
      <point x="475" y="200" type="qcurve" smooth="yes"/>
      <point x="475" y="155"/>
      <point x="436" y="76"/>
      <point x="371" y="17"/>
      <point x="283" y="-19"/>
      <point x="234" y="-19" type="qcurve" smooth="yes"/>
      <point x="230" y="-19" type="line"/>
      <point x="200" y="-141" type="line"/>
      <point x="149" y="-141" type="line"/>
    </contour>
    <contour>
      <point x="395" y="157" type="qcurve" smooth="yes"/>
      <point x="395" y="200"/>
      <point x="343" y="265"/>
      <point x="306" y="294" type="qcurve"/>
      <point x="242" y="29" type="line"/>
      <point x="274" y="30"/>
      <point x="331" y="51"/>
      <point x="371" y="84"/>
      <point x="395" y="130"/>
    </contour>
    <contour>
      <point x="229" y="542" type="qcurve" smooth="yes"/>
      <point x="229" y="510"/>
      <point x="263" y="461"/>
      <point x="290" y="439" type="qcurve"/>
      <point x="339" y="645" type="line"/>
      <point x="290" y="640"/>
      <point x="229" y="585"/>
    </contour>
  </outline>
</glyph>
<glyph name="ampersand" format="2">
  <advance width="758"/>
  <unicode hex="0026"/>
  <outline>
    <contour>
      <point x="208" y="-18" type="curve" smooth="yes"/>
      <point x="117" y="-18"/>
      <point x="52" y="35"/>
      <point x="52" y="132" type="curve" smooth="yes"/>
      <point x="52" y="270"/>
      <point x="184" y="378"/>
      <point x="306" y="421" type="curve" smooth="yes"/>
      <point x="366" y="442" type="line"/>
      <point x="363" y="442" type="line"/>
      <point x="373" y="552"/>
      <point x="436" y="719"/>
      <point x="567" y="719" type="curve" smooth="yes"/>
      <point x="623" y="719"/>
      <point x="655" y="682"/>
      <point x="655" y="627" type="curve" smooth="yes"/>
      <point x="655" y="537"/>
      <point x="578" y="493"/>
      <point x="502" y="466" type="curve" smooth="yes"/>
      <point x="441" y="444" type="line"/>
      <point x="444" y="444" type="line"/>
      <point x="444" y="185" type="line"/>
      <point x="500" y="260"/>
      <point x="558" y="337"/>
      <point x="614" y="411" type="curve" smooth="yes"/>
      <point x="638" y="442"/>
      <point x="667" y="469"/>
      <point x="709" y="469" type="curve" smooth="yes"/>
      <point x="753" y="469"/>
      <point x="779" y="439"/>
      <point x="779" y="399" type="curve" smooth="yes"/>
      <point x="779" y="375"/>
      <point x="764" y="345"/>
      <point x="727" y="345" type="curve" smooth="yes"/>
      <point x="709" y="345"/>
      <point x="689" y="352"/>
      <point x="689" y="376" type="curve" smooth="yes"/>
      <point x="689" y="386"/>
      <point x="694" y="396"/>
      <point x="704" y="406" type="curve" smooth="yes"/>
      <point x="710" y="412"/>
      <point x="714" y="419"/>
      <point x="714" y="426" type="curve" smooth="yes"/>
      <point x="714" y="434"/>
      <point x="708" y="442"/>
      <point x="698" y="442" type="curve" smooth="yes"/>
      <point x="683" y="442"/>
      <point x="673" y="430"/>
      <point x="645" y="397" type="curve"/>
      <point x="444" y="143" type="line"/>
      <point x="445" y="143" type="line"/>
      <point x="445" y="63"/>
      <point x="451" y="12"/>
      <point x="496" y="12" type="curve" smooth="yes"/>
      <point x="553" y="12"/>
      <point x="649" y="155"/>
      <point x="677" y="210" type="curve"/>
      <point x="702" y="196" type="line"/>
      <point x="679" y="149"/>
      <point x="648" y="101"/>
      <point x="610" y="53" type="curve" smooth="yes"/>
      <point x="573" y="6"/>
      <point x="531" y="-18"/>
      <point x="485" y="-18" type="curve" smooth="yes"/>
      <point x="416" y="-18"/>
      <point x="387" y="14"/>
      <point x="373" y="67" type="curve"/>
      <point x="323" y="15"/>
      <point x="276" y="-18"/>
    </contour>
    <contour>
      <point x="487" y="485" type="line"/>
      <point x="556" y="507"/>
      <point x="608" y="549"/>
      <point x="608" y="626" type="curve" smooth="yes"/>
      <point x="608" y="654"/>
      <point x="597" y="688"/>
      <point x="565" y="688" type="curve" smooth="yes"/>
      <point x="515" y="688"/>
      <point x="445" y="626"/>
      <point x="444" y="469" type="curve"/>
    </contour>
    <contour>
      <point x="230" y="12" type="curve" smooth="yes"/>
      <point x="282" y="12"/>
      <point x="319" y="45"/>
      <point x="366" y="97" type="curve"/>
      <point x="365" y="97" type="line"/>
      <point x="362" y="107"/>
      <point x="361" y="118"/>
      <point x="361" y="134" type="curve" smooth="yes"/>
      <point x="361" y="413" type="line"/>
      <point x="351" y="410"/>
      <point x="341" y="406"/>
      <point x="331" y="402" type="curve"/>
      <point x="215" y="363"/>
      <point x="161" y="243"/>
      <point x="161" y="127" type="curve" smooth="yes"/>
      <point x="161" y="52"/>
      <point x="186" y="12"/>
    </contour>
  </outline>
</glyph>
<glyph name="quotesingle" format="2">
  <advance width="220"/>
  <unicode hex="0027"/>
  <outline>
    <contour>
      <point x="210" y="682" type="line" smooth="yes"/>
      <point x="213" y="706"/>
      <point x="234" y="748"/>
      <point x="261" y="748" type="qcurve" smooth="yes"/>
      <point x="285" y="748"/>
      <point x="285" y="721" type="qcurve" smooth="yes"/>
      <point x="285.95" y="709.02"/>
      <point x="277" y="687" type="qcurve" smooth="yes"/>
      <point x="214" y="532" type="line"/>
      <point x="189" y="532" type="line"/>
    </contour>
  </outline>
</glyph>
<glyph name="parenleft" format="2">
  <advance width="358"/>
  <unicode hex="0028"/>
  <outline>
    <contour>
      <point x="209" y="-211" type="line"/>
      <point x="132" y="-101"/>
      <point x="76" y="50"/>
      <point x="122" y="286" type="curve" smooth="yes"/>
      <point x="168" y="522"/>
      <point x="277" y="641"/>
      <point x="389" y="714" type="curve"/>
      <point x="371" y="741" type="line"/>
      <point x="251" y="680"/>
      <point x="73" y="539"/>
      <point x="27" y="304" type="curve" smooth="yes"/>
      <point x="-19" y="68"/>
      <point x="94" y="-128"/>
      <point x="182" y="-230" type="curve"/>
    </contour>
  </outline>
</glyph>
<glyph name="parenright" format="2">
  <advance width="355"/>
  <unicode hex="0029"/>
  <outline>
    <contour>
      <point x="-48" y="-235" type="line"/>
      <point x="74" y="-178"/>
      <point x="257" y="-44"/>
      <point x="311" y="190" type="curve" smooth="yes"/>
      <point x="365" y="424"/>
      <point x="260" y="625"/>
      <point x="175" y="729" type="curve"/>
      <point x="147" y="711" type="line"/>
      <point x="221" y="599"/>
      <point x="272" y="445"/>
      <point x="218" y="212" type="curve" smooth="yes"/>
      <point x="164" y="-22"/>
      <point x="51" y="-138"/>
      <point x="-65" y="-207" type="curve"/>
    </contour>
  </outline>
</glyph>
<glyph name="asterisk" format="2">
  <advance width="594"/>
  <unicode hex="002A"/>
  <outline>
    <contour>
      <point x="353" y="297" type="curve" smooth="yes"/>
      <point x="341" y="297"/>
      <point x="332" y="301"/>
      <point x="325" y="309" type="curve" smooth="yes"/>
      <point x="318" y="317"/>
      <point x="314" y="328"/>
      <point x="314" y="341" type="curve" smooth="yes"/>
      <point x="314" y="351"/>
      <point x="318" y="366"/>
      <point x="327" y="385" type="curve"/>
      <point x="336" y="410"/>
      <point x="341" y="436"/>
      <point x="341" y="464" type="curve" smooth="yes"/>
      <point x="341" y="474"/>
      <point x="338" y="479"/>
      <point x="333" y="479" type="curve" smooth="yes"/>
      <point x="330" y="479"/>
      <point x="325" y="477"/>
      <point x="318" y="473" type="curve" smooth="yes"/>
      <point x="294" y="457"/>
      <point x="275" y="440"/>
      <point x="261" y="423" type="curve"/>
      <point x="242" y="396"/>
      <point x="223" y="383"/>
      <point x="204" y="383" type="curve" smooth="yes"/>
      <point x="193" y="383"/>
      <point x="183" y="387"/>
      <point x="176" y="395" type="curve" smooth="yes"/>
      <point x="169" y="402"/>
      <point x="166" y="411"/>
      <point x="166" y="421" type="curve" smooth="yes"/>
      <point x="166" y="447"/>
      <point x="189" y="463"/>
      <point x="234" y="469" type="curve" smooth="yes"/>
      <point x="258" y="472"/>
      <point x="283" y="481"/>
      <point x="310" y="496" type="curve"/>
      <point x="315" y="500" type="line"/>
      <point x="319" y="502"/>
      <point x="321" y="504"/>
      <point x="321" y="507" type="curve" smooth="yes"/>
      <point x="321" y="510"/>
      <point x="319" y="512"/>
      <point x="315" y="514" type="curve"/>
      <point x="310" y="518" type="line"/>
      <point x="283" y="533"/>
      <point x="258" y="542"/>
      <point x="234" y="545" type="curve" smooth="yes"/>
      <point x="189" y="551"/>
      <point x="166" y="567"/>
      <point x="166" y="593" type="curve" smooth="yes"/>
      <point x="166" y="603"/>
      <point x="169" y="611"/>
      <point x="176" y="618" type="curve"/>
      <point x="183" y="627"/>
      <point x="193" y="631"/>
      <point x="204" y="631" type="curve" smooth="yes"/>
      <point x="223" y="631"/>
      <point x="242" y="618"/>
      <point x="261" y="591" type="curve"/>
      <point x="275" y="574"/>
      <point x="294" y="557"/>
      <point x="318" y="541" type="curve" smooth="yes"/>
      <point x="325" y="537"/>
      <point x="330" y="535"/>
      <point x="333" y="535" type="curve" smooth="yes"/>
      <point x="338" y="535"/>
      <point x="341" y="540"/>
      <point x="341" y="550" type="curve" smooth="yes"/>
      <point x="341" y="578"/>
      <point x="336" y="604"/>
      <point x="327" y="629" type="curve"/>
      <point x="318" y="648"/>
      <point x="314" y="663"/>
      <point x="314" y="673" type="curve" smooth="yes"/>
      <point x="314" y="700"/>
      <point x="330" y="717"/>
      <point x="353" y="717" type="curve" smooth="yes"/>
      <point x="365" y="717"/>
      <point x="375" y="713"/>
      <point x="382" y="705" type="curve" smooth="yes"/>
      <point x="389" y="697"/>
      <point x="392" y="686"/>
      <point x="392" y="673" type="curve" smooth="yes"/>
      <point x="392" y="663"/>
      <point x="388" y="648"/>
      <point x="380" y="629" type="curve"/>
      <point x="371" y="604"/>
      <point x="366" y="578"/>
      <point x="366" y="550" type="curve" smooth="yes"/>
      <point x="366" y="540"/>
      <point x="369" y="535"/>
      <point x="374" y="535" type="curve" smooth="yes"/>
      <point x="377" y="535"/>
      <point x="382" y="537"/>
      <point x="388" y="541" type="curve" smooth="yes"/>
      <point x="413" y="557"/>
      <point x="432" y="574"/>
      <point x="445" y="591" type="curve" smooth="yes"/>
      <point x="465" y="618"/>
      <point x="484" y="631"/>
      <point x="503" y="631" type="curve" smooth="yes"/>
      <point x="514" y="631"/>
      <point x="523" y="627"/>
      <point x="530" y="618" type="curve"/>
      <point x="537" y="611"/>
      <point x="541" y="603"/>
      <point x="541" y="593" type="curve" smooth="yes"/>
      <point x="541" y="567"/>
      <point x="518" y="551"/>
      <point x="472" y="545" type="curve" smooth="yes"/>
      <point x="448" y="542"/>
      <point x="423" y="533"/>
      <point x="396" y="518" type="curve"/>
      <point x="391" y="514" type="line" smooth="yes"/>
      <point x="388" y="512"/>
      <point x="386" y="510"/>
      <point x="386" y="507" type="curve" smooth="yes"/>
      <point x="386" y="504"/>
      <point x="388" y="502"/>
      <point x="391" y="500" type="curve" smooth="yes"/>
      <point x="396" y="496" type="line"/>
      <point x="423" y="481"/>
      <point x="448" y="472"/>
      <point x="472" y="469" type="curve" smooth="yes"/>
      <point x="518" y="463"/>
      <point x="541" y="447"/>
      <point x="541" y="421" type="curve" smooth="yes"/>
      <point x="541" y="411"/>
      <point x="537" y="402"/>
      <point x="530" y="395" type="curve" smooth="yes"/>
      <point x="523" y="387"/>
      <point x="514" y="383"/>
      <point x="503" y="383" type="curve" smooth="yes"/>
      <point x="484" y="383"/>
      <point x="465" y="396"/>
      <point x="445" y="423" type="curve" smooth="yes"/>
      <point x="432" y="440"/>
      <point x="413" y="457"/>
      <point x="388" y="473" type="curve" smooth="yes"/>
      <point x="382" y="477"/>
      <point x="377" y="479"/>
      <point x="374" y="479" type="curve" smooth="yes"/>
      <point x="369" y="479"/>
      <point x="366" y="474"/>
      <point x="366" y="464" type="curve" smooth="yes"/>
      <point x="366" y="436"/>
      <point x="371" y="410"/>
      <point x="380" y="385" type="curve"/>
      <point x="388" y="366"/>
      <point x="392" y="351"/>
      <point x="392" y="341" type="curve" smooth="yes"/>
      <point x="392" y="314"/>
      <point x="378" y="297"/>
    </contour>
  </outline>
</glyph>
<glyph name="plus" format="2">
  <advance width="594"/>
  <unicode hex="002B"/>
  <outline>
    <contour>
      <point x="311" y="300" type="line"/>
      <point x="311" y="502" type="line"/>
      <point x="265" y="502" type="line"/>
      <point x="265" y="300" type="line"/>
      <point x="63" y="300" type="line"/>
      <point x="63" y="254" type="line"/>
      <point x="265" y="254" type="line"/>
      <point x="265" y="52" type="line"/>
      <point x="311" y="52" type="line"/>
      <point x="311" y="254" type="line"/>
      <point x="513" y="254" type="line"/>
      <point x="513" y="300" type="line"/>
    </contour>
  </outline>
</glyph>
<glyph name="comma" format="2">
  <advance width="298"/>
  <unicode hex="002C"/>
  <outline>
    <contour>
      <point x="105" y="115" type="curve" smooth="yes"/>
      <point x="72.8741" y="123.54"/>
      <point x="36.6247" y="102.103"/>
      <point x="28" y="70" type="curve" smooth="yes"/>
      <point x="18.6236" y="35.099"/>
      <point x="40.0435" y="1.16869"/>
      <point x="83" y="-10" type="curve" smooth="yes"/>
      <point x="90.0459" y="-11.8319"/>
      <point x="91.8887" y="-18.9703"/>
      <point x="89" y="-30" type="curve" smooth="yes"/>
      <point x="80.8885" y="-60.971"/>
      <point x="42" y="-82"/>
      <point x="-5" y="-79" type="curve"/>
      <point x="-8" y="-109" type="line"/>
      <point x="71" y="-121"/>
      <point x="141.526" y="-67.8737"/>
      <point x="162" y="8" type="curve" smooth="yes"/>
      <point x="175.527" y="58.13"/>
      <point x="151.88" y="102.538"/>
    </contour>
  </outline>
</glyph>
<glyph name="hyphen" format="2">
  <advance width="461"/>
  <unicode hex="002D"/>
  <outline>
    <contour>
      <point x="86" y="284" type="line"/>
      <point x="58" y="209" type="line"/>
      <point x="354" y="209" type="line"/>
      <point x="382" y="284" type="line"/>
    </contour>
  </outline>
</glyph>
<glyph name="period" format="2">
  <advance width="290"/>
  <unicode hex="002E"/>
  <outline>
    <contour>
      <point x="28" y="59" type="curve" smooth="yes"/>
      <point x="28" y="20"/>
      <point x="60" y="-12"/>
      <point x="99" y="-12" type="curve" smooth="yes"/>
      <point x="138" y="-12"/>
      <point x="170" y="20"/>
      <point x="170" y="59" type="curve" smooth="yes"/>
      <point x="170" y="98"/>
      <point x="138" y="130"/>
      <point x="99" y="130" type="curve" smooth="yes"/>
      <point x="60" y="130"/>
      <point x="28" y="98"/>
    </contour>
  </outline>
</glyph>
<glyph name="slash" format="2">
  <advance width="356"/>
  <unicode hex="002F"/>
  <outline>
    <contour>
      <point x="329" y="692" type="line"/>
      <point x="56" y="0" type="line"/>
      <point x="103" y="0" type="line"/>
      <point x="376" y="692" type="line"/>
    </contour>
  </outline>
</glyph>
<glyph name="zero" format="2">
  <advance width="547"/>
  <unicode hex="0030"/>
  <outline>
    <contour>
      <point x="381" y="659" type="curve" smooth="yes"/>
      <point x="433" y="659"/>
      <point x="450" y="611"/>
      <point x="450" y="551" type="curve" smooth="yes"/>
      <point x="450" y="492"/>
      <point x="433" y="421"/>
      <point x="418" y="375" type="curve" smooth="yes"/>
      <point x="385" y="270" type="line" smooth="yes"/>
      <point x="334" y="105"/>
      <point x="259" y="21"/>
      <point x="199" y="21" type="curve" smooth="yes"/>
      <point x="144" y="21"/>
      <point x="126" y="70"/>
      <point x="126" y="130" type="curve" smooth="yes"/>
      <point x="126" y="188"/>
      <point x="143" y="257"/>
      <point x="158" y="303" type="curve" smooth="yes"/>
      <point x="193" y="408" type="line"/>
      <point x="246" y="573"/>
      <point x="321" y="659"/>
    </contour>
    <contour>
      <point x="35" y="217" type="curve" smooth="yes"/>
      <point x="35" y="88"/>
      <point x="90" y="-12"/>
      <point x="202" y="-12" type="curve" smooth="yes"/>
      <point x="356" y="-12"/>
      <point x="545" y="218"/>
      <point x="545" y="461" type="curve" smooth="yes"/>
      <point x="545" y="587"/>
      <point x="490" y="692"/>
      <point x="380" y="692" type="curve" smooth="yes"/>
      <point x="224" y="692"/>
      <point x="35" y="458"/>
    </contour>
  </outline>
</glyph>
<glyph name="one" format="2">
  <advance width="443"/>
  <unicode hex="0031"/>
  <outline>
    <contour>
      <point x="360" y="675" type="line"/>
      <point x="301" y="621"/>
      <point x="250" y="580"/>
      <point x="141" y="586" type="curve"/>
      <point x="134" y="554" type="line"/>
      <point x="156" y="550"/>
      <point x="258" y="559"/>
      <point x="245" y="514" type="curve" smooth="yes"/>
      <point x="132" y="121" type="line" smooth="yes"/>
      <point x="108" y="37"/>
      <point x="104" y="35"/>
      <point x="69" y="35" type="curve" smooth="yes"/>
      <point x="19" y="35" type="line"/>
      <point x="19" y="0" type="line"/>
      <point x="314" y="0" type="line"/>
      <point x="314" y="35" type="line"/>
      <point x="264" y="35" type="line" smooth="yes"/>
      <point x="229" y="35"/>
      <point x="205" y="32"/>
      <point x="223" y="95" type="curve" smooth="yes"/>
      <point x="387" y="675" type="line"/>
    </contour>
  </outline>
</glyph>
<glyph name="two" format="2">
  <advance width="506"/>
  <unicode hex="0032"/>
  <outline>
    <contour>
      <point x="222" y="584" type="curve"/>
      <point x="196" y="594"/>
      <point x="198" y="613"/>
      <point x="218" y="627" type="curve" smooth="yes"/>
      <point x="244" y="645"/>
      <point x="279" y="655"/>
      <point x="314" y="655" type="curve" smooth="yes"/>
      <point x="376" y="655"/>
      <point x="426" y="617"/>
      <point x="426" y="533" type="curve" smooth="yes"/>
      <point x="426" y="425"/>
      <point x="336" y="373"/>
      <point x="212" y="283" type="curve" smooth="yes"/>
      <point x="102" y="203"/>
      <point x="-1" y="119"/>
      <point x="-45" y="0" type="curve"/>
      <point x="-11" y="-11" type="line"/>
      <point x="12" y="39"/>
      <point x="45" y="64"/>
      <point x="82" y="64" type="curve" smooth="yes"/>
      <point x="139" y="64"/>
      <point x="173" y="-12" name="hr01"/>
      <point x="265" y="-12" type="curve" smooth="yes"/>
      <point x="373" y="-12"/>
      <point x="429" y="98"/>
      <point x="436" y="182" type="curve"/>
      <point x="404" y="188" type="line"/>
      <point x="379" y="111"/>
      <point x="349" y="82"/>
      <point x="291" y="82" type="curve" smooth="yes"/>
      <point x="222" y="82"/>
      <point x="177" y="139" name="hr02"/>
      <point x="126" y="139" type="curve" smooth="yes"/>
      <point x="115" y="139"/>
      <point x="101" y="138"/>
      <point x="90" y="135" type="curve"/>
      <point x="132" y="181"/>
      <point x="201" y="228"/>
      <point x="257" y="260" type="curve"/>
      <point x="384" y="330"/>
      <point x="527" y="380"/>
      <point x="527" y="530" type="curve" smooth="yes"/>
      <point x="527" y="624"/>
      <point x="447" y="692"/>
      <point x="333" y="692" type="curve" smooth="yes"/>
      <point x="219" y="692"/>
      <point x="122" y="614"/>
      <point x="122" y="533" type="curve" smooth="yes"/>
      <point x="122" y="478"/>
      <point x="156" y="442"/>
      <point x="198" y="442" type="curve" smooth="yes"/>
      <point x="239" y="442"/>
      <point x="269" y="474"/>
      <point x="269" y="515" type="curve" smooth="yes"/>
      <point x="269" y="544"/>
      <point x="251" y="574"/>
    </contour>
  </outline>
</glyph>
<glyph name="three" format="2">
  <advance width="518"/>
  <unicode hex="0033"/>
  <outline>
    <contour>
      <point x="326" y="343" type="curve"/>
      <point x="326" y="354" type="line"/>
      <point x="437" y="362"/>
      <point x="546" y="433"/>
      <point x="546" y="538" type="curve" smooth="yes"/>
      <point x="546" y="628"/>
      <point x="456" y="692"/>
      <point x="357" y="692" type="curve" smooth="yes"/>
      <point x="263" y="692"/>
      <point x="162" y="641"/>
      <point x="162" y="570" type="curve" smooth="yes"/>
      <point x="162" y="533"/>
      <point x="184" y="499"/>
      <point x="226" y="499" type="curve" smooth="yes"/>
      <point x="268" y="499"/>
      <point x="297" y="528"/>
      <point x="297" y="563" type="curve" smooth="yes"/>
      <point x="297" y="582"/>
      <point x="288" y="599"/>
      <point x="275" y="610" type="curve"/>
      <point x="253" y="630"/>
      <point x="265" y="645"/>
      <point x="297" y="653" type="curve" smooth="yes"/>
      <point x="309" y="656"/>
      <point x="324" y="658"/>
      <point x="339" y="658" type="curve" smooth="yes"/>
      <point x="396" y="658"/>
      <point x="443" y="622"/>
      <point x="443" y="558" type="curve" smooth="yes"/>
      <point x="443" y="407"/>
      <point x="340" y="369"/>
      <point x="195" y="382" type="curve"/>
      <point x="188" y="353" type="line"/>
      <point x="276" y="342"/>
      <point x="338" y="285"/>
      <point x="338" y="206" type="curve" smooth="yes"/>
      <point x="338" y="100"/>
      <point x="268" y="26"/>
      <point x="183" y="26" type="curve" smooth="yes"/>
      <point x="153" y="26"/>
      <point x="126" y="33"/>
      <point x="104" y="45" type="curve" smooth="yes"/>
      <point x="71" y="63"/>
      <point x="85" y="81"/>
      <point x="109" y="90" type="curve" smooth="yes"/>
      <point x="140" y="101"/>
      <point x="158" y="130"/>
      <point x="158" y="162" type="curve" smooth="yes"/>
      <point x="158" y="204"/>
      <point x="121" y="236"/>
      <point x="80" y="236" type="curve" smooth="yes"/>
      <point x="41" y="236"/>
      <point x="0" y="208"/>
      <point x="0" y="146" type="curve" smooth="yes"/>
      <point x="0" y="58"/>
      <point x="85" y="-12"/>
      <point x="209" y="-12" type="curve" smooth="yes"/>
      <point x="370" y="-12"/>
      <point x="448" y="91"/>
      <point x="448" y="181" type="curve" smooth="yes"/>
      <point x="448" y="248"/>
      <point x="397" y="320"/>
    </contour>
  </outline>
</glyph>
<glyph name="four" format="2">
  <advance width="539"/>
  <unicode hex="0034"/>
  <outline>
    <contour>
      <point x="332" y="85" type="curve" smooth="yes"/>
      <point x="362" y="193" type="line"/>
      <point x="500" y="193" type="line"/>
      <point x="512" y="230" type="line"/>
      <point x="374" y="230" type="line"/>
      <point x="438" y="455" type="line" smooth="yes"/>
      <point x="441.119" y="465.967"/>
      <point x="433" y="465"/>
      <point x="427" y="460" type="curve" smooth="yes"/>
      <point x="306" y="354" type="line"/>
      <point x="270" y="230" type="line"/>
      <point x="71" y="230" type="line"/>
      <point x="186" y="372"/>
      <point x="320" y="474"/>
      <point x="460" y="680" type="curve"/>
      <point x="312" y="680" type="line"/>
      <point x="244" y="528"/>
      <point x="143" y="379"/>
      <point x="29" y="237" type="curve"/>
      <point x="15" y="193" type="line"/>
      <point x="259" y="193" type="line"/>
      <point x="228" y="85" type="line" smooth="yes"/>
      <point x="218" y="50"/>
      <point x="199" y="35"/>
      <point x="164" y="35" type="curve" smooth="yes"/>
      <point x="109" y="35" type="line"/>
      <point x="99" y="0" type="line"/>
      <point x="422" y="0" type="line"/>
      <point x="432" y="35" type="line"/>
      <point x="367" y="35" type="line" smooth="yes"/>
      <point x="332" y="35"/>
      <point x="322.258" y="49.9274"/>
    </contour>
  </outline>
</glyph>
<glyph name="five" format="2">
  <advance width="524"/>
  <unicode hex="0035"/>
  <outline>
    <contour>
      <point x="97" y="58" type="curve" smooth="yes"/>
      <point x="97" y="66"/>
      <point x="104" y="76"/>
      <point x="120" y="86" type="curve" smooth="yes"/>
      <point x="142" y="100"/>
      <point x="154" y="125"/>
      <point x="154" y="149" type="curve" smooth="yes"/>
      <point x="154" y="190"/>
      <point x="124" y="220"/>
      <point x="83" y="220" type="curve" smooth="yes"/>
      <point x="42" y="220"/>
      <point x="5" y="187"/>
      <point x="5" y="137" type="curve" smooth="yes"/>
      <point x="5" y="56"/>
      <point x="78" y="-12"/>
      <point x="192" y="-12" type="curve" smooth="yes"/>
      <point x="346" y="-12"/>
      <point x="466" y="97"/>
      <point x="466" y="237" type="curve" smooth="yes"/>
      <point x="466" y="345"/>
      <point x="397" y="410"/>
      <point x="296" y="410" type="curve" smooth="yes"/>
      <point x="266" y="410"/>
      <point x="203" y="403"/>
      <point x="167" y="384" type="curve"/>
      <point x="232" y="581" type="line"/>
      <point x="266" y="576"/>
      <point x="300" y="573"/>
      <point x="332" y="573" type="curve" smooth="yes"/>
      <point x="429" y="573"/>
      <point x="511" y="598"/>
      <point x="532" y="662" type="curve" smooth="yes"/>
      <point x="533" y="665"/>
      <point x="533" y="667"/>
      <point x="533" y="669" type="curve"/>
      <point x="533" y="674"/>
      <point x="531" y="676"/>
      <point x="524" y="676" type="curve" smooth="yes"/>
      <point x="521" y="676" type="line"/>
      <point x="494" y="673"/>
      <point x="459" y="672"/>
      <point x="423" y="672" type="curve" smooth="yes"/>
      <point x="350" y="672"/>
      <point x="270" y="677"/>
      <point x="227" y="685" type="curve"/>
      <point x="123" y="360" type="line"/>
      <point x="143" y="341" type="line"/>
      <point x="177" y="358"/>
      <point x="225" y="373"/>
      <point x="266" y="373" type="curve" smooth="yes"/>
      <point x="339" y="373"/>
      <point x="362" y="319"/>
      <point x="362" y="248" type="curve" smooth="yes"/>
      <point x="362" y="134"/>
      <point x="286" y="24"/>
      <point x="183" y="24" type="curve" smooth="yes"/>
      <point x="151" y="24"/>
      <point x="97" y="32"/>
    </contour>
  </outline>
</glyph>
<glyph name="six" format="2">
  <advance width="524"/>
  <unicode hex="0036"/>
  <outline>
    <contour>
      <point x="414" y="573" type="curve" smooth="yes"/>
      <point x="414" y="539"/>
      <point x="439" y="508"/>
      <point x="477" y="508" type="curve" smooth="yes"/>
      <point x="519" y="508"/>
      <point x="546" y="543"/>
      <point x="546" y="578" type="curve" smooth="yes"/>
      <point x="546" y="653"/>
      <point x="481" y="692"/>
      <point x="396" y="692" type="curve" smooth="yes"/>
      <point x="234" y="692"/>
      <point x="41" y="455"/>
      <point x="41" y="221" type="curve" smooth="yes"/>
      <point x="41" y="102"/>
      <point x="92" y="-12"/>
      <point x="218" y="-12" type="curve" smooth="yes"/>
      <point x="356" y="-12"/>
      <point x="468" y="106"/>
      <point x="468" y="255" type="curve" smooth="yes"/>
      <point x="468" y="347"/>
      <point x="409" y="413"/>
      <point x="313" y="413" type="curve" smooth="yes"/>
      <point x="262" y="413"/>
      <point x="214" y="395"/>
      <point x="172" y="369" type="curve"/>
      <point x="211" y="498"/>
      <point x="300" y="657"/>
      <point x="396" y="657" type="curve" smooth="yes"/>
      <point x="432" y="657"/>
      <point x="442" y="642"/>
      <point x="426" y="613" type="curve" smooth="yes"/>
      <point x="420" y="602"/>
      <point x="414" y="590"/>
    </contour>
    <contour>
      <point x="367" y="269" type="curve" smooth="yes"/>
      <point x="367" y="144"/>
      <point x="300" y="28"/>
      <point x="201" y="28" type="curve" smooth="yes"/>
      <point x="118" y="28"/>
      <point x="105" y="140"/>
      <point x="127" y="221" type="curve" smooth="yes"/>
      <point x="146" y="287" type="line" smooth="yes"/>
      <point x="162" y="342"/>
      <point x="239" y="370"/>
      <point x="283" y="370" type="curve" smooth="yes"/>
      <point x="340" y="370"/>
      <point x="367" y="322"/>
    </contour>
  </outline>
</glyph>
<glyph name="seven" format="2">
  <advance width="487"/>
  <unicode hex="0037"/>
  <outline>
    <contour>
      <point x="481" y="555" type="curve"/>
      <point x="360" y="317"/>
      <point x="187" y="236"/>
      <point x="66" y="26" type="curve" smooth="yes"/>
      <point x="61" y="17"/>
      <point x="58" y="11"/>
      <point x="58" y="7" type="curve" smooth="yes"/>
      <point x="58" y="1"/>
      <point x="64" y="0"/>
      <point x="77" y="0" type="curve" smooth="yes"/>
      <point x="215" y="0" type="line"/>
      <point x="325" y="301"/>
      <point x="490" y="412"/>
      <point x="582" y="692" type="curve"/>
      <point x="542" y="692" type="line"/>
      <point x="528" y="664"/>
      <point x="504" y="637"/>
      <point x="453" y="637" type="curve" smooth="yes"/>
      <point x="380" y="637"/>
      <point x="371" y="672"/>
      <point x="309" y="672" type="curve" smooth="yes"/>
      <point x="265" y="672"/>
      <point x="236" y="647"/>
      <point x="218" y="647" type="curve" smooth="yes"/>
      <point x="209" y="647"/>
      <point x="206" y="653"/>
      <point x="206" y="661" type="curve" smooth="yes"/>
      <point x="206" y="671"/>
      <point x="210" y="683"/>
      <point x="213" y="692" type="curve"/>
      <point x="174" y="692" type="line"/>
      <point x="96" y="452" type="line"/>
      <point x="135" y="452" type="line"/>
      <point x="167" y="546"/>
      <point x="204" y="575"/>
      <point x="264" y="575" type="curve" smooth="yes"/>
      <point x="317" y="575"/>
      <point x="353" y="536"/>
      <point x="415" y="536" type="curve" smooth="yes"/>
      <point x="438" y="536"/>
      <point x="459" y="542"/>
    </contour>
  </outline>
</glyph>
<glyph name="eight" format="2">
  <advance width="571"/>
  <unicode hex="0038"/>
  <outline>
    <contour>
      <point x="5" y="166" type="curve" smooth="yes"/>
      <point x="3" y="65"/>
      <point x="107" y="-12"/>
      <point x="231" y="-12" type="curve" smooth="yes"/>
      <point x="351" y="-12"/>
      <point x="499" y="68"/>
      <point x="499" y="185" type="curve" smooth="yes"/>
      <point x="499" y="256"/>
      <point x="464" y="303"/>
      <point x="401" y="355" type="curve"/>
      <point x="502" y="380"/>
      <point x="590" y="449"/>
      <point x="590" y="541" type="curve" smooth="yes"/>
      <point x="590" y="624"/>
      <point x="505" y="692"/>
      <point x="399" y="692" type="curve" smooth="yes"/>
      <point x="204" y="692"/>
      <point x="89" y="519"/>
      <point x="231" y="365" type="curve"/>
      <point x="117" y="339"/>
      <point x="7" y="266"/>
    </contour>
    <contour>
      <point x="369" y="380" type="curve"/>
      <point x="365" y="383"/>
      <point x="361" y="387"/>
      <point x="356" y="390" type="curve"/>
      <point x="210" y="498"/>
      <point x="249" y="657"/>
      <point x="393" y="657" type="curve" smooth="yes"/>
      <point x="538" y="657"/>
      <point x="566" y="414"/>
    </contour>
    <contour>
      <point x="259" y="338" type="curve"/>
      <point x="267" y="331"/>
      <point x="276" y="324"/>
      <point x="285" y="317" type="curve" smooth="yes"/>
      <point x="489" y="165"/>
      <point x="362" y="25"/>
      <point x="231" y="25" type="curve" smooth="yes"/>
      <point x="134" y="25"/>
      <point x="89" y="91"/>
      <point x="91" y="159" type="curve" smooth="yes"/>
      <point x="93" y="247"/>
      <point x="171" y="316"/>
    </contour>
  </outline>
</glyph>
<glyph name="nine" format="2">
  <advance width="537"/>
  <unicode hex="0039"/>
  <outline>
    <contour>
      <point x="145" y="109" type="curve" smooth="yes"/>
      <point x="145" y="146"/>
      <point x="121" y="173"/>
      <point x="82" y="173" type="curve" smooth="yes"/>
      <point x="43" y="173"/>
      <point x="6" y="141"/>
      <point x="6" y="91" type="curve" smooth="yes"/>
      <point x="6" y="29"/>
      <point x="73" y="-12"/>
      <point x="152" y="-12" type="curve" smooth="yes"/>
      <point x="345" y="-12"/>
      <point x="536" y="282"/>
      <point x="536" y="488" type="curve" smooth="yes"/>
      <point x="536" y="605"/>
      <point x="480" y="692"/>
      <point x="349" y="692" type="curve" smooth="yes"/>
      <point x="220" y="692"/>
      <point x="103" y="574"/>
      <point x="103" y="425" type="curve" smooth="yes"/>
      <point x="103" y="333"/>
      <point x="159" y="267"/>
      <point x="255" y="267" type="curve" smooth="yes"/>
      <point x="308" y="267"/>
      <point x="349" y="282"/>
      <point x="391" y="308" type="curve"/>
      <point x="352" y="179"/>
      <point x="264" y="23"/>
      <point x="149" y="23" type="curve" smooth="yes"/>
      <point x="120" y="23"/>
      <point x="112" y="41"/>
      <point x="125" y="56" type="curve" smooth="yes"/>
      <point x="141" y="74"/>
      <point x="145" y="91"/>
    </contour>
    <contour>
      <point x="201" y="411" type="curve" smooth="yes"/>
      <point x="201" y="528"/>
      <point x="266" y="653"/>
      <point x="362" y="653" type="curve" smooth="yes"/>
      <point x="452" y="653"/>
      <point x="460" y="533"/>
      <point x="438" y="460" type="curve" smooth="yes"/>
      <point x="419" y="395" type="line" smooth="yes"/>
      <point x="403" y="340"/>
      <point x="333" y="312"/>
      <point x="285" y="312" type="curve" smooth="yes"/>
      <point x="228" y="312"/>
      <point x="201" y="358"/>
    </contour>
  </outline>
</glyph>
<glyph name="colon" format="2">
  <advance width="282"/>
  <unicode hex="003A"/>
  <outline>
    <contour>
      <point x="90" y="390" type="curve" smooth="yes"/>
      <point x="90" y="351"/>
      <point x="122" y="319"/>
      <point x="161" y="319" type="curve" smooth="yes"/>
      <point x="200" y="319"/>
      <point x="232" y="351"/>
      <point x="232" y="390" type="curve" smooth="yes"/>
      <point x="232" y="429"/>
      <point x="200" y="461"/>
      <point x="161" y="461" type="curve" smooth="yes"/>
      <point x="122" y="461"/>
      <point x="90" y="429"/>
    </contour>
    <contour>
      <point x="10" y="59" type="curve" smooth="yes"/>
      <point x="10" y="20" name=".hr01"/>
      <point x="42" y="-12"/>
      <point x="81" y="-12" type="curve" smooth="yes"/>
      <point x="120" y="-12"/>
      <point x="152" y="20"/>
      <point x="152" y="59" type="curve" smooth="yes"/>
      <point x="152" y="98"/>
      <point x="120" y="130"/>
      <point x="81" y="130" type="curve" smooth="yes"/>
      <point x="42" y="130"/>
      <point x="10" y="98"/>
    </contour>
  </outline>
</glyph>
<glyph name="semicolon" format="2">
  <advance width="334"/>
  <unicode hex="003B"/>
  <outline>
    <component base="period" xScale="0.9659" xyScale="-0.2588" yxScale="0.2588" yScale="0.9659" xOffset="68" yOffset="335"/>
    <contour>
      <point x="118" y="132" type="curve" smooth="yes"/>
      <point x="86" y="141"/>
      <point x="49" y="118"/>
      <point x="41" y="87" type="curve" smooth="yes"/>
      <point x="32" y="52"/>
      <point x="53" y="18"/>
      <point x="96" y="7" type="curve" smooth="yes"/>
      <point x="103" y="5"/>
      <point x="105" y="-2"/>
      <point x="102" y="-14" type="curve" smooth="yes"/>
      <point x="94" y="-45"/>
      <point x="55" y="-65"/>
      <point x="8" y="-62" type="curve"/>
      <point x="5" y="-92" type="line"/>
      <point x="84" y="-104"/>
      <point x="154" y="-52"/>
      <point x="175" y="25" type="curve" smooth="yes"/>
      <point x="188" y="75"/>
      <point x="165" y="120"/>
    </contour>
  </outline>
</glyph>
<glyph name="less" format="2">
  <advance width="782"/>
  <unicode hex="003C"/>
  <outline>
    <contour>
      <point x="636" y="-53" type="line"/>
      <point x="55" y="260" type="line"/>
      <point x="55" y="281" type="line"/>
      <point x="636" y="593" type="line"/>
      <point x="652" y="566" type="line"/>
      <point x="103" y="270" type="line"/>
      <point x="652" y="-25" type="line"/>
    </contour>
  </outline>
</glyph>
<glyph name="equal" format="2">
  <advance width="657"/>
  <unicode hex="003D"/>
  <outline>
    <contour>
      <point x="95" y="190" type="line"/>
      <point x="95" y="140" type="line"/>
      <point x="545" y="140" type="line"/>
      <point x="545" y="190" type="line"/>
    </contour>
    <contour>
      <point x="95" y="360" type="line"/>
      <point x="95" y="310" type="line"/>
      <point x="545" y="310" type="line"/>
      <point x="545" y="360" type="line"/>
    </contour>
  </outline>
</glyph>
<glyph name="greater" format="2">
  <advance width="781"/>
  <unicode hex="003E"/>
  <outline>
    <contour>
      <point x="131" y="-53" type="line"/>
      <point x="116" y="-25" type="line"/>
      <point x="665" y="270" type="line"/>
      <point x="116" y="566" type="line"/>
      <point x="131" y="593" type="line"/>
      <point x="713" y="281" type="line"/>
      <point x="713" y="260" type="line"/>
    </contour>
  </outline>
</glyph>
<glyph name="question" format="2">
  <advance width="415"/>
  <unicode hex="003F"/>
  <outline>
    <contour>
      <point x="98" y="55" type="curve" smooth="yes"/>
      <point x="98" y="21"/>
      <point x="126" y="-7"/>
      <point x="160" y="-7" type="curve" smooth="yes"/>
      <point x="194" y="-7"/>
      <point x="222" y="21"/>
      <point x="222" y="55" type="curve" smooth="yes"/>
      <point x="222" y="89"/>
      <point x="194" y="117"/>
      <point x="160" y="117" type="curve" smooth="yes"/>
      <point x="126" y="117"/>
      <point x="98" y="89"/>
    </contour>
    <contour>
      <point x="230" y="221" type="curve" smooth="yes"/>
      <point x="205" y="221"/>
      <point x="193" y="239"/>
      <point x="193" y="268" type="curve" smooth="yes"/>
      <point x="193" y="316"/>
      <point x="248" y="358"/>
      <point x="320" y="421" type="curve" smooth="yes"/>
      <point x="387" y="481"/>
      <point x="435" y="520"/>
      <point x="435" y="590" type="curve" smooth="yes"/>
      <point x="435" y="656"/>
      <point x="376" y="692"/>
      <point x="314" y="692" type="curve" smooth="yes"/>
      <point x="237" y="692"/>
      <point x="175" y="644"/>
      <point x="163" y="572" type="curve"/>
      <point x="194" y="564" type="line"/>
      <point x="206" y="631"/>
      <point x="260" y="655"/>
      <point x="298" y="655" type="curve" smooth="yes"/>
      <point x="332" y="655"/>
      <point x="354" y="631"/>
      <point x="354" y="605" type="curve" smooth="yes"/>
      <point x="354" y="561"/>
      <point x="314" y="519"/>
      <point x="242" y="463" type="curve" smooth="yes"/>
      <point x="171" y="407"/>
      <point x="127" y="357"/>
      <point x="127" y="291" type="curve" smooth="yes"/>
      <point x="127" y="233"/>
      <point x="168" y="190"/>
      <point x="221" y="190" type="curve" smooth="yes"/>
      <point x="275" y="190"/>
      <point x="326" y="224"/>
      <point x="348" y="272" type="curve"/>
      <point x="318" y="284" type="line"/>
      <point x="300" y="249"/>
      <point x="267" y="221"/>
    </contour>
  </outline>
</glyph>
<glyph name="at" format="2">
  <advance width="840"/>
  <unicode hex="0040"/>
  <outline>
    <contour>
      <point x="469" y="-18" type="curve" smooth="yes"/>
      <point x="238" y="-18"/>
      <point x="98" y="137"/>
      <point x="98" y="364" type="curve" smooth="yes"/>
      <point x="98" y="433"/>
      <point x="115" y="497"/>
      <point x="149" y="556" type="curve" smooth="yes"/>
      <point x="183" y="615"/>
      <point x="229" y="661"/>
      <point x="288" y="696" type="curve" smooth="yes"/>
      <point x="346" y="731"/>
      <point x="410" y="748"/>
      <point x="479" y="748" type="curve" smooth="yes"/>
      <point x="554" y="748"/>
      <point x="618" y="732"/>
      <point x="671" y="700" type="curve" smooth="yes"/>
      <point x="778" y="636"/>
      <point x="834" y="521"/>
      <point x="834" y="386" type="curve" smooth="yes"/>
      <point x="834" y="349"/>
      <point x="825" y="312"/>
      <point x="808" y="273" type="curve" smooth="yes"/>
      <point x="772" y="195"/>
      <point x="701" y="134"/>
      <point x="600" y="134" type="curve" smooth="yes"/>
      <point x="548" y="134"/>
      <point x="508" y="163"/>
      <point x="503" y="211" type="curve"/>
      <point x="498" y="212" type="line"/>
      <point x="486" y="194"/>
      <point x="469" y="177"/>
      <point x="448" y="160" type="curve" smooth="yes"/>
      <point x="426" y="143"/>
      <point x="402" y="134"/>
      <point x="375" y="134" type="curve" smooth="yes"/>
      <point x="344" y="134"/>
      <point x="318" y="145"/>
      <point x="295" y="167" type="curve" smooth="yes"/>
      <point x="272" y="189"/>
      <point x="260" y="220"/>
      <point x="260" y="261" type="curve" smooth="yes"/>
      <point x="260" y="348"/>
      <point x="284" y="440"/>
      <point x="329" y="493" type="curve" smooth="yes"/>
      <point x="386" y="562"/>
      <point x="452" y="593"/>
      <point x="509" y="593" type="curve" smooth="yes"/>
      <point x="527" y="593"/>
      <point x="543" y="587"/>
      <point x="557" y="574" type="curve" smooth="yes"/>
      <point x="571" y="561"/>
      <point x="579" y="548"/>
      <point x="582" y="537" type="curve"/>
      <point x="587" y="537" type="line"/>
      <point x="598" y="581" type="line"/>
      <point x="672" y="581" type="line"/>
      <point x="586" y="263" type="line" smooth="yes"/>
      <point x="582" y="247"/>
      <point x="580" y="232"/>
      <point x="580" y="219" type="curve" smooth="yes"/>
      <point x="580" y="182"/>
      <point x="597" y="159"/>
      <point x="616" y="159" type="curve" smooth="yes"/>
      <point x="658" y="159"/>
      <point x="692" y="172"/>
      <point x="717" y="198" type="curve" smooth="yes"/>
      <point x="768" y="250"/>
      <point x="784" y="330"/>
      <point x="784" y="407" type="curve" smooth="yes"/>
      <point x="784" y="602"/>
      <point x="660" y="719"/>
      <point x="470" y="719" type="curve" smooth="yes"/>
      <point x="411" y="719"/>
      <point x="357" y="703"/>
      <point x="308" y="670" type="curve" smooth="yes"/>
      <point x="208" y="605"/>
      <point x="147" y="484"/>
      <point x="147" y="343" type="curve" smooth="yes"/>
      <point x="147" y="139"/>
      <point x="272" y="10"/>
      <point x="479" y="10" type="curve" smooth="yes"/>
      <point x="539" y="10"/>
      <point x="599" y="30"/>
      <point x="659" y="70" type="curve"/>
      <point x="676" y="46" type="line"/>
      <point x="631" y="14"/>
      <point x="562" y="-18"/>
    </contour>
    <contour>
      <point x="379" y="159" type="curve" smooth="yes"/>
      <point x="414" y="159"/>
      <point x="445" y="177"/>
      <point x="473" y="213" type="curve" smooth="yes"/>
      <point x="500" y="249"/>
      <point x="521" y="292"/>
      <point x="535" y="343" type="curve" smooth="yes"/>
      <point x="558" y="430" type="line" smooth="yes"/>
      <point x="561" y="443"/>
      <point x="563" y="455"/>
      <point x="563" y="468" type="curve" smooth="yes"/>
      <point x="563" y="520"/>
      <point x="542" y="568"/>
      <point x="509" y="568" type="curve" smooth="yes"/>
      <point x="454" y="568"/>
      <point x="413" y="534"/>
      <point x="373" y="445" type="curve"/>
      <point x="360" y="419"/>
      <point x="350" y="386"/>
      <point x="342" y="345" type="curve" smooth="yes"/>
      <point x="334" y="304"/>
      <point x="330" y="265"/>
      <point x="330" y="228" type="curve" smooth="yes"/>
      <point x="330" y="187"/>
      <point x="354" y="159"/>
    </contour>
  </outline>
</glyph>
<glyph name="A" format="2">
  <advance width="663"/>
  <unicode hex="0041"/>
  <anchor x="439" y="718" name="accent1"/>
  <outline>
    <contour>
      <point x="200" y="252" type="line"/>
      <point x="380" y="559" type="line"/>
      <point x="413" y="252" type="line"/>
    </contour>
    <contour>
      <point x="179" y="217" type="line"/>
      <point x="417" y="217" type="line"/>
      <point x="428" y="109" type="line" smooth="yes"/>
      <point x="434" y="50"/>
      <point x="415" y="35"/>
      <point x="366" y="35" type="curve" smooth="yes"/>
      <point x="338" y="35" type="line"/>
      <point x="328" y="0" type="line"/>
      <point x="623" y="0" type="line"/>
      <point x="633" y="35" type="line"/>
      <point x="599" y="35" type="line" smooth="yes"/>
      <point x="566" y="35"/>
      <point x="541" y="42"/>
      <point x="533" y="106" type="curve" smooth="yes"/>
      <point x="461" y="692" type="line"/>
      <point x="412" y="692" type="line"/>
      <point x="73" y="116" type="line"/>
      <point x="27" y="36"/>
      <point x="-10" y="35"/>
      <point x="-45" y="35" type="curve" smooth="yes"/>
      <point x="-70" y="35" type="line"/>
      <point x="-80" y="0" type="line"/>
      <point x="175" y="0" type="line"/>
      <point x="185" y="35" type="line"/>
      <point x="158" y="35" type="line" smooth="yes"/>
      <point x="98" y="35"/>
      <point x="79" y="47"/>
      <point x="120" y="117" type="curve" smooth="yes"/>
    </contour>
  </outline>
</glyph>
<glyph name="B" format="2">
  <advance width="643"/>
  <unicode hex="0042"/>
  <outline>
    <contour>
      <point x="281" y="384" type="line"/>
      <point x="344" y="604" type="line" smooth="yes"/>
      <point x="352.623" y="634.111"/>
      <point x="379" y="644"/>
      <point x="416" y="644" type="curve" smooth="yes"/>
      <point x="431" y="644" type="line" smooth="yes"/>
      <point x="479" y="644"/>
      <point x="509" y="614"/>
      <point x="509" y="563" type="curve" smooth="yes"/>
      <point x="509" y="548"/>
      <point x="506" y="532"/>
      <point x="501" y="514" type="curve" smooth="yes"/>
      <point x="474" y="419"/>
      <point x="425" y="384"/>
      <point x="337" y="384" type="curve" smooth="yes"/>
    </contour>
    <contour>
      <point x="455" y="365" type="curve"/>
      <point x="455" y="365"/>
      <point x="451" y="365"/>
      <point x="451" y="367" type="curve" smooth="yes"/>
      <point x="451" y="370"/>
      <point x="455" y="370"/>
      <point x="455" y="370" type="curve"/>
      <point x="556" y="386"/>
      <point x="607" y="451"/>
      <point x="618" y="514" type="curve" smooth="yes"/>
      <point x="620" y="524"/>
      <point x="621" y="534"/>
      <point x="621" y="543" type="curve" smooth="yes"/>
      <point x="621" y="626"/>
      <point x="548" y="680"/>
      <point x="430" y="680" type="curve" smooth="yes"/>
      <point x="165" y="680" type="line"/>
      <point x="155" y="645" type="line"/>
      <point x="205" y="645" type="line" smooth="yes"/>
      <point x="232" y="645"/>
      <point x="245" y="636"/>
      <point x="245" y="616" type="curve" smooth="yes"/>
      <point x="245" y="610"/>
      <point x="243" y="603"/>
      <point x="241" y="595" type="curve"/>
      <point x="94" y="85" type="line" smooth="yes"/>
      <point x="84" y="50"/>
      <point x="65" y="35"/>
      <point x="30" y="35" type="curve" smooth="yes"/>
      <point x="0" y="35" type="line"/>
      <point x="-10" y="0" type="line"/>
      <point x="266" y="0" type="line" smooth="yes"/>
      <point x="431" y="0"/>
      <point x="562" y="43"/>
      <point x="588" y="190" type="curve" smooth="yes"/>
      <point x="590" y="200"/>
      <point x="591" y="210"/>
      <point x="591" y="219" type="curve" smooth="yes"/>
      <point x="591" y="291"/>
      <point x="540" y="353"/>
    </contour>
    <contour>
      <point x="267" y="36" type="curve" smooth="yes"/>
      <point x="254" y="36" type="line" smooth="yes"/>
      <point x="235" y="36"/>
      <point x="191" y="43"/>
      <point x="191" y="69" type="curve"/>
      <point x="191" y="71"/>
      <point x="191" y="73"/>
      <point x="192" y="76" type="curve"/>
      <point x="270" y="348" type="line"/>
      <point x="343" y="348" type="line" smooth="yes"/>
      <point x="433" y="348"/>
      <point x="475" y="314"/>
      <point x="475" y="236" type="curve" smooth="yes"/>
      <point x="475" y="113"/>
      <point x="399" y="36"/>
    </contour>
  </outline>
</glyph>
<glyph name="C" format="2">
  <advance width="621"/>
  <unicode hex="0043"/>
  <outline>
    <contour>
      <point x="284" y="-12" type="curve" smooth="yes"/>
      <point x="397" y="-12"/>
      <point x="485" y="68"/>
      <point x="547" y="193" type="curve"/>
      <point x="512" y="201" type="line"/>
      <point x="451" y="98"/>
      <point x="391" y="29"/>
      <point x="281" y="29" type="curve" smooth="yes"/>
      <point x="153" y="29"/>
      <point x="166" y="190"/>
      <point x="198" y="306" type="curve" smooth="yes"/>
      <point x="225" y="402" type="line" smooth="yes"/>
      <point x="251" y="494"/>
      <point x="318" y="658"/>
      <point x="421" y="658" type="curve" smooth="yes"/>
      <point x="493" y="658"/>
      <point x="564" y="588"/>
      <point x="544" y="436" type="curve"/>
      <point x="587" y="436" type="line"/>
      <point x="661" y="692" type="line"/>
      <point x="623" y="692" type="line"/>
      <point x="612" y="678" type="line" smooth="yes"/>
      <point x="585" y="644"/>
      <point x="572" y="612"/>
      <point x="529" y="650" type="curve" smooth="yes"/>
      <point x="507" y="669"/>
      <point x="467" y="692"/>
      <point x="415" y="692" type="curve" smooth="yes"/>
      <point x="267" y="692"/>
      <point x="126" y="536"/>
      <point x="80" y="371" type="curve" smooth="yes"/>
      <point x="67" y="324"/>
      <point x="60" y="279"/>
      <point x="60" y="237" type="curve" smooth="yes"/>
      <point x="60" y="100"/>
      <point x="143" y="-12"/>
    </contour>
  </outline>
</glyph>
<glyph name="D" format="2">
  <advance width="690"/>
  <unicode hex="0044"/>
  <outline>
    <contour>
      <point x="165" y="680" type="line"/>
      <point x="155" y="645" type="line"/>
      <point x="205" y="645" type="line" smooth="yes"/>
      <point x="232" y="645"/>
      <point x="245" y="636"/>
      <point x="245" y="616" type="curve" smooth="yes"/>
      <point x="245" y="610"/>
      <point x="243" y="603"/>
      <point x="241" y="595" type="curve"/>
      <point x="94" y="85" type="line" smooth="yes"/>
      <point x="84" y="50"/>
      <point x="65" y="35"/>
      <point x="30" y="35" type="curve" smooth="yes"/>
      <point x="0" y="35" type="line"/>
      <point x="-10" y="0" type="line"/>
      <point x="260" y="0" type="line" smooth="yes"/>
      <point x="476" y="0"/>
      <point x="635" y="156"/>
      <point x="671" y="340" type="curve" smooth="yes"/>
      <point x="677" y="368"/>
      <point x="679" y="395"/>
      <point x="679" y="422" type="curve" smooth="yes"/>
      <point x="679" y="567"/>
      <point x="595" y="680"/>
      <point x="424" y="680" type="curve" smooth="yes"/>
    </contour>
    <contour>
      <point x="261" y="36" type="curve" smooth="yes"/>
      <point x="254" y="36" type="line" smooth="yes"/>
      <point x="235" y="36"/>
      <point x="196" y="43"/>
      <point x="196" y="68" type="curve"/>
      <point x="196" y="70"/>
      <point x="196" y="73"/>
      <point x="197" y="76" type="curve"/>
      <point x="348" y="604" type="line" smooth="yes"/>
      <point x="357" y="636"/>
      <point x="408" y="644"/>
      <point x="428" y="644" type="curve" smooth="yes"/>
      <point x="435" y="644" type="line" smooth="yes"/>
      <point x="510" y="644"/>
      <point x="573" y="607"/>
      <point x="573" y="492" type="curve" smooth="yes"/>
      <point x="573" y="452"/>
      <point x="565" y="402"/>
      <point x="547" y="340" type="curve" smooth="yes"/>
      <point x="484" y="119"/>
      <point x="401" y="36"/>
    </contour>
  </outline>
</glyph>
<glyph name="E" format="2">
  <advance width="675"/>
  <unicode hex="0045"/>
  <anchor x="439" y="718" name="accent1"/>
  <outline>
    <contour>
      <point x="165" y="680" type="line"/>
      <point x="155" y="645" type="line"/>
      <point x="205" y="645" type="line" smooth="yes"/>
      <point x="240" y="645"/>
      <point x="251" y="630"/>
      <point x="241" y="595" type="curve" smooth="yes"/>
      <point x="94" y="85" type="line" smooth="yes"/>
      <point x="84" y="50"/>
      <point x="65" y="35"/>
      <point x="30" y="35" type="curve" smooth="yes"/>
      <point x="0" y="35" type="line"/>
      <point x="-10" y="0" type="line"/>
      <point x="523" y="0" type="line"/>
      <point x="608" y="280" type="line"/>
      <point x="578" y="280" type="line"/>
      <point x="521" y="159"/>
      <point x="447" y="36"/>
      <point x="304" y="36" type="curve" smooth="yes"/>
      <point x="231" y="36" type="line" smooth="yes"/>
      <point x="205" y="36"/>
      <point x="185.021" y="54.9938"/>
      <point x="192" y="79" type="curve" smooth="yes"/>
      <point x="267" y="337" type="line"/>
      <point x="317" y="337" type="line" smooth="yes"/>
      <point x="380" y="337"/>
      <point x="403" y="279"/>
      <point x="382" y="175" type="curve"/>
      <point x="415" y="175" type="line"/>
      <point x="512" y="512" type="line"/>
      <point x="479" y="512" type="line"/>
      <point x="446" y="425"/>
      <point x="400" y="372"/>
      <point x="340" y="372" type="curve" smooth="yes"/>
      <point x="277" y="372" type="line"/>
      <point x="343" y="604" type="line" smooth="yes"/>
      <point x="349.841" y="628.046"/>
      <point x="389" y="644"/>
      <point x="419" y="644" type="curve" smooth="yes"/>
      <point x="482" y="644" type="line" smooth="yes"/>
      <point x="586" y="644"/>
      <point x="619" y="571"/>
      <point x="610" y="445" type="curve"/>
      <point x="639" y="445" type="line"/>
      <point x="687" y="680" type="line"/>
    </contour>
  </outline>
</glyph>
<glyph name="F" format="2">
  <advance width="647"/>
  <unicode hex="0046"/>
  <outline>
    <contour>
      <point x="-10" y="0" type="line"/>
      <point x="279" y="0" type="line"/>
      <point x="289" y="35" type="line"/>
      <point x="229" y="35" type="line" smooth="yes"/>
      <point x="194" y="35"/>
      <point x="184" y="50"/>
      <point x="194" y="85" type="curve" smooth="yes"/>
      <point x="267" y="337" type="line"/>
      <point x="317" y="337" type="line" smooth="yes"/>
      <point x="380" y="337"/>
      <point x="403" y="279"/>
      <point x="382" y="175" type="curve"/>
      <point x="415" y="175" type="line"/>
      <point x="512" y="512" type="line"/>
      <point x="479" y="512" type="line"/>
      <point x="446" y="425"/>
      <point x="400" y="372"/>
      <point x="340" y="372" type="curve" smooth="yes"/>
      <point x="277" y="372" type="line"/>
      <point x="343" y="604" type="line" smooth="yes"/>
      <point x="350" y="628"/>
      <point x="389" y="644"/>
      <point x="419" y="644" type="curve" smooth="yes"/>
      <point x="482" y="644" type="line" smooth="yes"/>
      <point x="586" y="644"/>
      <point x="619" y="571"/>
      <point x="610" y="445" type="curve"/>
      <point x="639" y="445" type="line"/>
      <point x="687" y="680" type="line"/>
      <point x="165" y="680" type="line"/>
      <point x="155" y="645" type="line"/>
      <point x="205" y="645" type="line" smooth="yes"/>
      <point x="240" y="645"/>
      <point x="251" y="630"/>
      <point x="241" y="595" type="curve" smooth="yes"/>
      <point x="94" y="85" type="line" smooth="yes"/>
      <point x="84" y="50"/>
      <point x="65" y="35"/>
      <point x="30" y="35" type="curve" smooth="yes"/>
      <point x="0" y="35" type="line"/>
    </contour>
  </outline>
</glyph>
<glyph name="H" format="2">
  <advance width="761"/>
  <unicode hex="0048"/>
  <anchor x="505" y="708" name="accent1"/>
  <outline>
    <contour>
      <point x="712" y="595" type="line" smooth="yes"/>
      <point x="722" y="630"/>
      <point x="741" y="645"/>
      <point x="776" y="645" type="curve" smooth="yes"/>
      <point x="811" y="645" type="line"/>
      <point x="821" y="680" type="line"/>
      <point x="541" y="680" type="line"/>
      <point x="531" y="645" type="line"/>
      <point x="576" y="645" type="line" smooth="yes"/>
      <point x="611" y="645"/>
      <point x="622" y="630"/>
      <point x="612" y="595" type="curve" smooth="yes"/>
      <point x="545" y="361" type="line"/>
      <point x="279" y="361" type="line"/>
      <point x="346" y="595" type="line" smooth="yes"/>
      <point x="356.02" y="629.994"/>
      <point x="375" y="645"/>
      <point x="410" y="645" type="curve" smooth="yes"/>
      <point x="445" y="645" type="line"/>
      <point x="455" y="680" type="line"/>
      <point x="175" y="680" type="line"/>
      <point x="165" y="645" type="line"/>
      <point x="210" y="645" type="line" smooth="yes"/>
      <point x="245" y="645"/>
      <point x="256" y="630"/>
      <point x="246" y="595" type="curve" smooth="yes"/>
      <point x="99" y="85" type="line" smooth="yes"/>
      <point x="89" y="50"/>
      <point x="70" y="35"/>
      <point x="35" y="35" type="curve" smooth="yes"/>
      <point x="0" y="35" type="line"/>
      <point x="-10" y="0" type="line"/>
      <point x="270" y="0" type="line"/>
      <point x="280" y="35" type="line"/>
      <point x="235" y="35" type="line" smooth="yes"/>
      <point x="200" y="35"/>
      <point x="189.981" y="50.0055"/>
      <point x="200" y="85" type="curve" smooth="yes"/>
      <point x="269" y="326" type="line"/>
      <point x="534" y="326" type="line"/>
      <point x="465" y="85" type="line" smooth="yes"/>
      <point x="455" y="50"/>
      <point x="436" y="35"/>
      <point x="401" y="35" type="curve" smooth="yes"/>
      <point x="366" y="35" type="line"/>
      <point x="356" y="0" type="line"/>
      <point x="636" y="0" type="line"/>
      <point x="646" y="35" type="line"/>
      <point x="601" y="35" type="line" smooth="yes"/>
      <point x="566" y="35"/>
      <point x="556" y="50"/>
      <point x="566" y="85" type="curve" smooth="yes"/>
    </contour>
  </outline>
</glyph>
<glyph name="I" format="2">
  <advance width="400"/>
  <unicode hex="0049"/>
  <outline>
    <contour>
      <point x="351" y="595" type="line" smooth="yes"/>
      <point x="361" y="630"/>
      <point x="380" y="645"/>
      <point x="415" y="645" type="curve" smooth="yes"/>
      <point x="450" y="645" type="line"/>
      <point x="460" y="680" type="line"/>
      <point x="175" y="680" type="line"/>
      <point x="165" y="645" type="line"/>
      <point x="210" y="645" type="line" smooth="yes"/>
      <point x="245" y="645"/>
      <point x="256" y="630"/>
      <point x="246" y="595" type="curve" smooth="yes"/>
      <point x="99" y="85" type="line" smooth="yes"/>
      <point x="89" y="50"/>
      <point x="70" y="35"/>
      <point x="35" y="35" type="curve" smooth="yes"/>
      <point x="0" y="35" type="line"/>
      <point x="-10" y="0" type="line"/>
      <point x="275" y="0" type="line"/>
      <point x="285" y="35" type="line"/>
      <point x="240" y="35" type="line" smooth="yes"/>
      <point x="205" y="35"/>
      <point x="195" y="50"/>
      <point x="205" y="85" type="curve" smooth="yes"/>
    </contour>
  </outline>
</glyph>
<glyph name="J" format="2">
  <advance width="502"/>
  <unicode hex="004A"/>
  <outline>
    <contour>
      <point x="50" y="-3" type="curve" smooth="yes"/>
      <point x="50" y="9"/>
      <point x="58" y="20"/>
      <point x="74" y="27" type="curve"/>
      <point x="94" y="35"/>
      <point x="120" y="51"/>
      <point x="120" y="88" type="curve" smooth="yes"/>
      <point x="120" y="115"/>
      <point x="98" y="146"/>
      <point x="62" y="146" type="curve" smooth="yes"/>
      <point x="34" y="146"/>
      <point x="-3" y="122"/>
      <point x="-8" y="79" type="curve" smooth="yes"/>
      <point x="-9" y="71"/>
      <point x="-10" y="63"/>
      <point x="-10" y="55" type="curve" smooth="yes"/>
      <point x="-10" y="-13"/>
      <point x="37" y="-68"/>
      <point x="118" y="-68" type="curve" smooth="yes"/>
      <point x="268" y="-68"/>
      <point x="335" y="118"/>
      <point x="382" y="282" type="curve" smooth="yes"/>
      <point x="472" y="595" type="line" smooth="yes"/>
      <point x="482" y="630"/>
      <point x="502" y="645"/>
      <point x="537" y="645" type="curve" smooth="yes"/>
      <point x="572" y="645" type="line"/>
      <point x="582" y="680" type="line"/>
      <point x="296" y="680" type="line"/>
      <point x="286" y="645" type="line"/>
      <point x="331" y="645" type="line" smooth="yes"/>
      <point x="358" y="645"/>
      <point x="371" y="636"/>
      <point x="371" y="616" type="curve" smooth="yes"/>
      <point x="371" y="610"/>
      <point x="369" y="603"/>
      <point x="367" y="595" type="curve"/>
      <point x="248" y="182" type="line" smooth="yes"/>
      <point x="222" y="91"/>
      <point x="177" y="-35"/>
      <point x="101" y="-35" type="curve" smooth="yes"/>
      <point x="76" y="-35"/>
      <point x="50" y="-24"/>
    </contour>
  </outline>
</glyph>
<glyph name="L" format="2">
  <advance width="607"/>
  <unicode hex="004C"/>
  <anchor x="341" y="728" name="accent1"/>
  <outline>
    <contour>
      <point x="-10" y="0" type="line"/>
      <point x="489" y="0" type="line"/>
      <point x="587" y="280" type="line"/>
      <point x="557" y="280" type="line"/>
      <point x="489" y="158"/>
      <point x="434" y="36"/>
      <point x="268" y="36" type="curve" smooth="yes"/>
      <point x="240" y="36" type="line" smooth="yes"/>
      <point x="212" y="36"/>
      <point x="186" y="53"/>
      <point x="195" y="84" type="curve" smooth="yes"/>
      <point x="341" y="595" type="line" smooth="yes"/>
      <point x="351" y="630"/>
      <point x="371" y="645"/>
      <point x="406" y="645" type="curve" smooth="yes"/>
      <point x="446" y="645" type="line"/>
      <point x="456" y="680" type="line"/>
      <point x="165" y="680" type="line"/>
      <point x="155" y="645" type="line"/>
      <point x="205" y="645" type="line" smooth="yes"/>
      <point x="240" y="645"/>
      <point x="251" y="630"/>
      <point x="241" y="595" type="curve" smooth="yes"/>
      <point x="94" y="85" type="line" smooth="yes"/>
      <point x="84" y="50"/>
      <point x="65" y="35"/>
      <point x="30" y="35" type="curve" smooth="yes"/>
      <point x="0" y="35" type="line"/>
    </contour>
  </outline>
</glyph>
<glyph name="M" format="2">
  <advance width="842"/>
  <unicode hex="004D"/>
  <outline>
    <contour>
      <point x="152" y="85" type="curve" smooth="yes"/>
      <point x="279" y="527" type="line" smooth="yes"/>
      <point x="300" y="599"/>
      <point x="319" y="590"/>
      <point x="320" y="532" type="curve" smooth="yes"/>
      <point x="324" y="389" type="line" smooth="yes" name=".hr01"/>
      <point x="328" y="246"/>
      <point x="320" y="45" name=".hr02"/>
      <point x="318" y="15" type="curve"/>
      <point x="341" y="15" type="line"/>
      <point x="353" y="36"/>
      <point x="460" y="225"/>
      <point x="551" y="367" type="curve" smooth="yes"/>
      <point x="630" y="491" type="line" smooth="yes"/>
      <point x="657" y="533"/>
      <point x="673" y="526"/>
      <point x="664" y="494" type="curve" smooth="yes"/>
      <point x="546" y="85" type="line" smooth="yes"/>
      <point x="536" y="50"/>
      <point x="517" y="35"/>
      <point x="482" y="35" type="curve" smooth="yes"/>
      <point x="447" y="35" type="line"/>
      <point x="437" y="0" type="line"/>
      <point x="717" y="0" type="line"/>
      <point x="727" y="35" type="line"/>
      <point x="682" y="35" type="line" smooth="yes"/>
      <point x="647" y="35"/>
      <point x="636" y="50"/>
      <point x="646" y="85" type="curve" smooth="yes"/>
      <point x="792" y="595" type="line" smooth="yes"/>
      <point x="802" y="630"/>
      <point x="822" y="645"/>
      <point x="857" y="645" type="curve" smooth="yes"/>
      <point x="892" y="645" type="line"/>
      <point x="902" y="680" type="line"/>
      <point x="703" y="680" type="line"/>
      <point x="703" y="680"/>
      <point x="516" y="385"/>
      <point x="422" y="238" type="curve"/>
      <point x="414" y="680" type="line"/>
      <point x="179" y="680" type="line"/>
      <point x="169" y="645" type="line"/>
      <point x="187" y="645" type="line" smooth="yes"/>
      <point x="243" y="645"/>
      <point x="266" y="629"/>
      <point x="246" y="558" type="curve" smooth="yes"/>
      <point x="109" y="85" type="line" smooth="yes"/>
      <point x="99" y="50"/>
      <point x="80" y="35"/>
      <point x="45" y="35" type="curve" smooth="yes"/>
      <point x="0" y="35" type="line"/>
      <point x="-10" y="0" type="line"/>
      <point x="233" y="0" type="line"/>
      <point x="243" y="35" type="line"/>
      <point x="188" y="35" type="line" smooth="yes"/>
      <point x="153" y="35"/>
      <point x="142" y="50"/>
    </contour>
  </outline>
</glyph>
<glyph name="N" format="2">
  <advance width="745"/>
  <unicode hex="004E"/>
  <anchor x="503" y="718" name="accent1"/>
  <outline>
    <contour>
      <point x="719" y="595" type="line" smooth="yes"/>
      <point x="729" y="630"/>
      <point x="748" y="645"/>
      <point x="783" y="645" type="curve" smooth="yes"/>
      <point x="828" y="645" type="line"/>
      <point x="838" y="680" type="line"/>
      <point x="596" y="680" type="line"/>
      <point x="586" y="645" type="line"/>
      <point x="641" y="645" type="line" smooth="yes"/>
      <point x="676" y="645"/>
      <point x="687" y="630"/>
      <point x="677" y="595" type="curve" smooth="yes"/>
      <point x="558" y="179" type="line"/>
      <point x="364" y="680" type="line"/>
      <point x="167" y="680" type="line"/>
      <point x="158" y="648" type="line"/>
      <point x="176" y="648" type="line" smooth="yes"/>
      <point x="207" y="648"/>
      <point x="265" y="629"/>
      <point x="242" y="548" type="curve" smooth="yes"/>
      <point x="109" y="85" type="line" smooth="yes"/>
      <point x="99" y="50"/>
      <point x="80" y="35"/>
      <point x="45" y="35" type="curve" smooth="yes"/>
      <point x="0" y="35" type="line"/>
      <point x="-10" y="0" type="line"/>
      <point x="232" y="0" type="line"/>
      <point x="242" y="35" type="line"/>
      <point x="187" y="35" type="line" smooth="yes"/>
      <point x="152" y="35"/>
      <point x="141" y="50"/>
      <point x="151" y="85" type="curve" smooth="yes"/>
      <point x="266" y="487" type="line" smooth="yes"/>
      <point x="285" y="554"/>
      <point x="301" y="550"/>
      <point x="325" y="488" type="curve" smooth="yes"/>
      <point x="517" y="-12" type="line"/>
      <point x="544" y="-12" type="line"/>
    </contour>
  </outline>
</glyph>
<glyph name="O" format="2">
  <advance width="646"/>
  <unicode hex="004F"/>
  <anchor x="426" y="718" name="accent1"/>
  <outline>
    <contour>
      <point x="516" y="523" type="curve" smooth="yes"/>
      <point x="516" y="469"/>
      <point x="504" y="410"/>
      <point x="492" y="369" type="curve" smooth="yes"/>
      <point x="464" y="273" type="line" smooth="yes"/>
      <point x="437" y="182"/>
      <point x="368" y="26"/>
      <point x="267" y="26" type="curve" smooth="yes"/>
      <point x="192" y="26"/>
      <point x="170" y="88"/>
      <point x="170" y="160" type="curve" smooth="yes"/>
      <point x="170" y="210"/>
      <point x="180" y="265"/>
      <point x="192" y="306" type="curve" smooth="yes"/>
      <point x="219" y="402" type="line" smooth="yes"/>
      <point x="245" y="494"/>
      <point x="318" y="658"/>
      <point x="421" y="658" type="curve" smooth="yes"/>
      <point x="494" y="658"/>
      <point x="516" y="595"/>
    </contour>
    <contour>
      <point x="444" y="690" type="curve" smooth="yes"/>
      <point x="434" y="691"/>
      <point x="425" y="692"/>
      <point x="415" y="692" type="curve" smooth="yes"/>
      <point x="267" y="692"/>
      <point x="127" y="536"/>
      <point x="80" y="371" type="curve" smooth="yes"/>
      <point x="67" y="324"/>
      <point x="60" y="279"/>
      <point x="60" y="237" type="curve" smooth="yes"/>
      <point x="60" y="106"/>
      <point x="123" y="7"/>
      <point x="243" y="-10" type="curve" smooth="yes"/>
      <point x="253" y="-11"/>
      <point x="263" y="-12"/>
      <point x="272" y="-12" type="curve" smooth="yes"/>
      <point x="420" y="-12"/>
      <point x="559" y="141"/>
      <point x="606" y="306" type="curve" smooth="yes"/>
      <point x="620" y="353"/>
      <point x="626" y="399"/>
      <point x="626" y="442" type="curve" smooth="yes"/>
      <point x="626" y="573"/>
      <point x="563" y="673"/>
    </contour>
  </outline>
</glyph>
<glyph name="P" format="2">
  <advance width="603"/>
  <unicode hex="0050"/>
  <outline>
    <contour>
      <point x="194" y="85" type="curve"/>
      <point x="264" y="328" type="line"/>
      <point x="348" y="328" type="line" smooth="yes"/>
      <point x="505" y="328"/>
      <point x="621" y="391"/>
      <point x="638" y="504" type="curve"/>
      <point x="640" y="514"/>
      <point x="640" y="524"/>
      <point x="640" y="534" type="curve" smooth="yes"/>
      <point x="640" y="623"/>
      <point x="574" y="680"/>
      <point x="450" y="680" type="curve" smooth="yes"/>
      <point x="165" y="680" type="line"/>
      <point x="155" y="645" type="line"/>
      <point x="205" y="645" type="line" smooth="yes"/>
      <point x="232" y="645"/>
      <point x="245" y="636"/>
      <point x="245" y="616" type="curve" smooth="yes"/>
      <point x="245" y="610"/>
      <point x="243" y="603"/>
      <point x="241" y="595" type="curve"/>
      <point x="94" y="85" type="line" smooth="yes"/>
      <point x="84" y="50"/>
      <point x="65" y="35"/>
      <point x="30" y="35" type="curve" smooth="yes"/>
      <point x="0" y="35" type="line"/>
      <point x="-10" y="0" type="line"/>
      <point x="290" y="0" type="line"/>
      <point x="300" y="35" type="line"/>
      <point x="230" y="35" type="line" smooth="yes"/>
      <point x="203" y="35"/>
      <point x="190" y="44"/>
      <point x="190" y="64" type="curve" smooth="yes"/>
      <point x="190" y="70"/>
      <point x="192" y="77"/>
    </contour>
    <contour>
      <point x="274" y="364" type="line"/>
      <point x="343" y="604" type="line" smooth="yes"/>
      <point x="352.185" y="635.947"/>
      <point x="402" y="644"/>
      <point x="423" y="644" type="curve" smooth="yes"/>
      <point x="430" y="644" type="line" smooth="yes"/>
      <point x="486" y="644"/>
      <point x="526" y="625"/>
      <point x="526" y="561" type="curve" smooth="yes"/>
      <point x="526" y="545"/>
      <point x="523" y="526"/>
      <point x="518" y="504" type="curve" smooth="yes"/>
      <point x="491" y="392"/>
      <point x="420" y="364"/>
      <point x="350" y="364" type="curve" smooth="yes"/>
    </contour>
  </outline>
</glyph>
<glyph name="Q" format="2">
  <advance width="646"/>
  <unicode hex="0051"/>
  <outline>
    <contour>
      <point x="444" y="690" type="curve" smooth="yes"/>
      <point x="434" y="691"/>
      <point x="425" y="692"/>
      <point x="415" y="692" type="curve" smooth="yes"/>
      <point x="267" y="692"/>
      <point x="127" y="536"/>
      <point x="80" y="371" type="curve" smooth="yes"/>
      <point x="67" y="324"/>
      <point x="60" y="279"/>
      <point x="60" y="237" type="curve" smooth="yes"/>
      <point x="60" y="106"/>
      <point x="123" y="7"/>
      <point x="243" y="-10" type="curve" smooth="yes"/>
      <point x="253" y="-11"/>
      <point x="263" y="-12"/>
      <point x="272" y="-12" type="curve" smooth="yes"/>
      <point x="280" y="-12"/>
      <point x="289" y="-12"/>
      <point x="297" y="-11" type="curve"/>
      <point x="277" y="-97"/>
      <point x="307" y="-172"/>
      <point x="396" y="-172" type="curve" smooth="yes"/>
      <point x="468" y="-172"/>
      <point x="515" y="-109"/>
      <point x="536" y="-43" type="curve"/>
      <point x="505" y="-34" type="line"/>
      <point x="488" y="-85"/>
      <point x="452" y="-126"/>
      <point x="418" y="-126" type="curve" smooth="yes"/>
      <point x="374" y="-126"/>
      <point x="372" y="-64"/>
      <point x="391" y="20" type="curve"/>
      <point x="482" y="68"/>
      <point x="569" y="178"/>
      <point x="606" y="306" type="curve" smooth="yes"/>
      <point x="619" y="353"/>
      <point x="626" y="399"/>
      <point x="626" y="442" type="curve" smooth="yes"/>
      <point x="626" y="573"/>
      <point x="563" y="673"/>
    </contour>
    <contour>
      <point x="181" y="90" type="curve"/>
      <point x="154" y="160" name=".hr01"/>
      <point x="168" y="258"/>
      <point x="182" y="309" type="curve" smooth="yes"/>
      <point x="209" y="405" type="line" smooth="yes"/>
      <point x="235" y="497"/>
      <point x="318" y="658"/>
      <point x="421" y="658" type="curve" smooth="yes"/>
      <point x="551" y="658"/>
      <point x="528" y="457"/>
      <point x="502" y="366" type="curve" smooth="yes"/>
      <point x="474" y="270" type="line" smooth="yes"/>
      <point x="460" y="221"/>
      <point x="427" y="130"/>
      <point x="395" y="92" type="curve"/>
      <point x="399" y="183"/>
      <point x="351" y="229"/>
      <point x="293" y="229" type="curve" smooth="yes"/>
      <point x="230" y="229"/>
      <point x="182" y="176"/>
    </contour>
    <contour>
      <point x="273" y="27" type="curve" smooth="yes"/>
      <point x="230" y="27"/>
      <point x="210" y="61"/>
      <point x="210" y="108" type="curve" smooth="yes"/>
      <point x="210" y="152"/>
      <point x="242" y="201"/>
      <point x="281" y="201" type="curve" smooth="yes"/>
      <point x="373" y="201"/>
      <point x="331" y="45"/>
      <point x="310" y="35" type="curve" smooth="yes"/>
      <point x="297" y="29"/>
      <point x="288" y="27"/>
    </contour>
  </outline>
</glyph>
<glyph name="R" format="2">
  <advance width="708"/>
  <unicode hex="0052"/>
  <anchor x="439" y="718" name="accent1"/>
  <outline>
    <contour>
      <point x="194" y="85" type="curve" smooth="yes"/>
      <point x="270" y="348" type="line"/>
      <point x="349" y="348" type="line" smooth="yes"/>
      <point x="411" y="348"/>
      <point x="435" y="303"/>
      <point x="435" y="245" type="curve" smooth="yes"/>
      <point x="435" y="196"/>
      <point x="412" y="125" name="hr01"/>
      <point x="412" y="82" type="curve" smooth="yes"/>
      <point x="412" y="27"/>
      <point x="446" y="-12"/>
      <point x="501" y="-12" type="curve" smooth="yes"/>
      <point x="586" y="-12"/>
      <point x="637" y="69"/>
      <point x="658" y="166" type="curve"/>
      <point x="628" y="172" type="line"/>
      <point x="606" y="94"/>
      <point x="579" y="51"/>
      <point x="545" y="51" type="curve" smooth="yes"/>
      <point x="523" y="51"/>
      <point x="516" y="73"/>
      <point x="516" y="100" type="curve" smooth="yes"/>
      <point x="516" y="137"/>
      <point x="531" y="174" name="hr02"/>
      <point x="531" y="210" type="curve" smooth="yes"/>
      <point x="531" y="277"/>
      <point x="494" y="339"/>
      <point x="446" y="358" type="curve"/>
      <point x="544" y="371"/>
      <point x="633" y="445"/>
      <point x="643" y="514" type="curve" smooth="yes"/>
      <point x="658" y="616"/>
      <point x="591" y="680"/>
      <point x="450" y="680" type="curve" smooth="yes"/>
      <point x="165" y="680" type="line"/>
      <point x="155" y="645" type="line"/>
      <point x="205" y="645" type="line" smooth="yes"/>
      <point x="240" y="645"/>
      <point x="251" y="630"/>
      <point x="241" y="595" type="curve" smooth="yes"/>
      <point x="94" y="85" type="line" smooth="yes"/>
      <point x="84" y="50"/>
      <point x="65" y="35"/>
      <point x="30" y="35" type="curve" smooth="yes"/>
      <point x="0" y="35" type="line"/>
      <point x="-10" y="0" type="line"/>
      <point x="280" y="0" type="line"/>
      <point x="290" y="35" type="line"/>
      <point x="230" y="35" type="line" smooth="yes"/>
      <point x="195" y="35"/>
      <point x="184" y="50"/>
    </contour>
    <contour>
      <point x="356" y="384" type="curve" smooth="yes"/>
      <point x="280" y="384" type="line"/>
      <point x="343" y="604" type="line" smooth="yes"/>
      <point x="352" y="636"/>
      <point x="402" y="644"/>
      <point x="423" y="644" type="curve" smooth="yes"/>
      <point x="446" y="644" type="line" smooth="yes"/>
      <point x="512" y="644"/>
      <point x="556" y="609"/>
      <point x="529" y="514" type="curve" smooth="yes"/>
      <point x="502" y="419"/>
      <point x="448" y="384"/>
    </contour>
  </outline>
</glyph>
<glyph name="S" format="2">
  <advance width="641"/>
  <unicode hex="0053"/>
  <anchor x="439" y="718" name="accent1"/>
  <outline>
    <contour>
      <point x="48" y="0" type="line"/>
      <point x="59" y="15" type="line" smooth="yes"/>
      <point x="81.8269" y="46.1277"/>
      <point x="98" y="63"/>
      <point x="115" y="63" type="curve" smooth="yes"/>
      <point x="124" y="63"/>
      <point x="133" y="58"/>
      <point x="145" y="48" type="curve"/>
      <point x="186" y="11"/>
      <point x="252" y="-12"/>
      <point x="311" y="-12" type="curve" smooth="yes"/>
      <point x="463" y="-12"/>
      <point x="573" y="86"/>
      <point x="573" y="211" type="curve" smooth="yes"/>
      <point x="573" y="296"/>
      <point x="518" y="355"/>
      <point x="420" y="403" type="curve" smooth="yes"/>
      <point x="359" y="434" type="line" smooth="yes"/>
      <point x="312" y="457"/>
      <point x="256" y="503"/>
      <point x="256" y="548" type="curve" smooth="yes"/>
      <point x="256" y="621"/>
      <point x="326" y="656"/>
      <point x="407" y="656" type="curve" smooth="yes"/>
      <point x="490" y="656"/>
      <point x="573" y="592"/>
      <point x="561" y="446" type="curve"/>
      <point x="604" y="446" type="line"/>
      <point x="671" y="680" type="line"/>
      <point x="633" y="680" type="line"/>
      <point x="621" y="664" type="line" smooth="yes"/>
      <point x="600" y="636"/>
      <point x="585" y="624"/>
      <point x="572" y="624" type="curve" smooth="yes"/>
      <point x="549" y="624"/>
      <point x="498" y="692"/>
      <point x="398" y="692" type="curve" smooth="yes"/>
      <point x="243" y="692"/>
      <point x="156" y="604"/>
      <point x="156" y="511" type="curve" smooth="yes"/>
      <point x="156" y="446"/>
      <point x="197" y="379"/>
      <point x="283" y="337" type="curve" smooth="yes"/>
      <point x="361" y="299" type="line" smooth="yes"/>
      <point x="427" y="267"/>
      <point x="480" y="222"/>
      <point x="480" y="162" type="curve" smooth="yes"/>
      <point x="480" y="86"/>
      <point x="426" y="27"/>
      <point x="300" y="27" type="curve" smooth="yes"/>
      <point x="168" y="27"/>
      <point x="109" y="148"/>
      <point x="134" y="287" type="curve"/>
      <point x="91" y="287" type="line"/>
      <point x="10" y="0" type="line"/>
    </contour>
  </outline>
</glyph>
<glyph name="T" format="2">
  <advance width="603"/>
  <unicode hex="0054"/>
  <outline>
    <contour>
      <point x="296" y="85" type="curve" smooth="yes"/>
      <point x="445" y="604" type="line" smooth="yes"/>
      <point x="454" y="636"/>
      <point x="479" y="644"/>
      <point x="511" y="644" type="curve" smooth="yes"/>
      <point x="581" y="644"/>
      <point x="596" y="535"/>
      <point x="589" y="430" type="curve"/>
      <point x="618" y="430" type="line"/>
      <point x="683" y="680" type="line"/>
      <point x="141" y="680" type="line"/>
      <point x="70" y="429" type="line"/>
      <point x="99" y="429" type="line"/>
      <point x="153" y="535"/>
      <point x="223" y="644"/>
      <point x="297" y="644" type="curve" smooth="yes"/>
      <point x="333" y="644"/>
      <point x="348" y="636"/>
      <point x="339" y="604" type="curve" smooth="yes"/>
      <point x="191" y="85" type="line" smooth="yes"/>
      <point x="181" y="50"/>
      <point x="162" y="35"/>
      <point x="127" y="35" type="curve" smooth="yes"/>
      <point x="87" y="35" type="line"/>
      <point x="76" y="0" type="line"/>
      <point x="372" y="0" type="line"/>
      <point x="382" y="35" type="line"/>
      <point x="332" y="35" type="line" smooth="yes"/>
      <point x="297" y="35"/>
      <point x="286" y="50"/>
    </contour>
  </outline>
</glyph>
<glyph name="U" format="2">
  <advance width="717"/>
  <unicode hex="0055"/>
  <anchor x="494" y="711" name="accent1"/>
  <outline>
    <contour>
      <point x="673" y="595" type="line" smooth="yes"/>
      <point x="683" y="630"/>
      <point x="702" y="645"/>
      <point x="737" y="645" type="curve" smooth="yes"/>
      <point x="777" y="645" type="line"/>
      <point x="787" y="680" type="line"/>
      <point x="545" y="680" type="line"/>
      <point x="535" y="645" type="line"/>
      <point x="595" y="645" type="line" smooth="yes"/>
      <point x="630" y="645"/>
      <point x="641" y="630"/>
      <point x="631" y="595" type="curve" smooth="yes"/>
      <point x="539" y="274" type="line" smooth="yes"/>
      <point x="505" y="154"/>
      <point x="437" y="31"/>
      <point x="317" y="31" type="curve" smooth="yes"/>
      <point x="206" y="31"/>
      <point x="204" y="125"/>
      <point x="251" y="288" type="curve" smooth="yes"/>
      <point x="339" y="595" type="line" smooth="yes"/>
      <point x="349" y="630"/>
      <point x="368" y="645"/>
      <point x="403" y="645" type="curve" smooth="yes"/>
      <point x="433" y="645" type="line"/>
      <point x="443" y="680" type="line"/>
      <point x="155" y="680" type="line"/>
      <point x="145" y="645" type="line"/>
      <point x="195" y="645" type="line" smooth="yes"/>
      <point x="230" y="645"/>
      <point x="241" y="630"/>
      <point x="231" y="595" type="curve" smooth="yes"/>
      <point x="151" y="318" type="line" smooth="yes"/>
      <point x="138" y="273"/>
      <point x="120" y="206"/>
      <point x="120" y="160" type="curve" smooth="yes"/>
      <point x="120" y="39"/>
      <point x="199" y="-12"/>
      <point x="297" y="-12" type="curve" smooth="yes"/>
      <point x="459" y="-12"/>
      <point x="535" y="118"/>
      <point x="575" y="257" type="curve" smooth="yes"/>
    </contour>
  </outline>
</glyph>
<glyph name="V" format="2">
  <advance width="717"/>
  <unicode hex="0056"/>
  <outline>
    <contour>
      <point x="383" y="127" type="line"/>
      <point x="329" y="571" type="line" smooth="yes"/>
      <point x="322" y="630"/>
      <point x="345" y="645"/>
      <point x="394" y="645" type="curve" smooth="yes"/>
      <point x="422" y="645" type="line"/>
      <point x="432" y="680" type="line"/>
      <point x="147" y="680" type="line"/>
      <point x="137" y="645" type="line"/>
      <point x="161" y="645" type="line" smooth="yes"/>
      <point x="194" y="645"/>
      <point x="219.134" y="638.017"/>
      <point x="227" y="574" type="curve" smooth="yes"/>
      <point x="299" y="-12" type="line"/>
      <point x="348" y="-12" type="line"/>
      <point x="687" y="564" type="line"/>
      <point x="733" y="644"/>
      <point x="770" y="645"/>
      <point x="805" y="645" type="curve" smooth="yes"/>
      <point x="820" y="645" type="line"/>
      <point x="830" y="680" type="line"/>
      <point x="585" y="680" type="line"/>
      <point x="575" y="645" type="line"/>
      <point x="602" y="645" type="line" smooth="yes"/>
      <point x="662" y="645"/>
      <point x="681" y="633"/>
      <point x="640" y="563" type="curve" smooth="yes"/>
    </contour>
  </outline>
</glyph>
<glyph name="W" format="2">
  <advance width="908"/>
  <unicode hex="0057"/>
  <outline>
    <contour>
      <point x="86" y="645" type="line"/>
      <point x="106" y="645" type="line" smooth="yes"/>
      <point x="141" y="645"/>
      <point x="174" y="641"/>
      <point x="180" y="576" type="curve" smooth="yes"/>
      <point x="230" y="-12" type="line"/>
      <point x="255" y="-12" type="line"/>
      <point x="515" y="428" type="line"/>
      <point x="546" y="-12" type="line"/>
      <point x="569" y="-12" type="line"/>
      <point x="574" y="-13" type="line"/>
      <point x="890" y="570" type="line" smooth="yes"/>
      <point x="927" y="638"/>
      <point x="949" y="645"/>
      <point x="978" y="645" type="curve" smooth="yes"/>
      <point x="1008" y="645" type="line"/>
      <point x="1018" y="680" type="line"/>
      <point x="765" y="680" type="line"/>
      <point x="755" y="645" type="line"/>
      <point x="796" y="645" type="line" smooth="yes"/>
      <point x="859" y="645"/>
      <point x="870" y="617"/>
      <point x="845" y="572" type="curve" smooth="yes"/>
      <point x="630" y="176" type="line"/>
      <point x="601" y="588" type="line" smooth="yes"/>
      <point x="599" y="614"/>
      <point x="596" y="645"/>
      <point x="643" y="645" type="curve" smooth="yes"/>
      <point x="676" y="645" type="line"/>
      <point x="686" y="680" type="line"/>
      <point x="443" y="680" type="line"/>
      <point x="433" y="645" type="line"/>
      <point x="458" y="645" type="line" smooth="yes"/>
      <point x="476" y="645"/>
      <point x="501" y="637"/>
      <point x="502" y="616" type="curve" smooth="yes"/>
      <point x="510" y="499" type="line"/>
      <point x="313" y="164" type="line"/>
      <point x="276" y="588" type="line" smooth="yes"/>
      <point x="273" y="621"/>
      <point x="273" y="645"/>
      <point x="317" y="645" type="curve" smooth="yes"/>
      <point x="354" y="645" type="line"/>
      <point x="364" y="680" type="line"/>
      <point x="96" y="680" type="line"/>
    </contour>
  </outline>
</glyph>
<glyph name="X" format="2">
  <advance width="687"/>
  <unicode hex="0058"/>
  <outline>
    <contour>
      <point x="228" y="35" type="line"/>
      <point x="185" y="35" type="line" smooth="yes"/>
      <point x="124" y="35"/>
      <point x="128" y="73"/>
      <point x="163" y="111" type="curve" smooth="yes"/>
      <point x="340" y="301" type="line"/>
      <point x="418" y="108" type="line"/>
      <point x="442" y="53"/>
      <point x="410" y="35"/>
      <point x="380" y="35" type="curve" smooth="yes"/>
      <point x="360" y="35" type="line"/>
      <point x="350" y="0" type="line"/>
      <point x="634" y="0" type="line"/>
      <point x="644" y="35" type="line"/>
      <point x="604" y="35" type="line" smooth="yes"/>
      <point x="569" y="35"/>
      <point x="550" y="55"/>
      <point x="538" y="86" type="curve" smooth="yes"/>
      <point x="420" y="376" type="line"/>
      <point x="618" y="588" type="line" smooth="yes"/>
      <point x="665" y="638"/>
      <point x="688" y="645"/>
      <point x="721" y="645" type="curve" smooth="yes"/>
      <point x="747" y="645" type="line"/>
      <point x="757" y="680" type="line"/>
      <point x="504" y="680" type="line"/>
      <point x="494" y="645" type="line"/>
      <point x="537" y="645" type="line" smooth="yes"/>
      <point x="582" y="645"/>
      <point x="585" y="612"/>
      <point x="547" y="571" type="curve" smooth="yes"/>
      <point x="404" y="417" type="line"/>
      <point x="335" y="586" type="line" smooth="yes"/>
      <point x="322" y="617"/>
      <point x="327" y="645"/>
      <point x="377" y="645" type="curve" smooth="yes"/>
      <point x="394" y="645" type="line"/>
      <point x="404" y="680" type="line"/>
      <point x="137" y="680" type="line"/>
      <point x="127" y="645" type="line"/>
      <point x="162" y="645" type="line" smooth="yes"/>
      <point x="193" y="645"/>
      <point x="208" y="631"/>
      <point x="222" y="595" type="curve" smooth="yes"/>
      <point x="324" y="342" type="line"/>
      <point x="92" y="93" type="line" smooth="yes"/>
      <point x="49" y="47"/>
      <point x="27" y="35"/>
      <point x="-14" y="35" type="curve" smooth="yes"/>
      <point x="-30" y="35" type="line"/>
      <point x="-40" y="0" type="line"/>
      <point x="218" y="0" type="line"/>
    </contour>
  </outline>
</glyph>
<glyph name="Y" format="2">
  <advance width="596"/>
  <unicode hex="0059"/>
  <outline>
    <contour>
      <point x="200" y="85" type="line" smooth="yes"/>
      <point x="190" y="50"/>
      <point x="171" y="35"/>
      <point x="136" y="35" type="curve" smooth="yes"/>
      <point x="101" y="35" type="line"/>
      <point x="91" y="0" type="line"/>
      <point x="372" y="0" type="line"/>
      <point x="382" y="35" type="line"/>
      <point x="337" y="35" type="line" smooth="yes"/>
      <point x="302" y="35"/>
      <point x="291" y="50"/>
      <point x="301" y="85" type="curve" smooth="yes"/>
      <point x="364" y="304" type="line"/>
      <point x="579" y="590" type="line" smooth="yes"/>
      <point x="606" y="627"/>
      <point x="639" y="645"/>
      <point x="670" y="645" type="curve" smooth="yes"/>
      <point x="700" y="645" type="line"/>
      <point x="710" y="680" type="line"/>
      <point x="485" y="680" type="line"/>
      <point x="475" y="645" type="line"/>
      <point x="518" y="645" type="line" smooth="yes"/>
      <point x="545" y="645"/>
      <point x="559" y="631"/>
      <point x="529" y="590" type="curve" smooth="yes"/>
      <point x="349" y="350" type="line"/>
      <point x="263" y="600" type="line"/>
      <point x="258" y="617"/>
      <point x="262" y="645"/>
      <point x="300" y="645" type="curve" smooth="yes"/>
      <point x="336" y="645" type="line"/>
      <point x="346" y="680" type="line"/>
      <point x="83" y="680" type="line"/>
      <point x="73" y="645" type="line"/>
      <point x="104" y="645" type="line" smooth="yes"/>
      <point x="140" y="645"/>
      <point x="150" y="636"/>
      <point x="161" y="600" type="curve"/>
      <point x="263" y="303" type="line"/>
    </contour>
  </outline>
</glyph>
<glyph name="Z" format="2">
  <advance width="597"/>
  <unicode hex="005A"/>
  <anchor x="443" y="718" name="accent1"/>
  <outline>
    <contour>
      <point x="484" y="0" type="line"/>
      <point x="551" y="263" type="line"/>
      <point x="521" y="263" type="line"/>
      <point x="457" y="142"/>
      <point x="397" y="36"/>
      <point x="260" y="36" type="curve" smooth="yes"/>
      <point x="164" y="36" type="line" smooth="yes"/>
      <point x="142" y="36"/>
      <point x="131" y="46"/>
      <point x="150" y="70" type="curve" smooth="yes"/>
      <point x="627" y="660" type="line"/>
      <point x="627" y="680" type="line"/>
      <point x="169" y="680" type="line"/>
      <point x="105" y="432" type="line"/>
      <point x="135" y="432" type="line"/>
      <point x="213" y="573"/>
      <point x="258" y="644"/>
      <point x="378" y="644" type="curve" smooth="yes"/>
      <point x="446" y="644" type="line" smooth="yes"/>
      <point x="464" y="644"/>
      <point x="486" y="638"/>
      <point x="463" y="610" type="curve" smooth="yes"/>
      <point x="-16" y="20" type="line"/>
      <point x="-16" y="0" type="line"/>
    </contour>
  </outline>
</glyph>
<glyph name="bracketleft" format="2">
  <advance width="292"/>
  <unicode hex="005B"/>
  <outline>
    <contour>
      <point x="408" y="760" type="line"/>
      <point x="200" y="760" type="line"/>
      <point x="-53" y="-179" type="line"/>
      <point x="175" y="-179" type="line"/>
      <point x="185" y="-137" type="line"/>
      <point x="31" y="-137" type="line"/>
      <point x="264" y="718" type="line"/>
      <point x="398" y="718" type="line"/>
    </contour>
  </outline>
</glyph>
<glyph name="backslash" format="2">
  <advance width="445"/>
  <unicode hex="005C"/>
  <outline>
    <contour>
      <point x="132" y="692" type="line"/>
      <point x="85" y="692" type="line"/>
      <point x="358" y="0" type="line"/>
      <point x="405" y="0" type="line"/>
    </contour>
  </outline>
</glyph>
<glyph name="bracketright" format="2">
  <advance width="292"/>
  <unicode hex="005D"/>
  <outline>
    <contour>
      <point x="54" y="-137" type="line"/>
      <point x="-80" y="-137" type="line"/>
      <point x="-90" y="-179" type="line"/>
      <point x="118" y="-179" type="line"/>
      <point x="371.498" y="760" type="line"/>
      <point x="143.498" y="760" type="line"/>
      <point x="133.498" y="718" type="line"/>
      <point x="287.498" y="718" type="line"/>
    </contour>
  </outline>
</glyph>
<glyph name="asciicircum" format="2">
  <advance width="268"/>
  <unicode hex="005E"/>
  <outline>
    <contour>
      <point x="213" y="702" type="line"/>
      <point x="186" y="662"/>
      <point x="124" y="588"/>
      <point x="90" y="558" type="curve"/>
      <point x="98" y="536" type="line"/>
      <point x="131" y="556"/>
      <point x="190" y="598"/>
      <point x="237" y="635" type="curve"/>
      <point x="269" y="597"/>
      <point x="307" y="558"/>
      <point x="336" y="529" type="curve"/>
      <point x="358" y="537" type="line"/>
      <point x="331" y="577"/>
      <point x="291" y="658"/>
      <point x="274" y="702" type="curve"/>
    </contour>
  </outline>
</glyph>
<glyph name="grave" format="2">
  <advance width="220"/>
  <unicode hex="0060"/>
  <outline>
    <contour>
      <point x="227" y="694" type="curve"/>
      <point x="117" y="706" type="line"/>
      <point x="110" y="686" type="line"/>
      <point x="154" y="652"/>
      <point x="274" y="566"/>
      <point x="322" y="540" type="curve"/>
      <point x="330" y="562" type="line"/>
      <point x="298" y="593"/>
      <point x="250" y="654"/>
    </contour>
  </outline>
</glyph>
<glyph name="a" format="2">
  <advance width="505"/>
  <unicode hex="0061"/>
  <anchor x="277" y="515" name="accent1"/>
  <outline>
    <contour>
      <point x="277" y="79" type="curve"/>
      <point x="277" y="24"/>
      <point x="295" y="-8"/>
      <point x="344" y="-8" type="curve" smooth="yes"/>
      <point x="410" y="-8"/>
      <point x="459" y="62"/>
      <point x="485" y="142" type="curve"/>
      <point x="458" y="150" type="line"/>
      <point x="439" y="93"/>
      <point x="403" y="36"/>
      <point x="376" y="36" type="curve" smooth="yes"/>
      <point x="360" y="36"/>
      <point x="354" y="43"/>
      <point x="354" y="56" type="curve" smooth="yes"/>
      <point x="354" y="73"/>
      <point x="364" y="102"/>
      <point x="377" y="142" type="curve" smooth="yes"/>
      <point x="477" y="450" type="line"/>
      <point x="387" y="450" type="line"/>
      <point x="362" y="373" type="line"/>
      <point x="353" y="421"/>
      <point x="325" y="462"/>
      <point x="275" y="462" type="curve" smooth="yes"/>
      <point x="185" y="462"/>
      <point x="82" y="369"/>
      <point x="45" y="252" type="curve" smooth="yes"/>
      <point x="35" y="221"/>
      <point x="30" y="184"/>
      <point x="30" y="148" type="curve" smooth="yes"/>
      <point x="30" y="66"/>
      <point x="58" y="-12" name=".hr01"/>
      <point x="132" y="-12" type="curve" smooth="yes"/>
      <point x="180" y="-12"/>
      <point x="239" y="26"/>
    </contour>
    <contour>
      <point x="287" y="424" type="curve" smooth="yes"/>
      <point x="324" y="424"/>
      <point x="336" y="391"/>
      <point x="336" y="348" type="curve" smooth="yes"/>
      <point x="336" y="315"/>
      <point x="329" y="276"/>
      <point x="319" y="242" type="curve"/>
      <point x="308" y="208" type="line"/>
      <point x="279" y="127"/>
      <point x="218" y="33"/>
      <point x="147" y="33" type="curve" smooth="yes"/>
      <point x="122" y="33"/>
      <point x="112" y="55"/>
      <point x="112" y="88" type="curve" smooth="yes"/>
      <point x="112" y="128"/>
      <point x="126" y="184"/>
      <point x="144" y="240" type="curve" smooth="yes"/>
      <point x="169" y="313"/>
      <point x="218" y="424"/>
    </contour>
  </outline>
</glyph>
<glyph name="b" format="2">
  <advance width="459"/>
  <unicode hex="0062"/>
  <outline>
    <contour>
      <point x="307" y="424" type="curve" smooth="yes"/>
      <point x="333" y="424"/>
      <point x="345" y="407"/>
      <point x="345" y="374" type="curve" smooth="yes"/>
      <point x="345" y="340"/>
      <point x="332" y="288"/>
      <point x="309" y="218" type="curve" smooth="yes"/>
      <point x="272" y="104"/>
      <point x="200" y="15"/>
      <point x="138" y="15" type="curve" smooth="yes"/>
      <point x="111" y="15"/>
      <point x="99" y="34"/>
      <point x="99" y="67" type="curve" smooth="yes"/>
      <point x="99" y="98"/>
      <point x="110" y="141"/>
      <point x="126" y="190" type="curve" smooth="yes"/>
      <point x="137" y="224" type="line" smooth="yes"/>
      <point x="166" y="312"/>
      <point x="247" y="424"/>
    </contour>
    <contour>
      <point x="200" y="385" type="curve"/>
      <point x="200" y="385"/>
      <point x="198" y="382"/>
      <point x="195" y="382" type="curve" smooth="yes"/>
      <point x="190" y="382"/>
      <point x="191" y="385"/>
      <point x="191" y="385" type="curve"/>
      <point x="285" y="674" type="line"/>
      <point x="94" y="662" type="line"/>
      <point x="85" y="631" type="line"/>
      <point x="122" y="631" type="line" smooth="yes"/>
      <point x="149" y="631"/>
      <point x="169" y="629"/>
      <point x="169" y="605" type="curve" smooth="yes"/>
      <point x="169" y="597"/>
      <point x="167" y="588"/>
      <point x="163" y="576" type="curve" smooth="yes"/>
      <point x="49" y="225" type="line" smooth="yes"/>
      <point x="38" y="191"/>
      <point x="30" y="153"/>
      <point x="30" y="118" type="curve" smooth="yes"/>
      <point x="30" y="48"/>
      <point x="60" y="-12"/>
      <point x="151" y="-12" type="curve" smooth="yes"/>
      <point x="271" y="-12"/>
      <point x="429" y="158"/>
      <point x="429" y="331" type="curve" smooth="yes"/>
      <point x="429" y="401"/>
      <point x="397" y="462"/>
      <point x="327" y="462" type="curve" smooth="yes"/>
      <point x="281" y="462"/>
      <point x="234" y="424"/>
    </contour>
  </outline>
</glyph>
<glyph name="c" format="2">
  <advance width="415"/>
  <unicode hex="0063"/>
  <anchor x="277" y="515" name="accent1"/>
  <outline>
    <contour>
      <point x="278" y="433" type="curve" smooth="yes"/>
      <point x="316" y="433"/>
      <point x="331" y="404"/>
      <point x="312" y="388" type="curve" smooth="yes"/>
      <point x="287" y="367"/>
      <point x="276" y="346"/>
      <point x="276" y="320" type="curve" smooth="yes"/>
      <point x="276" y="290"/>
      <point x="298" y="268" name=".hr01"/>
      <point x="325" y="268" type="curve" smooth="yes"/>
      <point x="362" y="268"/>
      <point x="390" y="308"/>
      <point x="390" y="349" type="curve" smooth="yes"/>
      <point x="390" y="397"/>
      <point x="348" y="462"/>
      <point x="274" y="462" type="curve" smooth="yes"/>
      <point x="156" y="462"/>
      <point x="25" y="321"/>
      <point x="25" y="162" type="curve" smooth="yes"/>
      <point x="25" y="69"/>
      <point x="74" y="-12"/>
      <point x="170" y="-12" type="curve" smooth="yes"/>
      <point x="244" y="-12"/>
      <point x="314" y="39"/>
      <point x="354" y="129" type="curve"/>
      <point x="324" y="138" type="line"/>
      <point x="276" y="56"/>
      <point x="229" y="26"/>
      <point x="181" y="26" type="curve" smooth="yes"/>
      <point x="103" y="26"/>
      <point x="106" y="115"/>
      <point x="144" y="237" type="curve" smooth="yes"/>
      <point x="171" y="322"/>
      <point x="207" y="433" name=".hr02"/>
    </contour>
  </outline>
</glyph>
<glyph name="d" format="2">
  <advance width="530"/>
  <unicode hex="0064"/>
  <outline>
    <contour>
      <point x="272" y="79" type="line"/>
      <point x="272" y="32"/>
      <point x="302" y="-8"/>
      <point x="359" y="-8" type="curve" smooth="yes"/>
      <point x="419" y="-8"/>
      <point x="491" y="47"/>
      <point x="529" y="168" type="curve"/>
      <point x="497" y="176" type="line"/>
      <point x="462" y="72"/>
      <point x="403" y="36"/>
      <point x="378" y="36" type="curve" smooth="yes"/>
      <point x="360" y="36"/>
      <point x="352" y="44"/>
      <point x="352" y="62" type="curve" smooth="yes"/>
      <point x="352" y="79"/>
      <point x="360" y="106"/>
      <point x="372" y="142" type="curve" smooth="yes"/>
      <point x="545" y="674" type="line"/>
      <point x="354" y="662" type="line"/>
      <point x="345" y="631" type="line"/>
      <point x="382" y="631" type="line" smooth="yes"/>
      <point x="408" y="631"/>
      <point x="426" y="615"/>
      <point x="426" y="592" type="curve" smooth="yes"/>
      <point x="426" y="587"/>
      <point x="425" y="582"/>
      <point x="423" y="576" type="curve" smooth="yes"/>
      <point x="361" y="384" type="line"/>
      <point x="353" y="384" type="line"/>
      <point x="344" y="432"/>
      <point x="320" y="462"/>
      <point x="270" y="462" type="curve" smooth="yes"/>
      <point x="180" y="462"/>
      <point x="77" y="369"/>
      <point x="40" y="252" type="curve" smooth="yes"/>
      <point x="30" y="221"/>
      <point x="25" y="183"/>
      <point x="25" y="147" type="curve" smooth="yes"/>
      <point x="25" y="65"/>
      <point x="53" y="-12" name="hr01"/>
      <point x="127" y="-12" type="curve" smooth="yes"/>
      <point x="175" y="-12"/>
      <point x="227" y="26"/>
      <point x="265" y="79" type="curve"/>
    </contour>
    <contour>
      <point x="282" y="424" type="curve" smooth="yes"/>
      <point x="319" y="424"/>
      <point x="331" y="390"/>
      <point x="331" y="347" type="curve" smooth="yes"/>
      <point x="331" y="314"/>
      <point x="324" y="275"/>
      <point x="314" y="241" type="curve" smooth="yes"/>
      <point x="304" y="208" type="line"/>
      <point x="274" y="128"/>
      <point x="213" y="33"/>
      <point x="142" y="33" type="curve" smooth="yes"/>
      <point x="117" y="33"/>
      <point x="107" y="55"/>
      <point x="107" y="88" type="curve" smooth="yes"/>
      <point x="107" y="128"/>
      <point x="121" y="184"/>
      <point x="139" y="240" type="curve" smooth="yes"/>
      <point x="164" y="313"/>
      <point x="213" y="424"/>
    </contour>
  </outline>
</glyph>
<glyph name="f" format="2">
  <advance width="383"/>
  <unicode hex="0066"/>
  <outline>
    <contour>
      <point x="42" y="415" type="line"/>
      <point x="162" y="415" type="line"/>
      <point x="154" y="390"/>
      <point x="147" y="366"/>
      <point x="140" y="343" type="curve" smooth="yes"/>
      <point x="63" y="74" type="line" smooth="yes"/>
      <point x="34" y="-26"/>
      <point x="-16" y="-214"/>
      <point x="-108" y="-214" type="curve" smooth="yes"/>
      <point x="-127" y="-214"/>
      <point x="-135" y="-209"/>
      <point x="-135" y="-200" type="curve" smooth="yes"/>
      <point x="-135" y="-187"/>
      <point x="-102" y="-174"/>
      <point x="-102" y="-135" type="curve" smooth="yes"/>
      <point x="-102" y="-102"/>
      <point x="-128" y="-77"/>
      <point x="-160" y="-77" type="curve" smooth="yes"/>
      <point x="-193" y="-77"/>
      <point x="-222" y="-100"/>
      <point x="-222" y="-149" type="curve" smooth="yes"/>
      <point x="-222" y="-199"/>
      <point x="-175" y="-245"/>
      <point x="-102" y="-245" type="curve" smooth="yes"/>
      <point x="74" y="-245"/>
      <point x="159" y="37"/>
      <point x="205" y="202" type="curve" smooth="yes"/>
      <point x="264" y="415" type="line"/>
      <point x="384" y="415" type="line"/>
      <point x="395" y="450" type="line"/>
      <point x="274" y="450" type="line"/>
      <point x="301" y="548"/>
      <point x="345" y="679"/>
      <point x="427" y="679" type="curve" smooth="yes"/>
      <point x="441" y="679"/>
      <point x="458" y="674"/>
      <point x="458" y="663" type="curve" smooth="yes"/>
      <point x="458" y="646"/>
      <point x="427" y="637"/>
      <point x="427" y="602" type="curve" smooth="yes"/>
      <point x="427" y="572"/>
      <point x="451" y="549"/>
      <point x="481" y="549" type="curve" smooth="yes"/>
      <point x="510" y="549"/>
      <point x="538" y="573"/>
      <point x="538" y="614" type="curve" smooth="yes"/>
      <point x="538" y="664"/>
      <point x="493" y="710"/>
      <point x="421" y="710" type="curve" smooth="yes"/>
      <point x="295" y="710"/>
      <point x="221" y="580"/>
      <point x="174" y="450" type="curve"/>
      <point x="53" y="450" type="line"/>
    </contour>
  </outline>
</glyph>
<glyph name="g" format="2">
  <advance width="585"/>
  <unicode hex="0067"/>
  <anchor x="277" y="515" name="accent1"/>
  <outline>
    <contour>
      <point x="287" y="462" type="curve" smooth="yes"/>
      <point x="218" y="462"/>
      <point x="136" y="423"/>
      <point x="104" y="326" type="curve" smooth="yes"/>
      <point x="97" y="306"/>
      <point x="95" y="287"/>
      <point x="95" y="270" type="curve" smooth="yes"/>
      <point x="95" y="235"/>
      <point x="107" y="206"/>
      <point x="127" y="185" type="curve"/>
      <point x="66" y="171"/>
      <point x="-11" y="132"/>
      <point x="-11" y="60" type="curve" smooth="yes"/>
      <point x="-11" y="21"/>
      <point x="9" y="-8"/>
      <point x="52" y="-24" type="curve"/>
      <point x="-17" y="-44"/>
      <point x="-65" y="-81"/>
      <point x="-65" y="-122" type="curve" smooth="yes"/>
      <point x="-65" y="-199"/>
      <point x="46" y="-225"/>
      <point x="163" y="-225" type="curve" smooth="yes"/>
      <point x="296" y="-225"/>
      <point x="405" y="-165"/>
      <point x="405" y="-69" type="curve" smooth="yes"/>
      <point x="405" y="7"/>
      <point x="324" y="45"/>
      <point x="210" y="45" type="curve" smooth="yes"/>
      <point x="183" y="45" type="line"/>
      <point x="162" y="45" type="line" smooth="yes"/>
      <point x="122" y="45"/>
      <point x="60" y="48"/>
      <point x="60" y="87" type="curve" smooth="yes"/>
      <point x="60" y="131"/>
      <point x="94" y="149"/>
      <point x="156" y="163" type="curve"/>
      <point x="180" y="149"/>
      <point x="205" y="141"/>
      <point x="240" y="141" type="curve" smooth="yes"/>
      <point x="309" y="141"/>
      <point x="392" y="179"/>
      <point x="423" y="275" type="curve" smooth="yes"/>
      <point x="430" y="296"/>
      <point x="433" y="314"/>
      <point x="433" y="332" type="curve" smooth="yes"/>
      <point x="433" y="341"/>
      <point x="432" y="350"/>
      <point x="430" y="359" type="curve"/>
      <point x="450" y="398"/>
      <point x="462" y="431"/>
      <point x="489" y="431" type="curve" smooth="yes"/>
      <point x="498" y="431"/>
      <point x="511" y="425"/>
      <point x="511" y="416" type="curve" smooth="yes"/>
      <point x="511" y="404"/>
      <point x="502" y="399"/>
      <point x="502" y="385" type="curve" smooth="yes"/>
      <point x="502" y="357"/>
      <point x="524" y="342"/>
      <point x="545" y="342" type="curve" smooth="yes"/>
      <point x="574" y="342"/>
      <point x="591" y="371"/>
      <point x="591" y="400" type="curve" smooth="yes"/>
      <point x="591" y="444"/>
      <point x="566" y="464"/>
      <point x="516" y="464" type="curve" smooth="yes"/>
      <point x="476" y="464"/>
      <point x="440" y="434"/>
      <point x="416" y="395" type="curve"/>
      <point x="391" y="438"/>
      <point x="345" y="462"/>
    </contour>
    <contour>
      <point x="349" y="373" type="curve" smooth="yes"/>
      <point x="349" y="357"/>
      <point x="346" y="338"/>
      <point x="339" y="318" type="curve"/>
      <point x="321" y="261" type="line" smooth="yes"/>
      <point x="304" y="209"/>
      <point x="271" y="168"/>
      <point x="231" y="168" type="curve" smooth="yes"/>
      <point x="194" y="168"/>
      <point x="178" y="195"/>
      <point x="178" y="229" type="curve" smooth="yes"/>
      <point x="178" y="245"/>
      <point x="182" y="264"/>
      <point x="188" y="283" type="curve" smooth="yes"/>
      <point x="206" y="339" type="line" smooth="yes"/>
      <point x="223" y="392"/>
      <point x="257" y="435"/>
      <point x="298" y="435" type="curve" smooth="yes"/>
      <point x="334" y="435"/>
      <point x="349" y="408"/>
    </contour>
    <contour>
      <point x="147" y="-38" type="curve"/>
      <point x="151" y="-38" type="line"/>
      <point x="173" y="-38" type="line"/>
      <point x="227" y="-38" type="line" smooth="yes"/>
      <point x="283" y="-38"/>
      <point x="333" y="-52"/>
      <point x="333" y="-100" type="curve" smooth="yes"/>
      <point x="333" y="-172"/>
      <point x="249" y="-194"/>
      <point x="163" y="-194" type="curve" smooth="yes"/>
      <point x="102" y="-194"/>
      <point x="-1" y="-181"/>
      <point x="-1" y="-120" type="curve" smooth="yes"/>
      <point x="-1" y="-59"/>
      <point x="80" y="-42"/>
    </contour>
  </outline>
</glyph>
<glyph name="h" format="2">
  <advance width="487"/>
  <unicode hex="0068"/>
  <outline>
    <contour>
      <point x="197" y="351" type="curve"/>
      <point x="187" y="351" type="line"/>
      <point x="294" y="674" type="line"/>
      <point x="104" y="662" type="line"/>
      <point x="94" y="632" type="line"/>
      <point x="152" y="632"/>
      <point x="190" y="632"/>
      <point x="172" y="576" type="curve" smooth="yes"/>
      <point x="-15" y="0" type="line"/>
      <point x="75" y="0" type="line"/>
      <point x="144" y="213" type="line"/>
      <point x="190" y="331"/>
      <point x="290" y="424"/>
      <point x="321" y="424" type="curve" smooth="yes"/>
      <point x="354" y="424"/>
      <point x="348" y="367"/>
      <point x="311" y="269" type="curve" smooth="yes"/>
      <point x="262" y="138" type="line" smooth="yes"/>
      <point x="230" y="55"/>
      <point x="249" y="-12" name="hr01"/>
      <point x="319" y="-12" type="curve" smooth="yes"/>
      <point x="387" y="-12"/>
      <point x="436" y="58"/>
      <point x="462" y="141" type="curve"/>
      <point x="433" y="149" type="line"/>
      <point x="414" y="92"/>
      <point x="378" y="32"/>
      <point x="351" y="32" type="curve" smooth="yes"/>
      <point x="314" y="32"/>
      <point x="324" y="65"/>
      <point x="352" y="138" type="curve" smooth="yes"/>
      <point x="401" y="269" type="line" smooth="yes"/>
      <point x="443" y="380"/>
      <point x="413" y="462"/>
      <point x="343" y="462" type="curve" smooth="yes"/>
      <point x="304" y="462"/>
      <point x="242" y="416"/>
    </contour>
  </outline>
</glyph>
<glyph name="i" format="2">
  <advance width="312"/>
  <unicode hex="0069"/>
  <outline>
    <contour>
      <point x="211" y="616" type="curve" smooth="yes"/>
      <point x="211" y="584"/>
      <point x="237" y="558"/>
      <point x="269" y="558" type="curve" smooth="yes"/>
      <point x="301" y="558"/>
      <point x="327" y="584"/>
      <point x="327" y="616" type="curve" smooth="yes"/>
      <point x="327" y="648"/>
      <point x="301" y="674"/>
      <point x="269" y="674" type="curve" smooth="yes"/>
      <point x="237" y="674"/>
      <point x="211" y="648"/>
    </contour>
    <contour>
      <point x="78" y="138" type="line" smooth="yes"/>
      <point x="68" y="112"/>
      <point x="63" y="87"/>
      <point x="63" y="66" type="curve" smooth="yes"/>
      <point x="63" y="20"/>
      <point x="87" y="-12"/>
      <point x="135" y="-12" type="curve" smooth="yes"/>
      <point x="203" y="-12"/>
      <point x="251" y="54"/>
      <point x="277" y="137" type="curve"/>
      <point x="249" y="146" type="line"/>
      <point x="230" y="89"/>
      <point x="194" y="32"/>
      <point x="167" y="32" type="curve" smooth="yes"/>
      <point x="150" y="32"/>
      <point x="143" y="39"/>
      <point x="143" y="53" type="curve" smooth="yes"/>
      <point x="143" y="71"/>
      <point x="153" y="98"/>
      <point x="168" y="138" type="curve" smooth="yes"/>
      <point x="234" y="312" type="line" smooth="yes"/>
      <point x="244" y="338"/>
      <point x="249" y="363"/>
      <point x="249" y="384" type="curve" smooth="yes"/>
      <point x="249" y="430"/>
      <point x="225" y="462"/>
      <point x="177" y="462" type="curve" smooth="yes"/>
      <point x="109" y="462"/>
      <point x="61" y="396"/>
      <point x="35" y="313" type="curve"/>
      <point x="63" y="304" type="line"/>
      <point x="82" y="361"/>
      <point x="118" y="418"/>
      <point x="145" y="418" type="curve" smooth="yes"/>
      <point x="162" y="418"/>
      <point x="169" y="411"/>
      <point x="169" y="397" type="curve" smooth="yes"/>
      <point x="169" y="379"/>
      <point x="159" y="352"/>
      <point x="144" y="312" type="curve" smooth="yes"/>
    </contour>
  </outline>
</glyph>
<glyph name="j" format="2">
  <advance width="349"/>
  <unicode hex="006A"/>
  <outline>
    <contour>
      <point x="266" y="616" type="curve" smooth="yes"/>
      <point x="266" y="584"/>
      <point x="292" y="558"/>
      <point x="324" y="558" type="curve" smooth="yes"/>
      <point x="356" y="558"/>
      <point x="382" y="584"/>
      <point x="382" y="616" type="curve" smooth="yes"/>
      <point x="382" y="648"/>
      <point x="356" y="674"/>
      <point x="324" y="674" type="curve" smooth="yes"/>
      <point x="292" y="674"/>
      <point x="266" y="648"/>
    </contour>
    <contour>
      <point x="286" y="308" type="line" smooth="yes"/>
      <point x="310" y="381"/>
      <point x="304" y="458"/>
      <point x="224" y="458" type="curve" smooth="yes"/>
      <point x="157" y="458"/>
      <point x="77" y="370"/>
      <point x="39" y="249" type="curve"/>
      <point x="71" y="241" type="line"/>
      <point x="106" y="345"/>
      <point x="169" y="414"/>
      <point x="194" y="414" type="curve" smooth="yes"/>
      <point x="231" y="414"/>
      <point x="219" y="379"/>
      <point x="196" y="308" type="curve" smooth="yes"/>
      <point x="135" y="121" type="line" smooth="yes"/>
      <point x="79" y="-52"/>
      <point x="27" y="-197"/>
      <point x="-33" y="-197" type="curve" smooth="yes"/>
      <point x="-42" y="-197"/>
      <point x="-49" y="-190"/>
      <point x="-49" y="-182" type="curve" smooth="yes"/>
      <point x="-49" y="-170"/>
      <point x="-35" y="-151"/>
      <point x="-35" y="-131" type="curve" smooth="yes"/>
      <point x="-35" y="-95"/>
      <point x="-59" y="-75"/>
      <point x="-90" y="-75" type="curve" smooth="yes"/>
      <point x="-122" y="-75"/>
      <point x="-145" y="-103"/>
      <point x="-145" y="-138" type="curve" smooth="yes"/>
      <point x="-145" y="-176"/>
      <point x="-109" y="-225"/>
      <point x="-37" y="-225" type="curve" smooth="yes"/>
      <point x="95" y="-225"/>
      <point x="187" y="7"/>
      <point x="253" y="208" type="curve" smooth="yes"/>
    </contour>
  </outline>
</glyph>
<glyph name="k" format="2">
  <advance width="488"/>
  <unicode hex="006B"/>
  <outline>
    <contour>
      <point x="75" y="0" type="line"/>
      <point x="159" y="259" type="line"/>
      <point x="162" y="259" type="line" smooth="yes"/>
      <point x="266" y="259"/>
      <point x="157" y="-12"/>
      <point x="295" y="-12" type="curve" smooth="yes"/>
      <point x="365" y="-12"/>
      <point x="423" y="55"/>
      <point x="449" y="138" type="curve"/>
      <point x="417" y="146" type="line"/>
      <point x="395" y="79"/>
      <point x="364" y="40"/>
      <point x="335" y="40" type="curve" smooth="yes"/>
      <point x="303" y="40"/>
      <point x="302" y="89"/>
      <point x="294" y="156" type="curve" smooth="yes"/>
      <point x="287" y="223"/>
      <point x="263" y="258"/>
      <point x="230" y="274" type="curve"/>
      <point x="287" y="306"/>
      <point x="311" y="386"/>
      <point x="350" y="417" type="curve" smooth="yes"/>
      <point x="361" y="426"/>
      <point x="384" y="430"/>
      <point x="376" y="402" type="curve" smooth="yes"/>
      <point x="374" y="395"/>
      <point x="373" y="388"/>
      <point x="373" y="381" type="curve" smooth="yes"/>
      <point x="373" y="354"/>
      <point x="391" y="324"/>
      <point x="425" y="324" type="curve" smooth="yes"/>
      <point x="456" y="324"/>
      <point x="483" y="348"/>
      <point x="483" y="386" type="curve" smooth="yes"/>
      <point x="483" y="429"/>
      <point x="448" y="462"/>
      <point x="398" y="462" type="curve" smooth="yes"/>
      <point x="275" y="462"/>
      <point x="282" y="286"/>
      <point x="168" y="285" type="curve"/>
      <point x="294" y="674" type="line"/>
      <point x="103" y="662" type="line"/>
      <point x="94" y="633" type="line"/>
      <point x="152" y="633"/>
      <point x="190" y="632"/>
      <point x="172" y="576" type="curve" smooth="yes"/>
      <point x="-15" y="0" type="line"/>
    </contour>
  </outline>
</glyph>
<glyph name="l" format="2">
  <advance width="308"/>
  <unicode hex="006C"/>
  <outline>
    <contour>
      <point x="176" y="576" type="curve" smooth="yes"/>
      <point x="35" y="142" type="line" smooth="yes"/>
      <point x="28" y="122"/>
      <point x="25" y="102"/>
      <point x="25" y="84" type="curve" smooth="yes"/>
      <point x="25" y="30"/>
      <point x="55" y="-8"/>
      <point x="112" y="-8" type="curve" smooth="yes"/>
      <point x="172" y="-8"/>
      <point x="244" y="47"/>
      <point x="282" y="168" type="curve"/>
      <point x="250" y="176" type="line"/>
      <point x="215" y="72"/>
      <point x="156" y="36"/>
      <point x="131" y="36" type="curve" smooth="yes"/>
      <point x="94" y="36"/>
      <point x="102" y="71"/>
      <point x="125" y="142" type="curve" smooth="yes"/>
      <point x="298" y="674" type="line"/>
      <point x="107" y="662" type="line"/>
      <point x="98" y="631" type="line"/>
      <point x="135" y="631" type="line" smooth="yes"/>
      <point x="166" y="631"/>
      <point x="186" y="608"/>
    </contour>
  </outline>
</glyph>
<glyph name="m" format="2">
  <advance width="774"/>
  <unicode hex="006D"/>
  <outline>
    <contour>
      <point x="471" y="326" type="curve"/>
      <point x="478" y="380"/>
      <point x="477" y="462"/>
      <point x="401" y="462" type="curve" smooth="yes"/>
      <point x="352" y="462"/>
      <point x="271" y="377"/>
      <point x="235" y="326" type="curve"/>
      <point x="250" y="379"/>
      <point x="258" y="462"/>
      <point x="177" y="462" type="curve" smooth="yes"/>
      <point x="108" y="462"/>
      <point x="61" y="393"/>
      <point x="35" y="310" type="curve"/>
      <point x="63" y="301" type="line"/>
      <point x="82" y="358"/>
      <point x="118" y="418"/>
      <point x="145" y="418" type="curve" smooth="yes"/>
      <point x="182" y="418"/>
      <point x="166.693" y="382.1"/>
      <point x="144" y="312" type="curve" smooth="yes"/>
      <point x="43" y="0" type="line"/>
      <point x="133" y="0" type="line"/>
      <point x="193" y="186" type="line" smooth="yes"/>
      <point x="240" y="330"/>
      <point x="358" y="425"/>
      <point x="382" y="425" type="curve" smooth="yes"/>
      <point x="412" y="425"/>
      <point x="402" y="365"/>
      <point x="369" y="265" type="curve" smooth="yes"/>
      <point x="283" y="0" type="line"/>
      <point x="373" y="0" type="line"/>
      <point x="437" y="196" type="line" smooth="yes"/>
      <point x="477" y="320"/>
      <point x="583" y="424"/>
      <point x="612" y="424" type="curve" smooth="yes"/>
      <point x="645" y="424"/>
      <point x="635" y="367"/>
      <point x="598" y="269" type="curve" smooth="yes"/>
      <point x="549" y="138" type="line" smooth="yes"/>
      <point x="517" y="55"/>
      <point x="536" y="-12"/>
      <point x="606" y="-12" type="curve" smooth="yes"/>
      <point x="674" y="-12"/>
      <point x="723" y="58"/>
      <point x="749" y="141" type="curve"/>
      <point x="720" y="149" type="line"/>
      <point x="701" y="92"/>
      <point x="665" y="32"/>
      <point x="638" y="32" type="curve" smooth="yes"/>
      <point x="601" y="32"/>
      <point x="611" y="65"/>
      <point x="639" y="138" type="curve" smooth="yes"/>
      <point x="688" y="269" type="line" smooth="yes"/>
      <point x="730" y="380"/>
      <point x="704" y="462"/>
      <point x="634" y="462" type="curve" smooth="yes"/>
      <point x="587" y="462"/>
      <point x="521" y="397"/>
    </contour>
  </outline>
</glyph>
<glyph name="n" format="2">
  <advance width="544"/>
  <unicode hex="006E"/>
  <anchor x="299" y="513" name="accent1"/>
  <outline>
    <contour>
      <point x="234" y="325" type="curve"/>
      <point x="248" y="379"/>
      <point x="260" y="462"/>
      <point x="177" y="462" type="curve" smooth="yes"/>
      <point x="109" y="462"/>
      <point x="61" y="393"/>
      <point x="35" y="310" type="curve"/>
      <point x="63" y="301" type="line"/>
      <point x="82" y="358"/>
      <point x="118" y="418"/>
      <point x="145" y="418" type="curve" smooth="yes"/>
      <point x="182" y="418"/>
      <point x="166.693" y="382.1"/>
      <point x="144" y="312" type="curve" smooth="yes"/>
      <point x="43" y="0" type="line"/>
      <point x="133" y="0" type="line"/>
      <point x="201" y="209" type="line" smooth="yes"/>
      <point x="235" y="315"/>
      <point x="346" y="424"/>
      <point x="378" y="424" type="curve" smooth="yes"/>
      <point x="411" y="424"/>
      <point x="405" y="367"/>
      <point x="368" y="269" type="curve" smooth="yes"/>
      <point x="319" y="138" type="line" smooth="yes"/>
      <point x="287" y="55"/>
      <point x="306" y="-12"/>
      <point x="376" y="-12" type="curve" smooth="yes"/>
      <point x="444" y="-12"/>
      <point x="493" y="58"/>
      <point x="519" y="141" type="curve"/>
      <point x="490" y="149" type="line"/>
      <point x="471" y="92"/>
      <point x="435" y="32"/>
      <point x="408" y="32" type="curve" smooth="yes"/>
      <point x="371" y="32"/>
      <point x="381" y="65"/>
      <point x="409" y="138" type="curve" smooth="yes"/>
      <point x="458" y="269" type="line" smooth="yes"/>
      <point x="500" y="380"/>
      <point x="470" y="462"/>
      <point x="400" y="462" type="curve" smooth="yes"/>
      <point x="359" y="462"/>
      <point x="280" y="393"/>
    </contour>
  </outline>
</glyph>
<glyph name="o" format="2">
  <advance width="454"/>
  <unicode hex="006F"/>
  <anchor x="277" y="515" name="accent1"/>
  <outline>
    <contour>
      <point x="337" y="367" type="curve" smooth="yes"/>
      <point x="337" y="322"/>
      <point x="317" y="263"/>
      <point x="300" y="212" type="curve" smooth="yes"/>
      <point x="273" y="127"/>
      <point x="238" y="18"/>
      <point x="167" y="18" type="curve" smooth="yes"/>
      <point x="124" y="18"/>
      <point x="108" y="47"/>
      <point x="108" y="84" type="curve" smooth="yes"/>
      <point x="108" y="128"/>
      <point x="128" y="186"/>
      <point x="144" y="237" type="curve" smooth="yes"/>
      <point x="172" y="322"/>
      <point x="207" y="435"/>
      <point x="278" y="435" type="curve" smooth="yes"/>
      <point x="321" y="435"/>
      <point x="337" y="405"/>
    </contour>
    <contour>
      <point x="274" y="462" type="curve" smooth="yes"/>
      <point x="156" y="462"/>
      <point x="25" y="321"/>
      <point x="25" y="162" type="curve" smooth="yes"/>
      <point x="25" y="69"/>
      <point x="74" y="-12"/>
      <point x="170" y="-12" type="curve" smooth="yes"/>
      <point x="267" y="-12"/>
      <point x="366" y="81"/>
      <point x="404" y="196" type="curve" smooth="yes"/>
      <point x="414" y="227"/>
      <point x="419" y="258"/>
      <point x="419" y="288" type="curve" smooth="yes"/>
      <point x="419" y="381"/>
      <point x="370" y="462"/>
    </contour>
  </outline>
</glyph>
<glyph name="p" format="2">
  <advance width="533"/>
  <unicode hex="0070"/>
  <outline>
    <contour>
      <point x="166" y="80" type="line"/>
      <point x="174" y="80" type="line"/>
      <point x="188" y="24"/>
      <point x="221" y="-12"/>
      <point x="269" y="-12" type="curve" smooth="yes"/>
      <point x="398" y="-12"/>
      <point x="508" y="173"/>
      <point x="508" y="332" type="curve" smooth="yes"/>
      <point x="508" y="402"/>
      <point x="471" y="462"/>
      <point x="400" y="462" type="curve" smooth="yes"/>
      <point x="357" y="462"/>
      <point x="304" y="429"/>
      <point x="262" y="371" type="curve"/>
      <point x="251" y="371" type="line"/>
      <point x="254" y="423"/>
      <point x="234" y="462"/>
      <point x="181" y="462" type="curve" smooth="yes"/>
      <point x="109" y="462"/>
      <point x="37" y="375"/>
      <point x="-2" y="249" type="curve"/>
      <point x="30" y="243" type="line"/>
      <point x="65" y="347"/>
      <point x="121" y="418"/>
      <point x="152" y="418" type="curve" smooth="yes"/>
      <point x="167" y="418"/>
      <point x="173" y="410"/>
      <point x="173" y="395" type="curve" smooth="yes"/>
      <point x="173" y="377"/>
      <point x="165" y="349"/>
      <point x="153" y="312" type="curve" smooth="yes"/>
      <point x="5" y="-144" type="line" smooth="yes"/>
      <point x="-6" y="-179"/>
      <point x="-29" y="-198"/>
      <point x="-67" y="-198" type="curve" smooth="yes"/>
      <point x="-105" y="-198" type="line"/>
      <point x="-115" y="-230" type="line"/>
      <point x="171" y="-230" type="line"/>
      <point x="181" y="-198" type="line"/>
      <point x="145" y="-198" type="line"/>
      <point x="97" y="-199"/>
      <point x="80" y="-189"/>
      <point x="97" y="-139" type="curve"/>
    </contour>
    <contour>
      <point x="372" y="421" type="curve" smooth="yes"/>
      <point x="427" y="421"/>
      <point x="423" y="333"/>
      <point x="385" y="215" type="curve" smooth="yes"/>
      <point x="340" y="75"/>
      <point x="284" y="31"/>
      <point x="249" y="31" type="curve" smooth="yes"/>
      <point x="216" y="31"/>
      <point x="194" y="76"/>
      <point x="194" y="130" type="curve" smooth="yes"/>
      <point x="194" y="155"/>
      <point x="202" y="185"/>
      <point x="212" y="214" type="curve" smooth="yes"/>
      <point x="224" y="250" type="line" smooth="yes"/>
      <point x="257" y="352"/>
      <point x="333" y="421"/>
    </contour>
  </outline>
</glyph>
<glyph name="q" format="2">
  <advance width="469"/>
  <unicode hex="0071"/>
  <outline>
    <contour>
      <point x="282" y="424" type="curve" smooth="yes"/>
      <point x="319" y="424"/>
      <point x="331" y="390"/>
      <point x="331" y="347" type="curve" smooth="yes"/>
      <point x="331" y="314"/>
      <point x="324" y="277"/>
      <point x="315" y="244" type="curve"/>
      <point x="303" y="207" type="line"/>
      <point x="273" y="127"/>
      <point x="213" y="33"/>
      <point x="142" y="33" type="curve" smooth="yes"/>
      <point x="117" y="33"/>
      <point x="107" y="55"/>
      <point x="107" y="88" type="curve" smooth="yes"/>
      <point x="107" y="128"/>
      <point x="121" y="184"/>
      <point x="139" y="240" type="curve" smooth="yes"/>
      <point x="164" y="313"/>
      <point x="213" y="424"/>
    </contour>
    <contour>
      <point x="358" y="372" type="line"/>
      <point x="358" y="423"/>
      <point x="322" y="462"/>
      <point x="270" y="462" type="curve" smooth="yes"/>
      <point x="180" y="462"/>
      <point x="77" y="369"/>
      <point x="40" y="252" type="curve" smooth="yes"/>
      <point x="30" y="221"/>
      <point x="25" y="184"/>
      <point x="25" y="148" type="curve" smooth="yes"/>
      <point x="25" y="66"/>
      <point x="53" y="-12"/>
      <point x="127" y="-12" type="curve" smooth="yes"/>
      <point x="168" y="-12"/>
      <point x="214" y="18"/>
      <point x="251" y="60" type="curve"/>
      <point x="251" y="60"/>
      <point x="254" y="63"/>
      <point x="256" y="63" type="curve" smooth="yes"/>
      <point x="261" y="63"/>
      <point x="260" y="60"/>
      <point x="260" y="60" type="curve"/>
      <point x="189" y="-146" type="line"/>
      <point x="178" y="-181"/>
      <point x="155" y="-198"/>
      <point x="117" y="-198" type="curve" smooth="yes"/>
      <point x="69" y="-198" type="line"/>
      <point x="59" y="-230" type="line"/>
      <point x="355" y="-230" type="line"/>
      <point x="365" y="-198" type="line"/>
      <point x="329" y="-198" type="line" smooth="yes"/>
      <point x="293" y="-198"/>
      <point x="275" y="-193"/>
      <point x="275" y="-170" type="curve" smooth="yes"/>
      <point x="275" y="-162"/>
      <point x="277" y="-152"/>
      <point x="281" y="-139" type="curve" smooth="yes"/>
      <point x="474" y="456" type="line"/>
      <point x="445" y="462" type="line"/>
    </contour>
  </outline>
</glyph>
<glyph name="r" format="2">
  <advance width="428"/>
  <unicode hex="0072"/>
  <outline>
    <contour>
      <point x="251" y="369" type="curve"/>
      <point x="244" y="369" type="line"/>
      <point x="240" y="417"/>
      <point x="227" y="462"/>
      <point x="172" y="462" type="curve" smooth="yes"/>
      <point x="93" y="462"/>
      <point x="44" y="373"/>
      <point x="5" y="247" type="curve"/>
      <point x="34" y="240" type="line"/>
      <point x="69" y="344"/>
      <point x="112" y="418" name="hr01"/>
      <point x="143" y="418" type="curve" smooth="yes"/>
      <point x="183" y="418"/>
      <point x="156" y="305"/>
      <point x="142" y="261" type="curve" smooth="yes"/>
      <point x="57" y="0" type="line"/>
      <point x="147" y="0" type="line"/>
      <point x="223" y="233" type="line" smooth="yes"/>
      <point x="245" y="301"/>
      <point x="268" y="359"/>
      <point x="310" y="393" type="curve" smooth="yes"/>
      <point x="327" y="407"/>
      <point x="340" y="401"/>
      <point x="343" y="373" type="curve" smooth="yes"/>
      <point x="346" y="343"/>
      <point x="367" y="327" name="hr02"/>
      <point x="392" y="327" type="curve" smooth="yes"/>
      <point x="426" y="327"/>
      <point x="448" y="359"/>
      <point x="448" y="396" type="curve" smooth="yes"/>
      <point x="448" y="434"/>
      <point x="416" y="463"/>
      <point x="378" y="463" type="curve" smooth="yes"/>
      <point x="340" y="463"/>
      <point x="291" y="425"/>
    </contour>
  </outline>
</glyph>
<glyph name="t" format="2">
  <advance width="329"/>
  <unicode hex="0074"/>
  <outline>
    <contour>
      <point x="45" y="142" type="line" smooth="yes"/>
      <point x="38" y="122"/>
      <point x="35" y="102"/>
      <point x="35" y="84" type="curve" smooth="yes"/>
      <point x="35" y="30"/>
      <point x="65" y="-8"/>
      <point x="122" y="-8" type="curve" smooth="yes"/>
      <point x="182" y="-8"/>
      <point x="254" y="47"/>
      <point x="292" y="168" type="curve"/>
      <point x="260" y="176" type="line"/>
      <point x="225" y="72"/>
      <point x="166" y="36"/>
      <point x="141" y="36" type="curve" smooth="yes"/>
      <point x="104" y="36"/>
      <point x="112" y="71"/>
      <point x="135" y="142" type="curve" smooth="yes"/>
      <point x="224" y="415" type="line"/>
      <point x="323" y="415" type="line"/>
      <point x="334" y="450" type="line"/>
      <point x="235" y="450" type="line"/>
      <point x="298" y="643" type="line"/>
      <point x="196" y="606" type="line"/>
      <point x="145" y="450" type="line"/>
      <point x="63" y="450" type="line"/>
      <point x="52" y="415" type="line"/>
      <point x="134" y="415" type="line"/>
    </contour>
  </outline>
</glyph>
<glyph name="u" format="2">
  <advance width="554"/>
  <unicode hex="0075"/>
  <outline>
    <contour>
      <point x="319" y="118" type="curve"/>
      <point x="314" y="71"/>
      <point x="292" y="-12"/>
      <point x="377" y="-12" type="curve" smooth="yes"/>
      <point x="445" y="-12"/>
      <point x="493" y="57"/>
      <point x="519" y="140" type="curve"/>
      <point x="491" y="149" type="line"/>
      <point x="472" y="92"/>
      <point x="436" y="32"/>
      <point x="409" y="32" type="curve" smooth="yes"/>
      <point x="372" y="32"/>
      <point x="388" y="68"/>
      <point x="410" y="138" type="curve" smooth="yes"/>
      <point x="511" y="450" type="line"/>
      <point x="421" y="450" type="line"/>
      <point x="353" y="241" type="line" smooth="yes"/>
      <point x="316" y="128"/>
      <point x="219" y="26"/>
      <point x="182" y="26" type="curve" smooth="yes"/>
      <point x="149" y="26"/>
      <point x="149" y="83"/>
      <point x="186" y="181" type="curve" smooth="yes"/>
      <point x="235" y="312" type="line" smooth="yes"/>
      <point x="267" y="395"/>
      <point x="248" y="462"/>
      <point x="178" y="462" type="curve" smooth="yes"/>
      <point x="110" y="462"/>
      <point x="61" y="392"/>
      <point x="35" y="309" type="curve"/>
      <point x="64" y="301" type="line"/>
      <point x="83" y="358"/>
      <point x="119" y="418"/>
      <point x="146" y="418" type="curve" smooth="yes"/>
      <point x="183" y="418"/>
      <point x="173" y="385"/>
      <point x="145" y="312" type="curve" smooth="yes"/>
      <point x="96" y="181" type="line" smooth="yes"/>
      <point x="54" y="70"/>
      <point x="90" y="-12"/>
      <point x="160" y="-12" type="curve" smooth="yes"/>
      <point x="201" y="-12"/>
      <point x="278" y="51"/>
    </contour>
  </outline>
</glyph>
<glyph name="v" format="2">
  <advance width="485"/>
  <unicode hex="0076"/>
  <outline>
    <contour>
      <point x="460" y="342" type="curve" smooth="yes"/>
      <point x="460" y="412"/>
      <point x="429" y="474"/>
      <point x="377" y="474" type="curve" smooth="yes"/>
      <point x="355" y="474"/>
      <point x="335" y="449"/>
      <point x="335" y="423" type="curve" smooth="yes"/>
      <point x="335" y="387"/>
      <point x="359" y="358"/>
      <point x="380" y="332" type="curve" smooth="yes"/>
      <point x="400" y="308"/>
      <point x="409" y="293"/>
      <point x="409" y="270" type="curve" smooth="yes"/>
      <point x="409" y="194"/>
      <point x="340" y="34"/>
      <point x="230" y="34" type="curve" smooth="yes"/>
      <point x="172" y="34"/>
      <point x="168" y="122"/>
      <point x="203" y="212" type="curve"/>
      <point x="240" y="312" type="line"/>
      <point x="272" y="395"/>
      <point x="245" y="462"/>
      <point x="175" y="462" type="curve" smooth="yes"/>
      <point x="99" y="462"/>
      <point x="41" y="391"/>
      <point x="15" y="308" type="curve"/>
      <point x="44" y="302" type="line"/>
      <point x="66" y="369"/>
      <point x="114" y="418"/>
      <point x="147" y="418" type="curve" smooth="yes"/>
      <point x="180" y="418"/>
      <point x="178" y="385"/>
      <point x="150" y="312" type="curve" smooth="yes"/>
      <point x="116" y="221" type="line" smooth="yes"/>
      <point x="71" y="104"/>
      <point x="87" y="-12"/>
      <point x="216" y="-12" type="curve" smooth="yes"/>
      <point x="374" y="-12"/>
      <point x="460" y="210"/>
    </contour>
  </outline>
</glyph>
<glyph name="x" format="2">
  <advance width="566"/>
  <unicode hex="0078"/>
  <outline>
    <contour>
      <point x="321" y="246" type="curve"/>
      <point x="358" y="297"/>
      <point x="399" y="359"/>
      <point x="433" y="390" type="curve" smooth="yes"/>
      <point x="450" y="405"/>
      <point x="467" y="409"/>
      <point x="473" y="383" type="curve" smooth="yes"/>
      <point x="478" y="360"/>
      <point x="498" y="338"/>
      <point x="523" y="338" type="curve" smooth="yes"/>
      <point x="555" y="338"/>
      <point x="581" y="365"/>
      <point x="581" y="397" type="curve" smooth="yes"/>
      <point x="581" y="443"/>
      <point x="539" y="462"/>
      <point x="509" y="462" type="curve" smooth="yes"/>
      <point x="434" y="462"/>
      <point x="383" y="394"/>
      <point x="320" y="308" type="curve"/>
      <point x="316" y="424"/>
      <point x="287" y="462"/>
      <point x="230" y="462" type="curve" smooth="yes"/>
      <point x="169" y="462"/>
      <point x="88" y="396"/>
      <point x="56" y="292" type="curve"/>
      <point x="87" y="282" type="line"/>
      <point x="108" y="345"/>
      <point x="164" y="412"/>
      <point x="195" y="412" type="curve" smooth="yes"/>
      <point x="222" y="412"/>
      <point x="235" y="374"/>
      <point x="235" y="274" type="curve" smooth="yes"/>
      <point x="235" y="251"/>
      <point x="234" y="223"/>
      <point x="233" y="199" type="curve"/>
      <point x="195" y="149"/>
      <point x="150" y="93"/>
      <point x="111" y="62" type="curve" smooth="yes"/>
      <point x="91" y="45"/>
      <point x="76" y="50"/>
      <point x="69" y="70" type="curve" smooth="yes"/>
      <point x="59" y="98"/>
      <point x="41" y="109"/>
      <point x="18" y="109" type="curve" smooth="yes"/>
      <point x="-14" y="109"/>
      <point x="-35" y="81"/>
      <point x="-35" y="51" type="curve" smooth="yes"/>
      <point x="-35" y="14"/>
      <point x="-3" y="-12"/>
      <point x="37" y="-12" type="curve" smooth="yes"/>
      <point x="106" y="-12"/>
      <point x="178" y="68"/>
      <point x="235" y="141" type="curve"/>
      <point x="242" y="41"/>
      <point x="273" y="-12"/>
      <point x="357" y="-12" type="curve" smooth="yes"/>
      <point x="416" y="-12"/>
      <point x="478" y="41"/>
      <point x="516" y="162" type="curve"/>
      <point x="483" y="167" type="line"/>
      <point x="462" y="105"/>
      <point x="422" y="38"/>
      <point x="381" y="38" type="curve" smooth="yes"/>
      <point x="343" y="38"/>
      <point x="319" y="91"/>
      <point x="319" y="193" type="curve" smooth="yes"/>
      <point x="319" y="210"/>
      <point x="320" y="229"/>
    </contour>
  </outline>
</glyph>
<glyph name="y" format="2">
  <advance width="471"/>
  <unicode hex="0079"/>
  <anchor x="277" y="515" name="accent1"/>
  <outline>
    <contour>
      <point x="265" y="69" type="curve"/>
      <point x="242" y="0" type="line"/>
      <point x="212" y="-90"/>
      <point x="149" y="-198"/>
      <point x="96" y="-198" type="curve" smooth="yes"/>
      <point x="88" y="-198"/>
      <point x="81" y="-193"/>
      <point x="81" y="-183" type="curve" smooth="yes"/>
      <point x="81" y="-167"/>
      <point x="87" y="-158"/>
      <point x="87" y="-139" type="curve" smooth="yes"/>
      <point x="87" y="-105"/>
      <point x="63" y="-81"/>
      <point x="30" y="-81" type="curve" smooth="yes"/>
      <point x="-1" y="-81"/>
      <point x="-25" y="-106"/>
      <point x="-25" y="-140" type="curve" smooth="yes"/>
      <point x="-25" y="-194"/>
      <point x="36" y="-225"/>
      <point x="91" y="-225" type="curve" smooth="yes"/>
      <point x="244" y="-225"/>
      <point x="337" y="22"/>
      <point x="398" y="209" type="curve" smooth="yes"/>
      <point x="476" y="450" type="line"/>
      <point x="386" y="450" type="line"/>
      <point x="307" y="208" type="line" smooth="yes"/>
      <point x="278" y="117"/>
      <point x="230" y="46"/>
      <point x="170" y="46" type="curve" smooth="yes"/>
      <point x="137" y="46"/>
      <point x="143" y="103"/>
      <point x="180" y="201" type="curve" smooth="yes"/>
      <point x="222" y="312" type="line" smooth="yes"/>
      <point x="254" y="395"/>
      <point x="235" y="462"/>
      <point x="165" y="462" type="curve" smooth="yes"/>
      <point x="97" y="462"/>
      <point x="48" y="392"/>
      <point x="22" y="309" type="curve"/>
      <point x="51" y="301" type="line"/>
      <point x="70" y="358"/>
      <point x="106" y="418"/>
      <point x="133" y="418" type="curve" smooth="yes"/>
      <point x="170" y="418"/>
      <point x="160" y="385"/>
      <point x="132" y="312" type="curve" smooth="yes"/>
      <point x="90" y="201" type="line" smooth="yes"/>
      <point x="48" y="90"/>
      <point x="78" y="8"/>
      <point x="148" y="8" type="curve" smooth="yes"/>
      <point x="176" y="8"/>
      <point x="229" y="30"/>
    </contour>
  </outline>
</glyph>
<glyph name="z" format="2">
  <advance width="447"/>
  <unicode hex="007A"/>
  <anchor x="277" y="515" name="accent1"/>
  <outline>
    <contour>
      <point x="143" y="104" type="curve" smooth="yes"/>
      <point x="134" y="104"/>
      <point x="125" y="103"/>
      <point x="117" y="102" type="curve"/>
      <point x="472" y="435" type="line"/>
      <point x="458" y="457" type="line"/>
      <point x="367" y="442"/>
      <point x="235" y="443"/>
      <point x="144" y="457" type="curve"/>
      <point x="72" y="265" type="line"/>
      <point x="102" y="264" type="line"/>
      <point x="148" y="372" type="line"/>
      <point x="184" y="367"/>
      <point x="287" y="357"/>
      <point x="342" y="365" type="curve"/>
      <point x="-35" y="11" type="line"/>
      <point x="-6" y="-12" type="line"/>
      <point x="21" y="15"/>
      <point x="52" y="36"/>
      <point x="83" y="36" type="curve" smooth="yes"/>
      <point x="148" y="36"/>
      <point x="180" y="-12"/>
      <point x="243" y="-12" type="curve" smooth="yes"/>
      <point x="334" y="-12"/>
      <point x="392" y="55"/>
      <point x="392" y="131" type="curve" smooth="yes"/>
      <point x="392" y="177"/>
      <point x="372" y="204"/>
      <point x="343" y="204" type="curve" smooth="yes"/>
      <point x="320" y="204"/>
      <point x="300" y="187"/>
      <point x="300" y="163" type="curve" smooth="yes"/>
      <point x="300" y="122"/>
      <point x="345" y="118"/>
      <point x="345" y="93" type="curve" smooth="yes"/>
      <point x="345" y="69"/>
      <point x="310" y="65"/>
      <point x="289" y="65" type="curve" smooth="yes"/>
      <point x="245" y="65"/>
      <point x="198" y="104"/>
    </contour>
  </outline>
</glyph>
<glyph name="braceleft" format="2">
  <advance width="430"/>
  <unicode hex="007B"/>
  <outline>
    <contour>
      <point x="220" y="-201" type="line"/>
      <point x="146" y="-174"/>
      <point x="109" y="-132"/>
      <point x="109" y="-73" type="curve" smooth="yes"/>
      <point x="109" y="-28"/>
      <point x="125" y="10"/>
      <point x="164" y="82" type="curve" smooth="yes"/>
      <point x="195" y="139"/>
      <point x="213" y="176"/>
      <point x="213" y="212" type="curve" smooth="yes"/>
      <point x="213" y="253"/>
      <point x="183" y="264"/>
      <point x="123" y="264" type="curve"/>
      <point x="128" y="283" type="line"/>
      <point x="158" y="283"/>
      <point x="183" y="286"/>
      <point x="202" y="293" type="curve"/>
      <point x="240" y="305"/>
      <point x="266" y="347"/>
      <point x="266" y="435" type="curve" smooth="yes"/>
      <point x="266" y="484" type="line" smooth="yes"/>
      <point x="266" y="632"/>
      <point x="340" y="705"/>
      <point x="477" y="748" type="curve"/>
      <point x="483" y="723" type="line"/>
      <point x="446" y="712"/>
      <point x="418" y="700"/>
      <point x="399" y="689" type="curve" smooth="yes"/>
      <point x="362" y="666"/>
      <point x="343" y="628"/>
      <point x="342" y="549" type="curve"/>
      <point x="342" y="486" type="line"/>
      <point x="340" y="438"/>
      <point x="328" y="395"/>
      <point x="307" y="356" type="curve" smooth="yes"/>
      <point x="286" y="317"/>
      <point x="250" y="289"/>
      <point x="199" y="274" type="curve"/>
      <point x="198" y="272" type="line"/>
      <point x="234" y="259"/>
      <point x="262" y="230"/>
      <point x="262" y="178" type="curve" smooth="yes"/>
      <point x="262" y="127"/>
      <point x="240" y="82"/>
      <point x="203" y="13" type="curve"/>
      <point x="171" y="-43"/>
      <point x="158" y="-73"/>
      <point x="158" y="-101" type="curve" smooth="yes"/>
      <point x="158" y="-138"/>
      <point x="187" y="-156"/>
      <point x="240" y="-176" type="curve"/>
    </contour>
  </outline>
</glyph>
<glyph name="braceright" format="2">
  <advance width="430"/>
  <unicode hex="007D"/>
  <outline>
    <contour>
      <point x="-8" y="-176" type="line"/>
      <point x="29" y="-165"/>
      <point x="57" y="-153"/>
      <point x="76" y="-142" type="curve" smooth="yes"/>
      <point x="113" y="-119"/>
      <point x="132" y="-81"/>
      <point x="133" y="-2" type="curve"/>
      <point x="133" y="60" type="line"/>
      <point x="135" y="109"/>
      <point x="147" y="153"/>
      <point x="168" y="192" type="curve" smooth="yes"/>
      <point x="189" y="231"/>
      <point x="225" y="257"/>
      <point x="276" y="272" type="curve"/>
      <point x="278" y="274" type="line"/>
      <point x="241" y="289"/>
      <point x="213" y="317"/>
      <point x="213" y="369" type="curve" smooth="yes"/>
      <point x="213" y="420"/>
      <point x="235" y="465"/>
      <point x="272" y="534" type="curve"/>
      <point x="304" y="589"/>
      <point x="317" y="620"/>
      <point x="317" y="648" type="curve" smooth="yes"/>
      <point x="317" y="685"/>
      <point x="288" y="703"/>
      <point x="236" y="723" type="curve"/>
      <point x="255" y="748" type="line"/>
      <point x="330" y="721"/>
      <point x="367" y="679"/>
      <point x="367" y="620" type="curve" smooth="yes"/>
      <point x="367" y="575"/>
      <point x="350" y="537"/>
      <point x="311" y="465" type="curve" smooth="yes"/>
      <point x="280" y="408"/>
      <point x="262" y="370"/>
      <point x="262" y="335" type="curve" smooth="yes"/>
      <point x="262" y="294"/>
      <point x="292" y="283"/>
      <point x="352" y="283" type="curve"/>
      <point x="347" y="264" type="line"/>
      <point x="317" y="264"/>
      <point x="293" y="261"/>
      <point x="274" y="255" type="curve" smooth="yes"/>
      <point x="236" y="242"/>
      <point x="209" y="200"/>
      <point x="209" y="112" type="curve" smooth="yes"/>
      <point x="209" y="62" type="line" smooth="yes"/>
      <point x="209" y="-85"/>
      <point x="135" y="-158"/>
      <point x="-2" y="-201" type="curve"/>
    </contour>
  </outline>
</glyph>
<glyph name="asciitilde" format="2">
  <advance width="321"/>
  <unicode hex="007E"/>
  <outline>
    <contour>
      <point x="71" y="258" type="curve" smooth="yes"/>
      <point x="108" y="258"/>
      <point x="163" y="196"/>
      <point x="213" y="196" type="curve" smooth="yes"/>
      <point x="263" y="196"/>
      <point x="298" y="252"/>
      <point x="314" y="294" type="curve"/>
      <point x="292" y="302" type="line"/>
      <point x="280" y="277"/>
      <point x="262" y="254"/>
      <point x="236" y="254" type="curve" smooth="yes"/>
      <point x="199" y="254"/>
      <point x="144" y="316"/>
      <point x="94" y="316" type="curve" smooth="yes"/>
      <point x="44" y="316"/>
      <point x="9" y="260"/>
      <point x="-7" y="218" type="curve"/>
      <point x="15" y="210" type="line"/>
      <point x="27" y="235"/>
      <point x="45" y="258"/>
    </contour>
  </outline>
</glyph>
<glyph name="exclamdown" format="2">
  <advance width="287"/>
  <unicode hex="00A1"/>
  <outline>
    <contour>
      <point x="209" y="342" type="curve" smooth="yes"/>
      <point x="172" y="342"/>
      <point x="145" y="369"/>
      <point x="145" y="406" type="curve" smooth="yes"/>
      <point x="145" y="442"/>
      <point x="172" y="469"/>
      <point x="209" y="469" type="curve" smooth="yes"/>
      <point x="246" y="469"/>
      <point x="272" y="442"/>
      <point x="272" y="406" type="curve" smooth="yes"/>
      <point x="272" y="369"/>
      <point x="246" y="342"/>
    </contour>
    <contour>
      <point x="49" y="-254" type="curve" smooth="yes"/>
      <point x="14" y="-254"/>
      <point x="-4" y="-227"/>
      <point x="-4" y="-182" type="curve" smooth="yes"/>
      <point x="-4" y="-150"/>
      <point x="18" y="-96"/>
      <point x="55" y="-8" type="curve" smooth="yes"/>
      <point x="77" y="43"/>
      <point x="92" y="79"/>
      <point x="100" y="102" type="curve" smooth="yes"/>
      <point x="172" y="295" type="line"/>
      <point x="197" y="295" type="line"/>
      <point x="160" y="87" type="line"/>
      <point x="151" y="40"/>
      <point x="144" y="-5"/>
      <point x="140" y="-48" type="curve" smooth="yes"/>
      <point x="135" y="-99"/>
      <point x="128" y="-144"/>
      <point x="121" y="-182" type="curve" smooth="yes"/>
      <point x="111" y="-230"/>
      <point x="87" y="-254"/>
    </contour>
  </outline>
</glyph>
<glyph name="cent" format="2">
  <advance width="594"/>
  <unicode hex="00A2"/>
  <outline>
    <contour>
      <point x="245" y="-8" type="line"/>
      <point x="180" y="8"/>
      <point x="139" y="78"/>
      <point x="139" y="162" type="curve" smooth="yes"/>
      <point x="139" y="195"/>
      <point x="145" y="231"/>
      <point x="157" y="272" type="curve" smooth="yes"/>
      <point x="169" y="313"/>
      <point x="193" y="352"/>
      <point x="229" y="390" type="curve" smooth="yes"/>
      <point x="276" y="439"/>
      <point x="318" y="464"/>
      <point x="374" y="467" type="curve"/>
      <point x="408" y="590" type="line"/>
      <point x="432" y="590" type="line"/>
      <point x="399" y="467" type="line"/>
      <point x="447" y="467"/>
      <point x="502" y="429"/>
      <point x="502" y="365" type="curve" smooth="yes"/>
      <point x="502" y="324"/>
      <point x="476" y="293"/>
      <point x="443" y="293" type="curve" smooth="yes"/>
      <point x="418" y="293"/>
      <point x="403" y="309"/>
      <point x="403" y="329" type="curve" smooth="yes"/>
      <point x="403" y="346"/>
      <point x="414" y="363"/>
      <point x="436" y="379" type="curve" smooth="yes"/>
      <point x="443" y="385"/>
      <point x="447" y="393"/>
      <point x="447" y="402" type="curve" smooth="yes"/>
      <point x="447" y="426"/>
      <point x="428" y="442"/>
      <point x="392" y="442" type="curve"/>
      <point x="274" y="12" type="line"/>
      <point x="282" y="12" type="line" smooth="yes"/>
      <point x="349" y="12"/>
      <point x="407" y="61"/>
      <point x="439" y="129" type="curve"/>
      <point x="461" y="122" type="line"/>
      <point x="444" y="87"/>
      <point x="420" y="56"/>
      <point x="389" y="29" type="curve" smooth="yes"/>
      <point x="358" y="2"/>
      <point x="320" y="-12"/>
      <point x="276" y="-12" type="curve" smooth="yes"/>
      <point x="268" y="-12" type="line"/>
      <point x="238" y="-123" type="line"/>
      <point x="213" y="-123" type="line"/>
    </contour>
    <contour>
      <point x="367" y="442" type="line"/>
      <point x="351" y="442"/>
      <point x="326" y="428"/>
      <point x="305" y="401" type="curve" smooth="yes"/>
      <point x="280" y="371"/>
      <point x="259" y="325"/>
      <point x="240" y="264" type="curve" smooth="yes"/>
      <point x="222" y="207"/>
      <point x="213" y="153"/>
      <point x="213" y="100" type="curve" smooth="yes"/>
      <point x="213" y="60"/>
      <point x="225" y="31"/>
      <point x="252" y="18" type="curve"/>
    </contour>
  </outline>
</glyph>
<glyph name="sterling" format="2">
  <advance width="737"/>
  <unicode hex="00A3"/>
  <outline>
    <contour>
      <point x="49" y="-16" type="curve" smooth="yes"/>
      <point x="5" y="-16"/>
      <point x="-33" y="3"/>
      <point x="-33" y="42" type="curve" smooth="yes"/>
      <point x="-33" y="73"/>
      <point x="-18" y="97"/>
      <point x="12" y="114" type="curve" smooth="yes"/>
      <point x="42" y="131"/>
      <point x="76" y="139"/>
      <point x="115" y="139" type="curve" smooth="yes"/>
      <point x="150" y="139"/>
      <point x="187" y="134"/>
      <point x="224" y="124" type="curve"/>
      <point x="251" y="171"/>
      <point x="275" y="239"/>
      <point x="297" y="328" type="curve"/>
      <point x="258" y="333"/>
      <point x="227" y="336"/>
      <point x="205" y="336" type="curve" smooth="yes"/>
      <point x="164" y="336"/>
      <point x="146" y="330"/>
      <point x="111" y="313" type="curve"/>
      <point x="102" y="336" type="line"/>
      <point x="126" y="352"/>
      <point x="162" y="365"/>
      <point x="205" y="365" type="curve" smooth="yes"/>
      <point x="234" y="365"/>
      <point x="267" y="362"/>
      <point x="304" y="355" type="curve"/>
      <point x="365" y="596"/>
      <point x="460" y="717"/>
      <point x="588" y="717" type="curve" smooth="yes"/>
      <point x="682" y="717"/>
      <point x="713" y="647"/>
      <point x="713" y="602" type="curve" smooth="yes"/>
      <point x="713" y="554"/>
      <point x="681" y="522"/>
      <point x="645" y="522" type="curve" smooth="yes"/>
      <point x="614" y="522"/>
      <point x="583" y="538"/>
      <point x="583" y="574" type="curve" smooth="yes"/>
      <point x="583" y="602"/>
      <point x="602" y="614"/>
      <point x="621" y="614" type="curve" smooth="yes"/>
      <point x="637" y="614"/>
      <point x="646" y="606"/>
      <point x="659" y="606" type="curve" smooth="yes"/>
      <point x="671" y="606"/>
      <point x="676" y="609"/>
      <point x="676" y="624" type="curve" smooth="yes"/>
      <point x="676" y="659"/>
      <point x="648" y="694"/>
      <point x="587" y="694" type="curve" smooth="yes"/>
      <point x="548" y="694"/>
      <point x="517" y="680"/>
      <point x="493" y="652" type="curve" smooth="yes"/>
      <point x="444" y="595"/>
      <point x="422" y="517"/>
      <point x="401" y="410" type="curve"/>
      <point x="397" y="385"/>
      <point x="392" y="361"/>
      <point x="385" y="340" type="curve"/>
      <point x="421" y="333"/>
      <point x="457" y="330"/>
      <point x="492" y="330" type="curve" smooth="yes"/>
      <point x="532" y="330"/>
      <point x="558" y="337"/>
      <point x="586" y="352" type="curve"/>
      <point x="594" y="330" type="line"/>
      <point x="575" y="314"/>
      <point x="533" y="301"/>
      <point x="492" y="301" type="curve" smooth="yes"/>
      <point x="459" y="301"/>
      <point x="420" y="305"/>
      <point x="377" y="312" type="curve"/>
      <point x="351" y="230"/>
      <point x="316" y="162"/>
      <point x="273" y="109" type="curve"/>
      <point x="292" y="102"/>
      <point x="309" y="95"/>
      <point x="325" y="89" type="curve" smooth="yes"/>
      <point x="385" y="65"/>
      <point x="422" y="53"/>
      <point x="459" y="53" type="curve" smooth="yes"/>
      <point x="522" y="53"/>
      <point x="570" y="70"/>
      <point x="604" y="105" type="curve" smooth="yes"/>
      <point x="638" y="139"/>
      <point x="661" y="181"/>
      <point x="672" y="230" type="curve"/>
      <point x="692" y="224" type="line"/>
      <point x="680" y="159"/>
      <point x="651" y="87"/>
      <point x="604" y="46" type="curve" smooth="yes"/>
      <point x="553" y="1"/>
      <point x="508" y="-16"/>
      <point x="427" y="-16" type="curve" smooth="yes"/>
      <point x="374" y="-16"/>
      <point x="327" y="3"/>
      <point x="256" y="43" type="curve"/>
      <point x="226" y="58" type="line"/>
      <point x="172" y="9"/>
      <point x="113" y="-16"/>
    </contour>
    <contour>
      <point x="53" y="8" type="curve" smooth="yes"/>
      <point x="106" y="8"/>
      <point x="152" y="30"/>
      <point x="191" y="75" type="curve"/>
      <point x="147" y="94"/>
      <point x="107" y="104"/>
      <point x="70" y="104" type="curve" smooth="yes"/>
      <point x="33" y="104"/>
      <point x="-4" y="80"/>
      <point x="-4" y="44" type="curve" smooth="yes"/>
      <point x="-4" y="15"/>
      <point x="21" y="8"/>
    </contour>
  </outline>
</glyph>
<glyph name="currency" format="2">
  <advance width="594"/>
  <unicode hex="00A4"/>
  <outline>
    <contour>
      <point x="82" y="139" type="line"/>
      <point x="151" y="208" type="line"/>
      <point x="117" y="249"/>
      <point x="100" y="296"/>
      <point x="100" y="350" type="curve" smooth="yes"/>
      <point x="100" y="403"/>
      <point x="119" y="454"/>
      <point x="152" y="494" type="curve"/>
      <point x="82" y="563" type="line"/>
      <point x="114" y="595" type="line"/>
      <point x="182" y="526" type="line"/>
      <point x="222" y="559"/>
      <point x="273" y="578"/>
      <point x="326" y="578" type="curve" smooth="yes"/>
      <point x="379" y="578"/>
      <point x="429" y="559"/>
      <point x="469" y="526" type="curve"/>
      <point x="538" y="595" type="line"/>
      <point x="569" y="563" type="line"/>
      <point x="500" y="494" type="line"/>
      <point x="532" y="454"/>
      <point x="551" y="403"/>
      <point x="551" y="350" type="curve" smooth="yes"/>
      <point x="551" y="296"/>
      <point x="534" y="249"/>
      <point x="501" y="208" type="curve"/>
      <point x="569" y="139" type="line"/>
      <point x="538" y="108" type="line"/>
      <point x="469" y="176" type="line"/>
      <point x="429" y="144"/>
      <point x="379" y="125"/>
      <point x="326" y="125" type="curve" smooth="yes"/>
      <point x="273" y="125"/>
      <point x="222" y="144"/>
      <point x="182" y="176" type="curve"/>
      <point x="114" y="108" type="line"/>
    </contour>
    <contour>
      <point x="326" y="166" type="curve" smooth="yes"/>
      <point x="431" y="166"/>
      <point x="510" y="245"/>
      <point x="510" y="350" type="curve" smooth="yes"/>
      <point x="510" y="455"/>
      <point x="431" y="537"/>
      <point x="326" y="537" type="curve" smooth="yes"/>
      <point x="220" y="537"/>
      <point x="141" y="455"/>
      <point x="141" y="350" type="curve" smooth="yes"/>
      <point x="141" y="245"/>
      <point x="220" y="166"/>
    </contour>
  </outline>
</glyph>
<glyph name="brokenbar" format="2">
  <advance width="291"/>
  <unicode hex="00A6"/>
  <outline>
    <contour>
      <point x="147" y="379" type="line"/>
      <point x="147" y="748" type="line"/>
      <point x="193" y="748" type="line"/>
      <point x="193" y="379" type="line"/>
    </contour>
    <contour>
      <point x="147" y="-172" type="line"/>
      <point x="147" y="197" type="line"/>
      <point x="193" y="197" type="line"/>
      <point x="193" y="-172" type="line"/>
    </contour>
  </outline>
</glyph>
<glyph name="section" format="2">
  <advance width="635"/>
  <unicode hex="00A7"/>
  <outline>
    <contour>
      <point x="211" y="-190" type="curve" smooth="yes"/>
      <point x="124" y="-190"/>
      <point x="74" y="-120"/>
      <point x="74" y="-55" type="curve" smooth="yes"/>
      <point x="74" y="-6"/>
      <point x="109" y="33"/>
      <point x="154" y="33" type="curve" smooth="yes"/>
      <point x="175" y="33"/>
      <point x="199" y="17" name="hr01"/>
      <point x="199" y="-12" type="curve" smooth="yes"/>
      <point x="199" y="-37"/>
      <point x="179" y="-56"/>
      <point x="159" y="-56" type="curve" smooth="yes"/>
      <point x="154" y="-56"/>
      <point x="148" y="-55"/>
      <point x="141" y="-52" type="curve" smooth="yes"/>
      <point x="137" y="-50"/>
      <point x="133" y="-49"/>
      <point x="130" y="-49" type="curve"/>
      <point x="128" y="-49"/>
      <point x="126" y="-50"/>
      <point x="124" y="-51" type="curve" smooth="yes"/>
      <point x="121" y="-54"/>
      <point x="119" y="-62" name="hr02"/>
      <point x="119" y="-76" type="curve" smooth="yes"/>
      <point x="119" y="-121"/>
      <point x="161" y="-160"/>
      <point x="221" y="-160" type="curve" smooth="yes"/>
      <point x="277" y="-160"/>
      <point x="344" y="-118"/>
      <point x="344" y="-27" type="curve" smooth="yes"/>
      <point x="344" y="14"/>
      <point x="322" y="36"/>
      <point x="281" y="68" type="curve" smooth="yes"/>
      <point x="168" y="153" type="line" smooth="yes"/>
      <point x="127" y="184"/>
      <point x="106" y="222" name="hr03"/>
      <point x="106" y="266" type="curve" smooth="yes"/>
      <point x="106" y="298"/>
      <point x="119" y="332" name="hr04"/>
      <point x="146" y="368" type="curve" smooth="yes"/>
      <point x="173" y="404"/>
      <point x="203" y="430"/>
      <point x="238" y="447" type="curve"/>
      <point x="224" y="469"/>
      <point x="217" y="498"/>
      <point x="217" y="534" type="curve" smooth="yes"/>
      <point x="217" y="573"/>
      <point x="227" y="606"/>
      <point x="246" y="634" type="curve" smooth="yes"/>
      <point x="284" y="690"/>
      <point x="347" y="719"/>
      <point x="403" y="719" type="curve" smooth="yes"/>
      <point x="489" y="719"/>
      <point x="541" y="647"/>
      <point x="541" y="584" type="curve" smooth="yes"/>
      <point x="541" y="535"/>
      <point x="506" y="496"/>
      <point x="461" y="496" type="curve" smooth="yes"/>
      <point x="438" y="496"/>
      <point x="416" y="510"/>
      <point x="416" y="541" type="curve" smooth="yes"/>
      <point x="416" y="565"/>
      <point x="435" y="585"/>
      <point x="456" y="585" type="curve" smooth="yes"/>
      <point x="461" y="585"/>
      <point x="466" y="584"/>
      <point x="470" y="583" type="curve" smooth="yes"/>
      <point x="480" y="581" type="line"/>
      <point x="484" y="581"/>
      <point x="487" y="582"/>
      <point x="489" y="584" type="curve" smooth="yes"/>
      <point x="494" y="588"/>
      <point x="496" y="595" name="hr05"/>
      <point x="496" y="604" type="curve" smooth="yes"/>
      <point x="496" y="649"/>
      <point x="453" y="688"/>
      <point x="393" y="688" type="curve" smooth="yes"/>
      <point x="338" y="688"/>
      <point x="270" y="641"/>
      <point x="270" y="550" type="curve" smooth="yes"/>
      <point x="270" y="510"/>
      <point x="288" y="493"/>
      <point x="328" y="465" type="curve"/>
      <point x="446" y="376" type="line" smooth="yes"/>
      <point x="487" y="345"/>
      <point x="508" y="307" name="hr06"/>
      <point x="508" y="262" type="curve" smooth="yes"/>
      <point x="508" y="230"/>
      <point x="495" y="196"/>
      <point x="468" y="160" type="curve" smooth="yes"/>
      <point x="441" y="124"/>
      <point x="411" y="98"/>
      <point x="377" y="81" type="curve"/>
      <point x="390" y="59"/>
      <point x="397" y="30"/>
      <point x="397" y="-5" type="curve" smooth="yes"/>
      <point x="397" y="-44"/>
      <point x="388" y="-77"/>
      <point x="369" y="-105" type="curve" smooth="yes"/>
      <point x="331" y="-161"/>
      <point x="267" y="-190"/>
    </contour>
    <contour>
      <point x="367" y="95" type="curve"/>
      <point x="416" y="126"/>
      <point x="455" y="180" name="hr07"/>
      <point x="455" y="231" type="curve" smooth="yes"/>
      <point x="455" y="258"/>
      <point x="441" y="282"/>
      <point x="414" y="303" type="curve" smooth="yes"/>
      <point x="275" y="408" type="line" smooth="yes"/>
      <point x="265" y="416"/>
      <point x="256" y="424"/>
      <point x="248" y="433" type="curve"/>
      <point x="197" y="404"/>
      <point x="160" y="349"/>
      <point x="160" y="297" type="curve" smooth="yes"/>
      <point x="160" y="270"/>
      <point x="174" y="246"/>
      <point x="201" y="225" type="curve" smooth="yes"/>
      <point x="339" y="121" type="line" smooth="yes"/>
      <point x="349" y="113"/>
      <point x="358" y="104"/>
    </contour>
  </outline>
</glyph>
<glyph name="dieresis" format="2">
  <advance width="500"/>
  <unicode hex="00A8"/>
  <anchor x="349" y="534" name="_accent1"/>
  <outline>
    <contour>
      <point x="257" y="561" type="curve" smooth="yes"/>
      <point x="232" y="561"/>
      <point x="208" y="585"/>
      <point x="208" y="610" type="curve" smooth="yes"/>
      <point x="208" y="638"/>
      <point x="232" y="659"/>
      <point x="257" y="659" type="curve" smooth="yes"/>
      <point x="285" y="659"/>
      <point x="306" y="638"/>
      <point x="306" y="610" type="curve" smooth="yes"/>
      <point x="306" y="585"/>
      <point x="285" y="561"/>
    </contour>
    <contour>
      <point x="450" y="561" type="curve" smooth="yes"/>
      <point x="423" y="561"/>
      <point x="400" y="585"/>
      <point x="400" y="610" type="curve" smooth="yes"/>
      <point x="400" y="638"/>
      <point x="423" y="659"/>
      <point x="450" y="659" type="curve" smooth="yes"/>
      <point x="477" y="659"/>
      <point x="499" y="638"/>
      <point x="499" y="610" type="curve" smooth="yes"/>
      <point x="499" y="585"/>
      <point x="477" y="561"/>
    </contour>
  </outline>
</glyph>
<glyph name="copyright" format="2">
  <advance width="840"/>
  <unicode hex="00A9"/>
  <outline>
    <contour>
      <point x="430" y="-18" type="curve" smooth="yes"/>
      <point x="371" y="-18"/>
      <point x="318" y="-2"/>
      <point x="270" y="27" type="curve" smooth="yes"/>
      <point x="175" y="85"/>
      <point x="116" y="188"/>
      <point x="116" y="307" type="curve" smooth="yes"/>
      <point x="116" y="366"/>
      <point x="130" y="420"/>
      <point x="158" y="470" type="curve" smooth="yes"/>
      <point x="185" y="519"/>
      <point x="222" y="558"/>
      <point x="270" y="587" type="curve" smooth="yes"/>
      <point x="318" y="617"/>
      <point x="371" y="632"/>
      <point x="430" y="632" type="curve" smooth="yes"/>
      <point x="488" y="632"/>
      <point x="542" y="617"/>
      <point x="591" y="587" type="curve" smooth="yes"/>
      <point x="686" y="529"/>
      <point x="745" y="425"/>
      <point x="745" y="307" type="curve" smooth="yes"/>
      <point x="745" y="248"/>
      <point x="731" y="194"/>
      <point x="704" y="145" type="curve" smooth="yes"/>
      <point x="676" y="94"/>
      <point x="639" y="56"/>
      <point x="591" y="27" type="curve" smooth="yes"/>
      <point x="542" y="-2"/>
      <point x="488" y="-18"/>
    </contour>
    <contour>
      <point x="430" y="6" type="curve" smooth="yes"/>
      <point x="484" y="6"/>
      <point x="533" y="19"/>
      <point x="577" y="46" type="curve" smooth="yes"/>
      <point x="621" y="74"/>
      <point x="656" y="110"/>
      <point x="682" y="157" type="curve" smooth="yes"/>
      <point x="708" y="203"/>
      <point x="721" y="253"/>
      <point x="721" y="307" type="curve" smooth="yes"/>
      <point x="721" y="361"/>
      <point x="708" y="410"/>
      <point x="682" y="457" type="curve" smooth="yes"/>
      <point x="630" y="548"/>
      <point x="538" y="607"/>
      <point x="430" y="607" type="curve" smooth="yes"/>
      <point x="376" y="607"/>
      <point x="328" y="594"/>
      <point x="284" y="567" type="curve" smooth="yes"/>
      <point x="240" y="539"/>
      <point x="205" y="503"/>
      <point x="179" y="457" type="curve" smooth="yes"/>
      <point x="152" y="410"/>
      <point x="140" y="361"/>
      <point x="140" y="307" type="curve" smooth="yes"/>
      <point x="140" y="253"/>
      <point x="153" y="203"/>
      <point x="179" y="157" type="curve" smooth="yes"/>
      <point x="231" y="65"/>
      <point x="324" y="6"/>
    </contour>
    <contour>
      <point x="441" y="93" type="curve" smooth="yes"/>
      <point x="404" y="93"/>
      <point x="371" y="103"/>
      <point x="345" y="122" type="curve"/>
      <point x="292" y="159"/>
      <point x="266" y="225"/>
      <point x="266" y="291" type="curve" smooth="yes"/>
      <point x="266" y="420"/>
      <point x="332" y="509"/>
      <point x="443" y="509" type="curve" smooth="yes"/>
      <point x="465" y="509"/>
      <point x="489" y="500"/>
      <point x="514" y="481" type="curve" smooth="yes"/>
      <point x="521" y="475"/>
      <point x="524" y="475"/>
      <point x="531" y="475" type="curve" smooth="yes"/>
      <point x="541" y="475"/>
      <point x="551" y="491"/>
      <point x="551" y="505" type="curve"/>
      <point x="565" y="505" type="line"/>
      <point x="565" y="362" type="line"/>
      <point x="551" y="362" type="line"/>
      <point x="548" y="384"/>
      <point x="542" y="405"/>
      <point x="530" y="425" type="curve" smooth="yes"/>
      <point x="506" y="465"/>
      <point x="470" y="489"/>
      <point x="443" y="489" type="curve" smooth="yes"/>
      <point x="376" y="489"/>
      <point x="342" y="423"/>
      <point x="342" y="291" type="curve" smooth="yes"/>
      <point x="342" y="248"/>
      <point x="350" y="207"/>
      <point x="366" y="170" type="curve" smooth="yes"/>
      <point x="382" y="132"/>
      <point x="406" y="114"/>
      <point x="441" y="114" type="curve" smooth="yes"/>
      <point x="475" y="114"/>
      <point x="502" y="125"/>
      <point x="520" y="150" type="curve" smooth="yes"/>
      <point x="538" y="174"/>
      <point x="548" y="204"/>
      <point x="552" y="239" type="curve"/>
      <point x="573" y="239" type="line"/>
      <point x="570" y="201"/>
      <point x="558" y="167"/>
      <point x="536" y="137" type="curve" smooth="yes"/>
      <point x="513" y="107"/>
      <point x="482" y="93"/>
    </contour>
  </outline>
</glyph>
<glyph name="ordfeminine" format="2">
  <advance width="389"/>
  <unicode hex="00AA"/>
  <outline>
    <contour>
      <point x="188" y="422" type="qcurve" smooth="yes"/>
      <point x="152" y="422"/>
      <point x="111" y="473"/>
      <point x="111" y="515" type="qcurve" smooth="yes"/>
      <point x="111" y="557"/>
      <point x="148" y="652"/>
      <point x="217" y="717"/>
      <point x="260" y="717" type="qcurve" smooth="yes"/>
      <point x="281" y="717"/>
      <point x="312" y="689"/>
      <point x="315" y="674" type="qcurve"/>
      <point x="318" y="674" type="line"/>
      <point x="328" y="711" type="line"/>
      <point x="379" y="711" type="line"/>
      <point x="323" y="509" type="line" smooth="yes"/>
      <point x="313" y="478"/>
      <point x="313" y="464" type="qcurve" smooth="yes"/>
      <point x="313" y="459"/>
      <point x="318" y="450"/>
      <point x="325" y="450" type="qcurve" smooth="yes"/>
      <point x="344" y="450"/>
      <point x="385" y="510"/>
      <point x="398" y="547" type="qcurve"/>
      <point x="411" y="542" type="line"/>
      <point x="394" y="498"/>
      <point x="340" y="422"/>
      <point x="312" y="422" type="qcurve" smooth="yes"/>
      <point x="286" y="422"/>
      <point x="262" y="451"/>
      <point x="262" y="465" type="qcurve" smooth="yes"/>
      <point x="262" y="475"/>
      <point x="265" y="482" type="qcurve"/>
      <point x="263" y="483" type="line"/>
      <point x="252" y="462"/>
      <point x="209" y="422"/>
    </contour>
    <contour>
      <point x="195" y="440" type="qcurve" smooth="yes"/>
      <point x="221" y="440"/>
      <point x="278" y="524"/>
      <point x="292" y="577" type="qcurve" smooth="yes"/>
      <point x="300" y="608" type="line"/>
      <point x="305" y="625"/>
      <point x="305" y="651" type="qcurve" smooth="yes"/>
      <point x="305" y="670"/>
      <point x="285" y="698"/>
      <point x="261" y="698" type="qcurve" smooth="yes"/>
      <point x="234" y="698"/>
      <point x="189" y="634"/>
      <point x="164" y="535"/>
      <point x="164" y="486" type="qcurve" smooth="yes"/>
      <point x="164" y="468"/>
      <point x="178" y="440"/>
    </contour>
    <contour>
      <point x="90" y="364" type="line"/>
      <point x="97" y="388" type="line"/>
      <point x="344" y="388" type="line"/>
      <point x="337" y="364" type="line"/>
    </contour>
  </outline>
</glyph>
<glyph name="logicalnot" format="2">
  <advance width="594"/>
  <unicode hex="00AC"/>
  <outline>
    <contour>
      <point x="524" y="246" type="line"/>
      <point x="524" y="416" type="line"/>
      <point x="74" y="416" type="line"/>
      <point x="74" y="457" type="line"/>
      <point x="569" y="457" type="line"/>
      <point x="569" y="246" type="line"/>
    </contour>
  </outline>
</glyph>
<glyph name="softhyphen" format="2">
  <advance width="461"/>
  <unicode hex="00AD"/>
  <outline>
    <contour>
      <point x="86" y="284" type="line"/>
      <point x="58" y="209" type="line"/>
      <point x="354" y="209" type="line"/>
      <point x="382" y="284" type="line"/>
    </contour>
  </outline>
</glyph>
<glyph name="registered" format="2">
  <advance width="840"/>
  <unicode hex="00AE"/>
  <outline>
    <contour>
      <point x="429" y="-18" type="curve" smooth="yes"/>
      <point x="371" y="-18"/>
      <point x="318" y="-3"/>
      <point x="269" y="27" type="curve" smooth="yes"/>
      <point x="174" y="84"/>
      <point x="115" y="188"/>
      <point x="115" y="307" type="curve" smooth="yes"/>
      <point x="115" y="366"/>
      <point x="129" y="420"/>
      <point x="157" y="470" type="curve" smooth="yes"/>
      <point x="184" y="519"/>
      <point x="221" y="558"/>
      <point x="269" y="587" type="curve" smooth="yes"/>
      <point x="318" y="617"/>
      <point x="371" y="632"/>
      <point x="429" y="632" type="curve" smooth="yes"/>
      <point x="488" y="632"/>
      <point x="541" y="617"/>
      <point x="590" y="587" type="curve" smooth="yes"/>
      <point x="685" y="529"/>
      <point x="744" y="425"/>
      <point x="744" y="307" type="curve" smooth="yes"/>
      <point x="744" y="248"/>
      <point x="730" y="194"/>
      <point x="703" y="145" type="curve" smooth="yes"/>
      <point x="675" y="94"/>
      <point x="638" y="56"/>
      <point x="590" y="27" type="curve" smooth="yes"/>
      <point x="541" y="-2"/>
      <point x="488" y="-18"/>
    </contour>
    <contour>
      <point x="429" y="6" type="curve" smooth="yes"/>
      <point x="483" y="6"/>
      <point x="532" y="19"/>
      <point x="576" y="46" type="curve" smooth="yes"/>
      <point x="620" y="74"/>
      <point x="655" y="110"/>
      <point x="681" y="157" type="curve" smooth="yes"/>
      <point x="707" y="203"/>
      <point x="720" y="253"/>
      <point x="720" y="307" type="curve" smooth="yes"/>
      <point x="720" y="361"/>
      <point x="707" y="410"/>
      <point x="681" y="457" type="curve" smooth="yes"/>
      <point x="630" y="548"/>
      <point x="537" y="607"/>
      <point x="429" y="607" type="curve" smooth="yes"/>
      <point x="375" y="607"/>
      <point x="327" y="594"/>
      <point x="283" y="567" type="curve" smooth="yes"/>
      <point x="239" y="539"/>
      <point x="204" y="503"/>
      <point x="178" y="457" type="curve" smooth="yes"/>
      <point x="151" y="410"/>
      <point x="139" y="361"/>
      <point x="139" y="307" type="curve" smooth="yes"/>
      <point x="139" y="253"/>
      <point x="152" y="203"/>
      <point x="178" y="157" type="curve" smooth="yes"/>
      <point x="230" y="65"/>
      <point x="323" y="6"/>
    </contour>
    <contour>
      <point x="567" y="100" type="curve" smooth="yes"/>
      <point x="550" y="100"/>
      <point x="534" y="105"/>
      <point x="523" y="112" type="curve" smooth="yes"/>
      <point x="502" y="127"/>
      <point x="491" y="153"/>
      <point x="491" y="187" type="curve" smooth="yes"/>
      <point x="491" y="235" type="line" smooth="yes"/>
      <point x="491" y="289"/>
      <point x="463" y="309"/>
      <point x="434" y="309" type="curve" smooth="yes"/>
      <point x="366" y="309" type="line"/>
      <point x="366" y="150" type="line" smooth="yes"/>
      <point x="366" y="136"/>
      <point x="371" y="132"/>
      <point x="384" y="132" type="curve" smooth="yes"/>
      <point x="423" y="132" type="line"/>
      <point x="423" y="110" type="line"/>
      <point x="247" y="110" type="line"/>
      <point x="247" y="132" type="line"/>
      <point x="283" y="132" type="line" smooth="yes"/>
      <point x="297" y="132"/>
      <point x="303" y="136"/>
      <point x="303" y="150" type="curve" smooth="yes"/>
      <point x="303" y="467" type="line" smooth="yes"/>
      <point x="303" y="480"/>
      <point x="297" y="485"/>
      <point x="283" y="485" type="curve" smooth="yes"/>
      <point x="247" y="485" type="line"/>
      <point x="247" y="507" type="line"/>
      <point x="445" y="507" type="line" smooth="yes"/>
      <point x="517" y="507"/>
      <point x="572" y="472"/>
      <point x="572" y="410" type="curve" smooth="yes"/>
      <point x="572" y="381"/>
      <point x="562" y="360"/>
      <point x="541" y="346" type="curve" smooth="yes"/>
      <point x="521" y="332"/>
      <point x="500" y="323"/>
      <point x="478" y="319" type="curve"/>
      <point x="478" y="315" type="line"/>
      <point x="515" y="308"/>
      <point x="550" y="282"/>
      <point x="557" y="215" type="curve" smooth="yes"/>
      <point x="559" y="195" type="line" smooth="yes"/>
      <point x="563" y="152"/>
      <point x="566" y="132"/>
      <point x="590" y="132" type="curve" smooth="yes"/>
      <point x="603" y="132"/>
      <point x="613" y="140"/>
      <point x="618" y="157" type="curve" smooth="yes"/>
      <point x="624" y="174"/>
      <point x="626" y="192"/>
      <point x="626" y="210" type="curve"/>
      <point x="642" y="210" type="line"/>
      <point x="642" y="183"/>
      <point x="636" y="158"/>
      <point x="626" y="134" type="curve" smooth="yes"/>
      <point x="616" y="112"/>
      <point x="596" y="100"/>
    </contour>
    <contour>
      <point x="432" y="329" type="line" smooth="yes"/>
      <point x="470" y="329"/>
      <point x="495" y="357"/>
      <point x="495" y="405" type="curve" smooth="yes"/>
      <point x="495" y="456"/>
      <point x="475" y="485"/>
      <point x="431" y="485" type="curve" smooth="yes"/>
      <point x="384" y="485" type="line" smooth="yes"/>
      <point x="371" y="485"/>
      <point x="366" y="480"/>
      <point x="366" y="467" type="curve" smooth="yes"/>
      <point x="366" y="329" type="line"/>
    </contour>
  </outline>
</glyph>
<glyph name="macron" format="2">
  <advance width="527"/>
  <unicode hex="00AF"/>
  <outline>
    <contour>
      <point x="193" y="559" type="line"/>
      <point x="203" y="600" type="line"/>
      <point x="524" y="600" type="line"/>
      <point x="514" y="559" type="line"/>
    </contour>
  </outline>
</glyph>
<glyph name="degree" format="2">
  <advance width="216"/>
  <unicode hex="00B0"/>
  <outline>
    <contour>
      <point x="154" y="638" type="curve" smooth="yes"/>
      <point x="154" y="680"/>
      <point x="186" y="709"/>
      <point x="225" y="709" type="curve" smooth="yes"/>
      <point x="267" y="709"/>
      <point x="296" y="677"/>
      <point x="296" y="638" type="curve" smooth="yes"/>
      <point x="296" y="596"/>
      <point x="264" y="567"/>
      <point x="225" y="567" type="curve" smooth="yes"/>
      <point x="183" y="567"/>
      <point x="154" y="599"/>
    </contour>
    <contour>
      <point x="117" y="638" type="curve" smooth="yes"/>
      <point x="117" y="580"/>
      <point x="163" y="530"/>
      <point x="225" y="530" type="curve" smooth="yes"/>
      <point x="283" y="530"/>
      <point x="333" y="576"/>
      <point x="333" y="638" type="curve" smooth="yes"/>
      <point x="333" y="696"/>
      <point x="287" y="746"/>
      <point x="225" y="746" type="curve" smooth="yes"/>
      <point x="167" y="746"/>
      <point x="117" y="700"/>
    </contour>
  </outline>
</glyph>
<glyph name="twosuperior" format="2">
  <advance width="422"/>
  <unicode hex="00B2"/>
  <outline>
    <contour>
      <point x="229" y="623" type="curve"/>
      <point x="212" y="629"/>
      <point x="214" y="642"/>
      <point x="226" y="650" type="curve" smooth="yes"/>
      <point x="243" y="662"/>
      <point x="265" y="668"/>
      <point x="288" y="668" type="curve" smooth="yes"/>
      <point x="327" y="668"/>
      <point x="359" y="644"/>
      <point x="359" y="590" type="curve" smooth="yes"/>
      <point x="359" y="521"/>
      <point x="301" y="489"/>
      <point x="222" y="431" type="curve" smooth="yes"/>
      <point x="151" y="380"/>
      <point x="86" y="326"/>
      <point x="58" y="250" type="curve"/>
      <point x="80" y="243" type="line"/>
      <point x="95" y="275"/>
      <point x="116" y="291"/>
      <point x="139" y="291" type="curve" smooth="yes"/>
      <point x="176" y="291"/>
      <point x="198" y="242" name=".hr01"/>
      <point x="256" y="242" type="curve" smooth="yes"/>
      <point x="325" y="242"/>
      <point x="361" y="312"/>
      <point x="366" y="366" type="curve"/>
      <point x="345" y="370" type="line"/>
      <point x="329" y="321"/>
      <point x="310" y="302"/>
      <point x="273" y="302" type="curve" smooth="yes"/>
      <point x="229" y="302"/>
      <point x="200" y="339" name=".hr02"/>
      <point x="167" y="339" type="curve" smooth="yes"/>
      <point x="160" y="339"/>
      <point x="152" y="338"/>
      <point x="144" y="336" type="curve"/>
      <point x="171" y="365"/>
      <point x="215" y="395"/>
      <point x="251" y="416" type="curve"/>
      <point x="332" y="461"/>
      <point x="424" y="493"/>
      <point x="424" y="588" type="curve" smooth="yes"/>
      <point x="424" y="649"/>
      <point x="373" y="692"/>
      <point x="300" y="692" type="curve" smooth="yes"/>
      <point x="227" y="692"/>
      <point x="165" y="642"/>
      <point x="165" y="590" type="curve" smooth="yes"/>
      <point x="165" y="555"/>
      <point x="187" y="532"/>
      <point x="214" y="532" type="curve" smooth="yes"/>
      <point x="240" y="532"/>
      <point x="259" y="553"/>
      <point x="259" y="579" type="curve" smooth="yes"/>
      <point x="259" y="597"/>
      <point x="247" y="617"/>
    </contour>
  </outline>
</glyph>
<glyph name="acute" format="2">
  <advance width="220"/>
  <unicode hex="00B4"/>
  <anchor x="189" y="509" name="_accent1"/>
  <outline>
    <contour>
      <point x="223" y="694" type="line"/>
      <point x="200" y="654"/>
      <point x="152" y="593"/>
      <point x="120" y="562" type="curve"/>
      <point x="128" y="540" type="line"/>
      <point x="176" y="566"/>
      <point x="296" y="652"/>
      <point x="340" y="686" type="curve"/>
      <point x="333" y="706" type="line"/>
    </contour>
  </outline>
</glyph>
<glyph name="paragraph" format="2">
  <advance width="553"/>
  <unicode hex="00B6"/>
  <outline>
    <contour>
      <point x="302" y="395" type="line"/>
      <point x="221" y="395"/>
      <point x="168" y="440"/>
      <point x="168" y="511" type="curve" smooth="yes"/>
      <point x="168" y="544"/>
      <point x="178" y="577"/>
      <point x="198" y="612" type="curve" smooth="yes"/>
      <point x="237" y="680"/>
      <point x="310" y="729"/>
      <point x="393" y="729" type="curve" smooth="yes"/>
      <point x="643" y="729" type="line"/>
      <point x="633" y="694" type="line"/>
      <point x="563" y="694" type="line"/>
      <point x="332" y="-160" type="line"/>
      <point x="293" y="-160" type="line"/>
      <point x="524" y="694" type="line"/>
      <point x="422" y="694" type="line"/>
      <point x="190" y="-160" type="line"/>
      <point x="152" y="-160" type="line"/>
    </contour>
  </outline>
</glyph>
<glyph name="periodcentered" format="2">
  <advance width="287"/>
  <unicode hex="00B7"/>
  <outline>
    <contour>
      <point x="199" y="260" type="curve" smooth="yes"/>
      <point x="162" y="260"/>
      <point x="135" y="287"/>
      <point x="135" y="324" type="curve" smooth="yes"/>
      <point x="135" y="360"/>
      <point x="162" y="387"/>
      <point x="199" y="387" type="curve" smooth="yes"/>
      <point x="235" y="387"/>
      <point x="262" y="360"/>
      <point x="262" y="324" type="curve" smooth="yes"/>
      <point x="262" y="287"/>
      <point x="235" y="260"/>
    </contour>
  </outline>
</glyph>
<glyph name="cedilla" format="2">
  <advance width="219"/>
  <unicode hex="00B8"/>
  <outline>
    <contour>
      <point x="80" y="-85" type="line"/>
      <point x="85" y="-90" type="line"/>
      <point x="136" y="-77"/>
      <point x="158" y="-95"/>
      <point x="158" y="-126" type="curve" smooth="yes"/>
      <point x="158" y="-165"/>
      <point x="135" y="-194"/>
      <point x="97" y="-194" type="curve" smooth="yes"/>
      <point x="74" y="-194"/>
      <point x="46" y="-181"/>
      <point x="18" y="-149" type="curve"/>
      <point x="0" y="-169" type="line"/>
      <point x="24" y="-200"/>
      <point x="67" y="-225"/>
      <point x="107" y="-225" type="curve" smooth="yes"/>
      <point x="165" y="-225"/>
      <point x="219" y="-188"/>
      <point x="219" y="-124" type="curve" smooth="yes"/>
      <point x="219" y="-82"/>
      <point x="184" y="-46"/>
      <point x="115" y="-62" type="curve"/>
      <point x="144" y="26" type="line"/>
      <point x="114" y="26" type="line"/>
    </contour>
  </outline>
</glyph>
<glyph name="onesuperior" format="2">
  <advance width="377"/>
  <unicode hex="00B9"/>
  <outline>
    <contour>
      <point x="245" y="306" type="curve"/>
      <point x="357" y="700" type="line"/>
      <point x="311" y="700" type="line"/>
      <point x="148" y="558" type="line"/>
      <point x="162" y="539" type="line"/>
      <point x="246" y="597" type="line"/>
      <point x="261" y="607"/>
      <point x="266" y="595"/>
      <point x="262" y="582" type="curve" smooth="yes"/>
      <point x="179" y="306" type="line" smooth="yes"/>
      <point x="172" y="283"/>
      <point x="160" y="273"/>
      <point x="137" y="273" type="curve" smooth="yes"/>
      <point x="107" y="273" type="line"/>
      <point x="101" y="250" type="line"/>
      <point x="311" y="250" type="line"/>
      <point x="318" y="273" type="line"/>
      <point x="268" y="273" type="line" smooth="yes"/>
      <point x="245" y="273"/>
      <point x="238" y="283"/>
    </contour>
  </outline>
</glyph>
<glyph name="ordmasculine" format="2">
  <advance width="389"/>
  <unicode hex="00BA"/>
  <outline>
    <contour>
      <point x="226" y="420" type="curve" smooth="yes"/>
      <point x="173" y="420"/>
      <point x="137" y="461"/>
      <point x="137" y="520" type="curve" smooth="yes"/>
      <point x="137" y="548"/>
      <point x="145" y="577"/>
      <point x="160" y="608" type="curve"/>
      <point x="191" y="668"/>
      <point x="246" y="715"/>
      <point x="306" y="715" type="curve" smooth="yes"/>
      <point x="362" y="715"/>
      <point x="397" y="672"/>
      <point x="397" y="612" type="curve" smooth="yes"/>
      <point x="397" y="584"/>
      <point x="389" y="555"/>
      <point x="374" y="525" type="curve"/>
      <point x="342" y="465"/>
      <point x="286" y="420"/>
    </contour>
    <contour>
      <point x="231" y="438" type="curve" smooth="yes"/>
      <point x="252" y="438"/>
      <point x="271" y="449"/>
      <point x="288" y="471" type="curve" smooth="yes"/>
      <point x="322" y="514"/>
      <point x="344" y="583"/>
      <point x="344" y="636" type="curve" smooth="yes"/>
      <point x="344" y="673"/>
      <point x="332" y="696"/>
      <point x="301" y="696" type="curve" smooth="yes"/>
      <point x="281" y="696"/>
      <point x="263" y="685"/>
      <point x="246" y="663" type="curve" smooth="yes"/>
      <point x="212" y="620"/>
      <point x="190" y="547"/>
      <point x="190" y="496" type="curve" smooth="yes"/>
      <point x="190" y="460"/>
      <point x="203" y="438"/>
    </contour>
    <contour>
      <point x="90" y="371" type="line"/>
      <point x="97" y="395" type="line"/>
      <point x="344" y="395" type="line"/>
      <point x="337" y="371" type="line"/>
    </contour>
  </outline>
</glyph>
<glyph name="onequarter" format="2">
  <advance width="866"/>
  <unicode hex="00BC"/>
  <outline>
    <contour>
      <point x="651" y="736" type="line"/>
      <point x="201" y="19" type="line"/>
      <point x="228" y="0" type="line"/>
      <point x="676" y="718" type="line"/>
    </contour>
    <contour>
      <point x="236" y="356" type="curve"/>
      <point x="342" y="726" type="line"/>
      <point x="298" y="726" type="line"/>
      <point x="144" y="592" type="line"/>
      <point x="157" y="575" type="line"/>
      <point x="236" y="629" type="line"/>
      <point x="251" y="638"/>
      <point x="256" y="627"/>
      <point x="252" y="615" type="curve" smooth="yes"/>
      <point x="174" y="356" type="line"/>
      <point x="168" y="334"/>
      <point x="156" y="325"/>
      <point x="134" y="325" type="curve" smooth="yes"/>
      <point x="106" y="325" type="line"/>
      <point x="100" y="303" type="line"/>
      <point x="298" y="303" type="line"/>
      <point x="304" y="325" type="line"/>
      <point x="258" y="325" type="line" smooth="yes"/>
      <point x="236" y="325"/>
      <point x="229" y="334"/>
    </contour>
    <contour>
      <point x="673" y="72" type="curve" smooth="yes"/>
      <point x="692" y="140" type="line"/>
      <point x="778" y="140" type="line"/>
      <point x="786" y="163" type="line"/>
      <point x="699" y="163" type="line"/>
      <point x="739" y="304" type="line" smooth="yes"/>
      <point x="741" y="311"/>
      <point x="736" y="311"/>
      <point x="733" y="307" type="curve"/>
      <point x="657" y="241" type="line"/>
      <point x="634" y="163" type="line"/>
      <point x="509" y="163" type="line"/>
      <point x="581" y="252"/>
      <point x="665" y="316"/>
      <point x="753" y="445" type="curve"/>
      <point x="660" y="445" type="line"/>
      <point x="618" y="350"/>
      <point x="554" y="257"/>
      <point x="483" y="168" type="curve"/>
      <point x="474" y="140" type="line"/>
      <point x="627" y="140" type="line"/>
      <point x="608" y="72" type="line"/>
      <point x="601" y="50"/>
      <point x="590" y="41"/>
      <point x="568" y="41" type="curve" smooth="yes"/>
      <point x="533" y="41" type="line"/>
      <point x="527" y="19" type="line"/>
      <point x="729" y="19" type="line"/>
      <point x="736" y="41" type="line"/>
      <point x="695" y="41" type="line" smooth="yes"/>
      <point x="673" y="41"/>
      <point x="667" y="50"/>
    </contour>
  </outline>
</glyph>
<glyph name="onehalf" format="2">
  <advance width="866"/>
  <unicode hex="00BD"/>
  <outline>
    <contour>
      <point x="657" y="736" type="line"/>
      <point x="207" y="19" type="line"/>
      <point x="234" y="0" type="line"/>
      <point x="682" y="718" type="line"/>
    </contour>
    <contour>
      <point x="242" y="356" type="curve"/>
      <point x="348" y="726" type="line"/>
      <point x="304" y="726" type="line"/>
      <point x="150" y="592" type="line"/>
      <point x="163" y="575" type="line"/>
      <point x="242" y="629" type="line"/>
      <point x="257" y="638"/>
      <point x="262" y="627"/>
      <point x="258" y="615" type="curve" smooth="yes"/>
      <point x="180" y="356" type="line"/>
      <point x="174" y="334"/>
      <point x="162" y="325"/>
      <point x="140" y="325" type="curve" smooth="yes"/>
      <point x="112" y="325" type="line"/>
      <point x="106" y="303" type="line"/>
      <point x="304" y="303" type="line"/>
      <point x="310" y="325" type="line"/>
      <point x="264" y="325" type="line" smooth="yes"/>
      <point x="242" y="325"/>
      <point x="235" y="334"/>
    </contour>
    <contour>
      <point x="630" y="392" type="curve" smooth="yes"/>
      <point x="613" y="398"/>
      <point x="615" y="411"/>
      <point x="627" y="419" type="curve" smooth="yes"/>
      <point x="644" y="431"/>
      <point x="666" y="437"/>
      <point x="689" y="437" type="curve" smooth="yes"/>
      <point x="728" y="437"/>
      <point x="760" y="413"/>
      <point x="760" y="359" type="curve" smooth="yes"/>
      <point x="760" y="290"/>
      <point x="702" y="258"/>
      <point x="623" y="200" type="curve" smooth="yes"/>
      <point x="552" y="149"/>
      <point x="487" y="95"/>
      <point x="459" y="19" type="curve"/>
      <point x="481" y="12" type="line"/>
      <point x="496" y="44"/>
      <point x="517" y="60"/>
      <point x="540" y="60" type="curve" smooth="yes"/>
      <point x="577" y="60"/>
      <point x="599" y="11"/>
      <point x="657" y="11" type="curve" smooth="yes"/>
      <point x="726" y="11"/>
      <point x="762" y="81"/>
      <point x="767" y="135" type="curve"/>
      <point x="746" y="139" type="line"/>
      <point x="730" y="90"/>
      <point x="711" y="71"/>
      <point x="674" y="71" type="curve" smooth="yes"/>
      <point x="630" y="71"/>
      <point x="601" y="108"/>
      <point x="568" y="108" type="curve" smooth="yes"/>
      <point x="561" y="108"/>
      <point x="553" y="107"/>
      <point x="545" y="105" type="curve"/>
      <point x="572" y="134"/>
      <point x="616" y="164"/>
      <point x="652" y="185" type="curve"/>
      <point x="733" y="230"/>
      <point x="825" y="262"/>
      <point x="825" y="357" type="curve" smooth="yes"/>
      <point x="825" y="418"/>
      <point x="774" y="461"/>
      <point x="701" y="461" type="curve" smooth="yes"/>
      <point x="628" y="461"/>
      <point x="566" y="411"/>
      <point x="566" y="359" type="curve" smooth="yes"/>
      <point x="566" y="324"/>
      <point x="588" y="301"/>
      <point x="615" y="301" type="curve" smooth="yes"/>
      <point x="641" y="301"/>
      <point x="660" y="322"/>
      <point x="660" y="348" type="curve" smooth="yes"/>
      <point x="660" y="366"/>
      <point x="648" y="386"/>
    </contour>
  </outline>
</glyph>
